999
dxfrw 0.6.3
  0
SECTION
  2
HEADER
  9
$ACADVER
  1
AC1021
  9
$DWGCODEPAGE
  3
ANSI_1252
  9
$INSBASE
 10
0
 20
0
 30
0
  9
$EXTMIN
 10
8.144764049999999
 20
2.648299079326835
 30
0
  9
$EXTMAX
 10
174.7922771166815
 20
178.5878129686548
 30
0
  9
$LIMMIN
 10
0
 20
0
  9
$LIMMAX
 10
420
 20
297
  9
$ORTHOMODE
 70
    0
  9
$REGENMODE
 70
    1
  9
$FILLMODE
 70
    1
  9
$QTEXTMODE
 70
    0
  9
$MIRRTEXT
 70
    1
  9
$LTSCALE
 40
1
  9
$ATTMODE
 70
    1
  9
$TEXTSIZE
 40
2.5
  9
$TRACEWID
 40
1
  9
$TEXTSTYLE
  7
Standard
  9
$CLAYER
  8
Case
  9
$CELTYPE
  6
ByLayer
  9
$CECOLOR
 62
  256
  9
$CELTSCALE
 40
1
  9
$DISPSILH
 70
    0
  9
$DIMSCALE
 40
1
  9
$DIMASZ
 40
2.5
  9
$DIMEXO
 40
0.625
  9
$DIMDLI
 40
3.75
  9
$DIMRND
 40
0
  9
$DIMDLE
 40
0
  9
$DIMEXE
 40
1.25
  9
$DIMTP
 40
0
  9
$DIMTM
 40
0
  9
$DIMTXT
 40
2.5
  9
$DIMCEN
 40
2.5
  9
$DIMTSZ
 40
0
  9
$DIMTOL
 70
    0
  9
$DIMLIM
 70
    0
  9
$DIMTIH
 70
    0
  9
$DIMTOH
 70
    0
  9
$DIMSE1
 70
    0
  9
$DIMSE2
 70
    0
  9
$DIMTAD
 70
    1
  9
$DIMZIN
 70
    8
  9
$DIMBLK
  1

  9
$DIMASO
 70
    1
  9
$DIMSHO
 70
    1
  9
$DIMPOST
  1

  9
$DIMAPOST
  1

  9
$DIMALT
 70
    0
  9
$DIMALTD
 70
    3
  9
$DIMALTF
 40
0.03937007874016
  9
$DIMLFAC
 40
1
  9
$DIMTOFL
 70
    1
  9
$DIMTVP
 40
0
  9
$DIMTIX
 70
    0
  9
$DIMSOXD
 70
    0
  9
$DIMSAH
 70
    0
  9
$DIMBLK1
  1

  9
$DIMBLK2
  1

  9
$DIMSTYLE
  2
ISO-25
  9
$DIMCLRD
 70
    0
  9
$DIMCLRE
 70
    0
  9
$DIMCLRT
 70
    0
  9
$DIMTFAC
 40
1
  9
$DIMGAP
 40
0.625
  9
$DIMJUST
 70
    0
  9
$DIMSD1
 70
    0
  9
$DIMSD2
 70
    0
  9
$DIMTOLJ
 70
    0
  9
$DIMTZIN
 70
    8
  9
$DIMALTZ
 70
    0
  9
$DIMALTTZ
 70
    0
  9
$DIMUPT
 70
    0
  9
$DIMDEC
 70
    2
  9
$DIMTDEC
 70
    2
  9
$DIMALTU
 70
    2
  9
$DIMALTTD
 70
    3
  9
$DIMTXSTY
  7
Standard
  9
$DIMAUNIT
 70
    0
  9
$DIMADEC
 70
    0
  9
$DIMALTRND
 40
0
  9
$DIMAZIN
 70
    0
  9
$DIMDSEP
 70
   44
  9
$DIMATFIT
 70
    3
  9
$DIMFRAC
 70
    0
  9
$DIMLDRBLK
  1

  9
$DIMLUNIT
 70
    2
  9
$DIMLWD
 70
   -2
  9
$DIMLWE
 70
   -2
  9
$DIMTMOVE
 70
    0
  9
$DIMFXL
 40
1
  9
$DIMFXLON
 70
    0
  9
$DIMJOGANG
 40
0.7853981633974483
  9
$DIMTFILL
 70
    0
  9
$DIMTFILLCLR
 70
    0
  9
$DIMARCSYM
 70
    0
  9
$DIMLTYPE
  6

  9
$DIMLTEX1
  6

  9
$DIMLTEX2
  6

  9
$LUNITS
 70
    2
  9
$LUPREC
 70
    4
  9
$SKETCHINC
 40
1
  9
$FILLETRAD
 40
0
  9
$AUNITS
 70
    0
  9
$AUPREC
 70
    0
  9
$MENU
  1
.
  9
$ELEVATION
 40
0
  9
$PELEVATION
 40
0
  9
$THICKNESS
 40
0
  9
$LIMCHECK
 70
    0
  9
$CHAMFERA
 40
0
  9
$CHAMFERB
 40
0
  9
$CHAMFERC
 40
0
  9
$CHAMFERD
 40
0
  9
$SKPOLY
 70
    0
  9
$USRTIMER
 70
    1
  9
$ANGBASE
 50
0
  9
$ANGDIR
 70
    0
  9
$PDMODE
 70
    0
  9
$PDSIZE
 40
0
  9
$PLINEWID
 40
0
  9
$SPLFRAME
 70
    0
  9
$SPLINETYPE
 70
    6
  9
$SPLINESEGS
 70
    8
  9
$HANDSEED
  5
20000
  9
$SURFTAB1
 70
    6
  9
$SURFTAB2
 70
    6
  9
$SURFTYPE
 70
    6
  9
$SURFU
 70
    6
  9
$SURFV
 70
    6
  9
$UCSBASE
  2

  9
$UCSNAME
  2

  9
$UCSORG
 10
0
 20
0
 30
0
  9
$UCSXDIR
 10
1
 20
0
 30
0
  9
$UCSYDIR
 10
0
 20
1
 30
0
  9
$UCSORTHOREF
  2

  9
$UCSORTHOVIEW
 70
    0
  9
$UCSORGTOP
 10
0
 20
0
 30
0
  9
$UCSORGBOTTOM
 10
0
 20
0
 30
0
  9
$UCSORGLEFT
 10
0
 20
0
 30
0
  9
$UCSORGRIGHT
 10
0
 20
0
 30
0
  9
$UCSORGFRONT
 10
0
 20
0
 30
0
  9
$UCSORGBACK
 10
0
 20
0
 30
0
  9
$PUCSBASE
  2

  9
$PUCSNAME
  2

  9
$PUCSORG
 10
0
 20
0
 30
0
  9
$PUCSXDIR
 10
1
 20
0
 30
0
  9
$PUCSYDIR
 10
0
 20
1
 30
0
  9
$PUCSORTHOREF
  2

  9
$PUCSORTHOVIEW
 70
    0
  9
$PUCSORGTOP
 10
0
 20
0
 30
0
  9
$PUCSORGBOTTOM
 10
0
 20
0
 30
0
  9
$PUCSORGLEFT
 10
0
 20
0
 30
0
  9
$PUCSORGRIGHT
 10
0
 20
0
 30
0
  9
$PUCSORGFRONT
 10
0
 20
0
 30
0
  9
$PUCSORGBACK
 10
0
 20
0
 30
0
  9
$USERI1
 70
    0
  9
$USERI2
 70
    0
  9
$USERI3
 70
    0
  9
$USERI4
 70
    0
  9
$USERI5
 70
    0
  9
$USERR1
 40
0
  9
$USERR2
 40
0
  9
$USERR3
 40
0
  9
$USERR4
 40
0
  9
$USERR5
 40
0
  9
$WORLDVIEW
 70
    1
  9
$SHADEDGE
 70
    3
  9
$SHADEDIF
 70
   70
  9
$TILEMODE
 70
    1
  9
$MAXACTVP
 70
   64
  9
$PINSBASE
 10
0
 20
0
 30
0
  9
$PLIMCHECK
 70
    0
  9
$PEXTMIN
 10
148.6031489
 20
176.0223091
 30
0
  9
$PEXTMAX
 10
0
 20
0
 30
0
  9
$GRIDMODE
 70
    0
  9
$SNAPSTYLE
 70
    0
  9
$PLIMMIN
 10
-20
 20
-7.5
  9
$PLIMMAX
 10
277
 20
202.5
  9
$UNITMODE
 70
    0
  9
$VISRETAIN
 70
    1
  9
$PLINEGEN
 70
    0
  9
$PSLTSCALE
 70
    1
  9
$TREEDEPTH
 70
 3020
  9
$CMLSTYLE
  2
Standard
  9
$CMLJUST
 70
    0
  9
$CMLSCALE
 40
20
  9
$PROXYGRAPHICS
 70
    1
  9
$MEASUREMENT
 70
    1
  9
$CELWEIGHT
370
   -1
  9
$ENDCAPS
280
    0
  9
$JOINSTYLE
280
    0
  9
$LWDISPLAY
290
    0
  9
$INSUNITS
 70
    4
  9
$HYPERLINKBASE
  1

  9
$STYLESHEET
  1

  9
$XEDIT
290
    1
  9
$CEPSNTYPE
380
    0
  9
$PSTYLEMODE
290
    1
  9
$EXTNAMES
290
    1
  9
$PSVPSCALE
 40
0
  9
$OLESTARTUP
290
    0
  9
$SORTENTS
280
  127
  9
$INDEXCTL
280
    0
  9
$HIDETEXT
280
    1
  9
$XCLIPFRAME
290
    2
  9
$HALOGAP
280
    0
  9
$OBSCOLOR
 70
  257
  9
$OBSLTYPE
280
    0
  9
$INTERSECTIONDISPLAY
280
    0
  9
$INTERSECTIONCOLOR
 70
  257
  9
$DIMASSOC
280
    2
  9
$PROJECTNAME
  1

  9
$CAMERADISPLAY
290
    0
  9
$LENSLENGTH
 40
50
  9
$CAMERAHEIGHT
 40
0
  9
$STEPSPERSEC
 40
2
  9
$STEPSIZE
 40
6
  9
$3DDWFPREC
 40
2
  9
$PSOLWIDTH
 40
5
  9
$PSOLHEIGHT
 40
80
  9
$LOFTANG1
 40
1.570796326794897
  9
$LOFTANG2
 40
1.570796326794897
  9
$LOFTMAG1
 40
0
  9
$LOFTMAG2
 40
0
  9
$LOFTPARAM
 70
    7
  9
$LOFTNORMALS
280
    1
  9
$LATITUDE
 40
37.795
  9
$LONGITUDE
 40
-122.394
  9
$NORTHDIRECTION
 40
0
  9
$TIMEZONE
 70
-8000
  9
$LIGHTGLYPHDISPLAY
280
    1
  9
$TILEMODELIGHTSYNCH
280
    1
  9
$SOLIDHIST
280
    0
  9
$SHOWHIST
280
    1
  9
$DWFFRAME
280
    2
  9
$DGNFRAME
280
    2
  9
$REALWORLDSCALE
290
    1
  9
$INTERFERECOLOR
 62
  256
  9
$CSHADOW
280
    0
  9
$SHADOWPLANELOCATION
 40
0
  0
ENDSEC
  0
SECTION
  2
CLASSES
  0
ENDSEC
  0
SECTION
  2
TABLES
  0
TABLE
  2
VPORT
  5
8
330
0
100
AcDbSymbolTable
 70
    1
  0
VPORT
  5
31
330
2
100
AcDbSymbolTableRecord
100
AcDbViewportTableRecord
  2
*ACTIVE
 70
    0
 10
0
 20
0
 11
1
 21
1
 12
-40.98385945764738
 22
15.07597921316859
 13
0
 23
0
 14
10
 24
10
 15
10
 25
10
 16
0
 26
0
 36
1
 17
0
 27
0
 37
0
 40
6.58782284945182
 41
2.096153846153846
 42
50
 43
0
 44
0
 50
0
 51
0
 71
    0
 72
  100
 73
    1
 74
    3
 75
    0
 76
    0
 77
    0
 78
    0
281
    0
 65
    1
110
0
120
0
130
0
111
1
121
0
131
0
112
0
122
1
132
0
 79
    0
146
0
348
10020
 60
    7
 61
    5
292
1
282
    1
141
0
142
0
 63
  250
421
3358443
  0
ENDTAB
  0
TABLE
  2
LTYPE
  5
5
330
0
100
AcDbSymbolTable
 70
    4
  0
LTYPE
  5
14
330
5
100
AcDbSymbolTableRecord
100
AcDbLinetypeTableRecord
  2
ByBlock
 70
    0
  3

 72
   65
 73
    0
 40
0
  0
LTYPE
  5
15
330
5
100
AcDbSymbolTableRecord
100
AcDbLinetypeTableRecord
  2
ByLayer
 70
    0
  3

 72
   65
 73
    0
 40
0
  0
LTYPE
  5
16
330
5
100
AcDbSymbolTableRecord
100
AcDbLinetypeTableRecord
  2
Continuous
 70
    0
  3
Solid line
 72
   65
 73
    0
 40
0
  0
LTYPE
  5
32
330
5
100
AcDbSymbolTableRecord
100
AcDbLinetypeTableRecord
  2
DOT
 70
    0
  3
Dot . . . . . . . . . . . . . . . . . . . . . .
 72
   65
 73
    2
 40
6.35
 49
0
 74
    0
 49
-6.35
 74
    0
  0
LTYPE
  5
33
330
5
100
AcDbSymbolTableRecord
100
AcDbLinetypeTableRecord
  2
DOTTINY
 70
    0
  3
Dot (.15x) .....................................
 72
   65
 73
    2
 40
0.9525
 49
0
 74
    0
 49
-0.9525
 74
    0
  0
LTYPE
  5
34
330
5
100
AcDbSymbolTableRecord
100
AcDbLinetypeTableRecord
  2
DOT2
 70
    0
  3
Dot (.5x) .....................................
 72
   65
 73
    2
 40
3.175
 49
0
 74
    0
 49
-3.175
 74
    0
  0
LTYPE
  5
35
330
5
100
AcDbSymbolTableRecord
100
AcDbLinetypeTableRecord
  2
DOTX2
 70
    0
  3
Dot (2x) .  .  .  .  .  .  .  .  .  .  .  .  .
 72
   65
 73
    2
 40
12.7
 49
0
 74
    0
 49
-12.7
 74
    0
  0
LTYPE
  5
36
330
5
100
AcDbSymbolTableRecord
100
AcDbLinetypeTableRecord
  2
DASHED
 70
    0
  3
Dashed _ _ _ _ _ _ _ _ _ _ _ _ _ _ _ _ _
 72
   65
 73
    2
 40
19.05
 49
12.7
 74
    0
 49
-6.35
 74
    0
  0
LTYPE
  5
37
330
5
100
AcDbSymbolTableRecord
100
AcDbLinetypeTableRecord
  2
DASHEDTINY
 70
    0
  3
Dashed (.15x) _ _ _ _ _ _ _ _ _ _ _ _ _ _ _ _ _
 72
   65
 73
    2
 40
2.8575
 49
1.905
 74
    0
 49
-0.9525
 74
    0
  0
LTYPE
  5
38
330
5
100
AcDbSymbolTableRecord
100
AcDbLinetypeTableRecord
  2
DASHED2
 70
    0
  3
Dashed (.5x) _ _ _ _ _ _ _ _ _ _ _ _ _ _ _ _ _
 72
   65
 73
    2
 40
9.524999999999999
 49
6.35
 74
    0
 49
-3.175
 74
    0
  0
LTYPE
  5
39
330
5
100
AcDbSymbolTableRecord
100
AcDbLinetypeTableRecord
  2
DASHEDX2
 70
    0
  3
Dashed (2x) ____  ____  ____  ____  ____  ___
 72
   65
 73
    2
 40
38.09999999999999
 49
25.4
 74
    0
 49
-12.7
 74
    0
  0
LTYPE
  5
3A
330
5
100
AcDbSymbolTableRecord
100
AcDbLinetypeTableRecord
  2
DASHDOT
 70
    0
  3
Dash dot __ . __ . __ . __ . __ . __ . __ . __
 72
   65
 73
    4
 40
25.4
 49
12.7
 74
    0
 49
-6.35
 74
    0
 49
0
 74
    0
 49
-6.35
 74
    0
  0
LTYPE
  5
3B
330
5
100
AcDbSymbolTableRecord
100
AcDbLinetypeTableRecord
  2
DASHDOTTINY
 70
    0
  3
Dash dot (.15x) _._._._._._._._._._._._._._._.
 72
   65
 73
    4
 40
3.81
 49
1.905
 74
    0
 49
-0.9525
 74
    0
 49
0
 74
    0
 49
-0.9525
 74
    0
  0
LTYPE
  5
3C
330
5
100
AcDbSymbolTableRecord
100
AcDbLinetypeTableRecord
  2
DASHDOT2
 70
    0
  3
Dash dot (.5x) _._._._._._._._._._._._._._._.
 72
   65
 73
    4
 40
12.7
 49
6.35
 74
    0
 49
-3.175
 74
    0
 49
0
 74
    0
 49
-3.175
 74
    0
  0
LTYPE
  5
3D
330
5
100
AcDbSymbolTableRecord
100
AcDbLinetypeTableRecord
  2
DASHDOTX2
 70
    0
  3
Dash dot (2x) ____  .  ____  .  ____  .  ___
 72
   65
 73
    4
 40
50.8
 49
25.4
 74
    0
 49
-12.7
 74
    0
 49
0
 74
    0
 49
-12.7
 74
    0
  0
LTYPE
  5
3E
330
5
100
AcDbSymbolTableRecord
100
AcDbLinetypeTableRecord
  2
DIVIDE
 70
    0
  3
Divide ____ . . ____ . . ____ . . ____ . . ____
 72
   65
 73
    6
 40
31.75
 49
12.7
 74
    0
 49
-6.35
 74
    0
 49
0
 74
    0
 49
-6.35
 74
    0
 49
0
 74
    0
 49
-6.35
 74
    0
  0
LTYPE
  5
3F
330
5
100
AcDbSymbolTableRecord
100
AcDbLinetypeTableRecord
  2
DIVIDETINY
 70
    0
  3
Divide (.15x) __..__..__..__..__..__..__..__.._
 72
   65
 73
    6
 40
4.7625
 49
1.905
 74
    0
 49
-0.9525
 74
    0
 49
0
 74
    0
 49
-0.9525
 74
    0
 49
0
 74
    0
 49
-0.9525
 74
    0
  0
LTYPE
  5
40
330
5
100
AcDbSymbolTableRecord
100
AcDbLinetypeTableRecord
  2
DIVIDE2
 70
    0
  3
Divide (.5x) __..__..__..__..__..__..__..__.._
 72
   65
 73
    6
 40
15.875
 49
6.35
 74
    0
 49
-3.175
 74
    0
 49
0
 74
    0
 49
-3.175
 74
    0
 49
0
 74
    0
 49
-3.175
 74
    0
  0
LTYPE
  5
41
330
5
100
AcDbSymbolTableRecord
100
AcDbLinetypeTableRecord
  2
DIVIDEX2
 70
    0
  3
Divide (2x) ________  .  .  ________  .  .  _
 72
   65
 73
    6
 40
63.5
 49
25.4
 74
    0
 49
-12.7
 74
    0
 49
0
 74
    0
 49
-12.7
 74
    0
 49
0
 74
    0
 49
-12.7
 74
    0
  0
LTYPE
  5
42
330
5
100
AcDbSymbolTableRecord
100
AcDbLinetypeTableRecord
  2
BORDER
 70
    0
  3
Border __ __ . __ __ . __ __ . __ __ . __ __ .
 72
   65
 73
    6
 40
44.45
 49
12.7
 74
    0
 49
-6.35
 74
    0
 49
12.7
 74
    0
 49
-6.35
 74
    0
 49
0
 74
    0
 49
-6.35
 74
    0
  0
LTYPE
  5
43
330
5
100
AcDbSymbolTableRecord
100
AcDbLinetypeTableRecord
  2
BORDERTINY
 70
    0
  3
Border (.15x) __.__.__.__.__.__.__.__.__.__.__.
 72
   65
 73
    6
 40
6.6675
 49
1.905
 74
    0
 49
-0.9525
 74
    0
 49
1.905
 74
    0
 49
-0.9525
 74
    0
 49
0
 74
    0
 49
-0.9525
 74
    0
  0
LTYPE
  5
44
330
5
100
AcDbSymbolTableRecord
100
AcDbLinetypeTableRecord
  2
BORDER2
 70
    0
  3
Border (.5x) __.__.__.__.__.__.__.__.__.__.__.
 72
   65
 73
    6
 40
22.225
 49
6.35
 74
    0
 49
-3.175
 74
    0
 49
6.35
 74
    0
 49
-3.175
 74
    0
 49
0
 74
    0
 49
-3.175
 74
    0
  0
LTYPE
  5
45
330
5
100
AcDbSymbolTableRecord
100
AcDbLinetypeTableRecord
  2
BORDERX2
 70
    0
  3
Border (2x) ____  ____  .  ____  ____  .  ___
 72
   65
 73
    6
 40
88.89999999999999
 49
25.4
 74
    0
 49
-12.7
 74
    0
 49
25.4
 74
    0
 49
-12.7
 74
    0
 49
0
 74
    0
 49
-12.7
 74
    0
  0
LTYPE
  5
46
330
5
100
AcDbSymbolTableRecord
100
AcDbLinetypeTableRecord
  2
CENTER
 70
    0
  3
Center ____ _ ____ _ ____ _ ____ _ ____ _ ____
 72
   65
 73
    4
 40
50.8
 49
31.75
 74
    0
 49
-6.35
 74
    0
 49
6.35
 74
    0
 49
-6.35
 74
    0
  0
LTYPE
  5
47
330
5
100
AcDbSymbolTableRecord
100
AcDbLinetypeTableRecord
  2
CENTERTINY
 70
    0
  3
Center (.15x) ___ _ ___ _ ___ _ ___ _ ___ _ ___
 72
   65
 73
    4
 40
7.62
 49
4.7625
 74
    0
 49
-0.9525
 74
    0
 49
0.9525
 74
    0
 49
-0.9525
 74
    0
  0
LTYPE
  5
48
330
5
100
AcDbSymbolTableRecord
100
AcDbLinetypeTableRecord
  2
CENTER2
 70
    0
  3
Center (.5x) ___ _ ___ _ ___ _ ___ _ ___ _ ___
 72
   65
 73
    4
 40
28.575
 49
19.05
 74
    0
 49
-3.175
 74
    0
 49
3.175
 74
    0
 49
-3.175
 74
    0
  0
LTYPE
  5
49
330
5
100
AcDbSymbolTableRecord
100
AcDbLinetypeTableRecord
  2
CENTERX2
 70
    0
  3
Center (2x) ________  __  ________  __  _____
 72
   65
 73
    4
 40
101.6
 49
63.5
 74
    0
 49
-12.7
 74
    0
 49
12.7
 74
    0
 49
-12.7
 74
    0
  0
ENDTAB
  0
TABLE
  2
LAYER
  5
2
330
0
100
AcDbSymbolTable
 70
    1
  0
LAYER
  5
10
330
2
100
AcDbSymbolTableRecord
100
AcDbLayerTableRecord
  2
0
 70
    0
 62
    7
  6
CONTINUOUS
290
0
370
   -3
390
F
  0
LAYER
  5
4A
330
2
100
AcDbSymbolTableRecord
100
AcDbLayerTableRecord
  2
Anchor
 70
    0
 62
    3
  6
CONTINUOUS
290
0
370
    0
390
F
  0
LAYER
  5
4B
330
2
100
AcDbSymbolTableRecord
100
AcDbLayerTableRecord
  2
Case
 70
    0
 62
    6
  6
CONTINUOUS
370
    0
390
F
  0
LAYER
  5
4C
330
2
100
AcDbSymbolTableRecord
100
AcDbLayerTableRecord
  2
PCB
 70
    0
 62
    7
  6
CONTINUOUS
370
    0
390
F
  0
LAYER
  5
4D
330
2
100
AcDbSymbolTableRecord
100
AcDbLayerTableRecord
  2
Plate
 70
    0
 62
   96
420
32768
  6
CONTINUOUS
370
    0
390
F
  0
ENDTAB
  0
TABLE
  2
STYLE
  5
3
330
0
100
AcDbSymbolTable
 70
    3
  0
STYLE
  5
4E
330
2
100
AcDbSymbolTableRecord
100
AcDbTextStyleTableRecord
  2
Standard
 70
    0
 40
0
 41
1
 50
0
 71
    0
 42
1
  3
txt
  4

  0
ENDTAB
  0
TABLE
  2
VIEW
  5
6
330
0
100
AcDbSymbolTable
 70
    0
  0
ENDTAB
  0
TABLE
  2
UCS
  5
7
330
0
100
AcDbSymbolTable
 70
    0
  0
ENDTAB
  0
TABLE
  2
APPID
  5
9
330
0
100
AcDbSymbolTable
 70
    1
  0
APPID
  5
12
330
9
100
AcDbSymbolTableRecord
100
AcDbRegAppTableRecord
  2
ACAD
 70
    0
  0
APPID
  5
4F
330
9
100
AcDbSymbolTableRecord
100
AcDbRegAppTableRecord
  2
LibreCad
 70
    0
  0
ENDTAB
  0
TABLE
  2
DIMSTYLE
  5
A
330
0
100
AcDbSymbolTable
 70
    1
100
AcDbDimStyleTable
 71
    1
  0
DIMSTYLE
105
50
330
A
100
AcDbSymbolTableRecord
100
AcDbDimStyleTableRecord
  2
Standard
 70
    0
 40
1
 41
2.5
 42
0.625
 43
0.38
 44
1.25
 45
0
 46
0
 47
0
 48
0
 49
1
140
2.5
141
0.09
142
0
143
25.4
144
1
145
0
146
1
147
0.625
148
0
 71
    0
 72
    0
 73
    0
 74
    1
 75
    0
 76
    0
 77
    0
 78
    8
 79
    0
170
    0
171
    2
172
    0
173
    0
174
    0
175
    0
176
    0
177
    0
178
    0
179
    0
271
    2
272
    4
273
    2
274
    2
275
    0
276
    0
277
    2
278
   44
279
    0
280
    0
281
    0
282
    0
283
    1
284
    0
285
    0
286
    0
288
    0
289
    3
340
Standard
341

371
   -2
372
   -2
  0
ENDTAB
  0
TABLE
  2
BLOCK_RECORD
  5
1
330
0
100
AcDbSymbolTable
 70
    2
  0
BLOCK_RECORD
  5
1F
330
1
100
AcDbSymbolTableRecord
100
AcDbBlockTableRecord
  2
*Model_Space
 70
    0
280
    1
281
    0
  0
BLOCK_RECORD
  5
1E
330
1
100
AcDbSymbolTableRecord
100
AcDbBlockTableRecord
  2
*Paper_Space
 70
    0
280
    1
281
    0
  0
ENDTAB
  0
ENDSEC
  0
SECTION
  2
BLOCKS
  0
BLOCK
  5
20
330
1F
100
AcDbEntity
  8
0
100
AcDbBlockBegin
  2
*Model_Space
 70
    0
 10
0
 20
0
 30
0
  3
*Model_Space
  1

  0
ENDBLK
  5
21
330
1F
100
AcDbEntity
  8
0
100
AcDbBlockEnd
  0
BLOCK
  5
1C
330
1B
100
AcDbEntity
  8
0
100
AcDbBlockBegin
  2
*Paper_Space
 70
    0
 10
0
 20
0
 30
0
  3
*Paper_Space
  1

  0
ENDBLK
  5
1D
330
1F
100
AcDbEntity
  8
0
100
AcDbBlockEnd
  0
ENDSEC
  0
SECTION
  2
ENTITIES
  0
LWPOLYLINE
  5
51
100
AcDbEntity
  8
0
  6
CONTINUOUS
 62
    7
370
   25
100
AcDbPolyline
 90
    2
 70
    0
 43
0
 10
63.53851405000001
 20
137.95213485
 10
76.53851405
 20
137.95213485
  0
LWPOLYLINE
  5
52
100
AcDbEntity
  8
0
  6
CONTINUOUS
 62
    7
370
   25
100
AcDbPolyline
 90
    2
 70
    0
 43
0
 10
63.53851405000001
 20
123.95213485
 10
76.53851405
 20
123.95213485
  0
LWPOLYLINE
  5
53
100
AcDbEntity
  8
0
  6
CONTINUOUS
 62
    7
370
   25
100
AcDbPolyline
 90
    2
 70
    0
 43
0
 10
63.03851405000001
 20
137.45213485
 10
63.03851405000001
 20
124.45213485
  0
LWPOLYLINE
  5
54
100
AcDbEntity
  8
0
  6
CONTINUOUS
 62
    7
370
   25
100
AcDbPolyline
 90
    2
 70
    0
 43
0
 10
77.03851405
 20
137.45213485
 10
77.03851405
 20
124.45213485
  0
SPLINE
  5
55
100
AcDbEntity
  8
0
  6
CONTINUOUS
 62
    7
370
   25
100
AcDbSpline
210
0
220
0
230
0
 70
    8
 71
    3
 72
    8
 73
    4
 74
    0
 42
1e-007
 43
1e-007
 40
0
 40
0
 40
0
 40
0
 40
1
 40
1
 40
1
 40
1
 10
63.53851405000001
 20
137.95213485
 30
0
 10
63.26237167508461
 20
137.95213485
 30
0
 10
63.03851405000001
 20
137.7282772249154
 30
0
 10
63.03851405000001
 20
137.45213485
 30
0
  0
SPLINE
  5
56
100
AcDbEntity
  8
0
  6
CONTINUOUS
 62
    7
370
   25
100
AcDbSpline
210
0
220
0
230
0
 70
    8
 71
    3
 72
    8
 73
    4
 74
    0
 42
1e-007
 43
1e-007
 40
0
 40
0
 40
0
 40
0
 40
1
 40
1
 40
1
 40
1
 10
77.03851405
 20
137.45213485
 30
0
 10
77.03851405
 20
137.7282772249154
 30
0
 10
76.8146564249154
 20
137.95213485
 30
0
 10
76.53851405
 20
137.95213485
 30
0
  0
SPLINE
  5
57
100
AcDbEntity
  8
0
  6
CONTINUOUS
 62
    7
370
   25
100
AcDbSpline
210
0
220
0
230
0
 70
    8
 71
    3
 72
    8
 73
    4
 74
    0
 42
1e-007
 43
1e-007
 40
0
 40
0
 40
0
 40
0
 40
1
 40
1
 40
1
 40
1
 10
63.03851405000001
 20
124.45213485
 30
0
 10
63.03851405000001
 20
124.1759924750846
 30
0
 10
63.26237167508461
 20
123.95213485
 30
0
 10
63.53851405000001
 20
123.95213485
 30
0
  0
SPLINE
  5
58
100
AcDbEntity
  8
0
  6
CONTINUOUS
 62
    7
370
   25
100
AcDbSpline
210
0
220
0
230
0
 70
    8
 71
    3
 72
    8
 73
    4
 74
    0
 42
1e-007
 43
1e-007
 40
0
 40
0
 40
0
 40
0
 40
1
 40
1
 40
1
 40
1
 10
76.53851405
 20
123.95213485
 30
0
 10
76.8146564249154
 20
123.95213485
 30
0
 10
77.03851405
 20
124.1759924750846
 30
0
 10
77.03851405
 20
124.45213485
 30
0
  0
LWPOLYLINE
  5
59
100
AcDbEntity
  8
0
  6
CONTINUOUS
 62
    7
370
   25
100
AcDbPolyline
 90
    2
 70
    0
 43
0
 10
82.58851405000001
 20
137.95213485
 10
95.58851405000001
 20
137.95213485
  0
LWPOLYLINE
  5
5A
100
AcDbEntity
  8
0
  6
CONTINUOUS
 62
    7
370
   25
100
AcDbPolyline
 90
    2
 70
    0
 43
0
 10
82.58851405000001
 20
123.95213485
 10
95.58851405000001
 20
123.95213485
  0
LWPOLYLINE
  5
5B
100
AcDbEntity
  8
0
  6
CONTINUOUS
 62
    7
370
   25
100
AcDbPolyline
 90
    2
 70
    0
 43
0
 10
82.08851405000001
 20
137.45213485
 10
82.08851405000001
 20
124.45213485
  0
LWPOLYLINE
  5
5C
100
AcDbEntity
  8
0
  6
CONTINUOUS
 62
    7
370
   25
100
AcDbPolyline
 90
    2
 70
    0
 43
0
 10
96.08851405000001
 20
137.45213485
 10
96.08851405000001
 20
124.45213485
  0
SPLINE
  5
5D
100
AcDbEntity
  8
0
  6
CONTINUOUS
 62
    7
370
   25
100
AcDbSpline
210
0
220
0
230
0
 70
    8
 71
    3
 72
    8
 73
    4
 74
    0
 42
1e-007
 43
1e-007
 40
0
 40
0
 40
0
 40
0
 40
1
 40
1
 40
1
 40
1
 10
82.58851405000001
 20
137.95213485
 30
0
 10
82.31237167508461
 20
137.95213485
 30
0
 10
82.08851405000001
 20
137.7282772249154
 30
0
 10
82.08851405000001
 20
137.45213485
 30
0
  0
SPLINE
  5
5E
100
AcDbEntity
  8
0
  6
CONTINUOUS
 62
    7
370
   25
100
AcDbSpline
210
0
220
0
230
0
 70
    8
 71
    3
 72
    8
 73
    4
 74
    0
 42
1e-007
 43
1e-007
 40
0
 40
0
 40
0
 40
0
 40
1
 40
1
 40
1
 40
1
 10
96.08851405000001
 20
137.45213485
 30
0
 10
96.08851405000001
 20
137.7282772249154
 30
0
 10
95.8646564249154
 20
137.95213485
 30
0
 10
95.58851405000001
 20
137.95213485
 30
0
  0
SPLINE
  5
5F
100
AcDbEntity
  8
0
  6
CONTINUOUS
 62
    7
370
   25
100
AcDbSpline
210
0
220
0
230
0
 70
    8
 71
    3
 72
    8
 73
    4
 74
    0
 42
1e-007
 43
1e-007
 40
0
 40
0
 40
0
 40
0
 40
1
 40
1
 40
1
 40
1
 10
82.08851405000001
 20
124.45213485
 30
0
 10
82.08851405000001
 20
124.1759924750846
 30
0
 10
82.31237167508461
 20
123.95213485
 30
0
 10
82.58851405000001
 20
123.95213485
 30
0
  0
SPLINE
  5
60
100
AcDbEntity
  8
0
  6
CONTINUOUS
 62
    7
370
   25
100
AcDbSpline
210
0
220
0
230
0
 70
    8
 71
    3
 72
    8
 73
    4
 74
    0
 42
1e-007
 43
1e-007
 40
0
 40
0
 40
0
 40
0
 40
1
 40
1
 40
1
 40
1
 10
95.58851405000001
 20
123.95213485
 30
0
 10
95.8646564249154
 20
123.95213485
 30
0
 10
96.08851405000001
 20
124.1759924750846
 30
0
 10
96.08851405000001
 20
124.45213485
 30
0
  0
LWPOLYLINE
  5
61
100
AcDbEntity
  8
0
  6
CONTINUOUS
 62
    7
370
   25
100
AcDbPolyline
 90
    2
 70
    0
 43
0
 10
101.63851405
 20
133.18963485
 10
114.63851405
 20
133.18963485
  0
LWPOLYLINE
  5
62
100
AcDbEntity
  8
0
  6
CONTINUOUS
 62
    7
370
   25
100
AcDbPolyline
 90
    2
 70
    0
 43
0
 10
101.63851405
 20
119.18963485
 10
114.63851405
 20
119.18963485
  0
LWPOLYLINE
  5
63
100
AcDbEntity
  8
0
  6
CONTINUOUS
 62
    7
370
   25
100
AcDbPolyline
 90
    2
 70
    0
 43
0
 10
101.13851405
 20
132.68963485
 10
101.13851405
 20
119.68963485
  0
LWPOLYLINE
  5
64
100
AcDbEntity
  8
0
  6
CONTINUOUS
 62
    7
370
   25
100
AcDbPolyline
 90
    2
 70
    0
 43
0
 10
115.13851405
 20
132.68963485
 10
115.13851405
 20
119.68963485
  0
SPLINE
  5
65
100
AcDbEntity
  8
0
  6
CONTINUOUS
 62
    7
370
   25
100
AcDbSpline
210
0
220
0
230
0
 70
    8
 71
    3
 72
    8
 73
    4
 74
    0
 42
1e-007
 43
1e-007
 40
0
 40
0
 40
0
 40
0
 40
1
 40
1
 40
1
 40
1
 10
101.63851405
 20
133.18963485
 30
0
 10
101.3623716750846
 20
133.18963485
 30
0
 10
101.13851405
 20
132.9657772249154
 30
0
 10
101.13851405
 20
132.68963485
 30
0
  0
SPLINE
  5
66
100
AcDbEntity
  8
0
  6
CONTINUOUS
 62
    7
370
   25
100
AcDbSpline
210
0
220
0
230
0
 70
    8
 71
    3
 72
    8
 73
    4
 74
    0
 42
1e-007
 43
1e-007
 40
0
 40
0
 40
0
 40
0
 40
1
 40
1
 40
1
 40
1
 10
115.13851405
 20
132.68963485
 30
0
 10
115.13851405
 20
132.9657772249154
 30
0
 10
114.9146564249154
 20
133.18963485
 30
0
 10
114.63851405
 20
133.18963485
 30
0
  0
SPLINE
  5
67
100
AcDbEntity
  8
0
  6
CONTINUOUS
 62
    7
370
   25
100
AcDbSpline
210
0
220
0
230
0
 70
    8
 71
    3
 72
    8
 73
    4
 74
    0
 42
1e-007
 43
1e-007
 40
0
 40
0
 40
0
 40
0
 40
1
 40
1
 40
1
 40
1
 10
101.13851405
 20
119.68963485
 30
0
 10
101.13851405
 20
119.4134924750846
 30
0
 10
101.3623716750846
 20
119.18963485
 30
0
 10
101.63851405
 20
119.18963485
 30
0
  0
SPLINE
  5
68
100
AcDbEntity
  8
0
  6
CONTINUOUS
 62
    7
370
   25
100
AcDbSpline
210
0
220
0
230
0
 70
    8
 71
    3
 72
    8
 73
    4
 74
    0
 42
1e-007
 43
1e-007
 40
0
 40
0
 40
0
 40
0
 40
1
 40
1
 40
1
 40
1
 10
114.63851405
 20
119.18963485
 30
0
 10
114.9146564249154
 20
119.18963485
 30
0
 10
115.13851405
 20
119.4134924750846
 30
0
 10
115.13851405
 20
119.68963485
 30
0
  0
LWPOLYLINE
  5
69
100
AcDbEntity
  8
0
  6
CONTINUOUS
 62
    7
370
   25
100
AcDbPolyline
 90
    2
 70
    0
 43
0
 10
120.68851405
 20
133.18963485
 10
133.68851405
 20
133.18963485
  0
LWPOLYLINE
  5
6A
100
AcDbEntity
  8
0
  6
CONTINUOUS
 62
    7
370
   25
100
AcDbPolyline
 90
    2
 70
    0
 43
0
 10
120.68851405
 20
119.18963485
 10
133.68851405
 20
119.18963485
  0
LWPOLYLINE
  5
6B
100
AcDbEntity
  8
0
  6
CONTINUOUS
 62
    7
370
   25
100
AcDbPolyline
 90
    2
 70
    0
 43
0
 10
120.18851405
 20
132.68963485
 10
120.18851405
 20
119.68963485
  0
LWPOLYLINE
  5
6C
100
AcDbEntity
  8
0
  6
CONTINUOUS
 62
    7
370
   25
100
AcDbPolyline
 90
    2
 70
    0
 43
0
 10
134.18851405
 20
132.68963485
 10
134.18851405
 20
119.68963485
  0
SPLINE
  5
6D
100
AcDbEntity
  8
0
  6
CONTINUOUS
 62
    7
370
   25
100
AcDbSpline
210
0
220
0
230
0
 70
    8
 71
    3
 72
    8
 73
    4
 74
    0
 42
1e-007
 43
1e-007
 40
0
 40
0
 40
0
 40
0
 40
1
 40
1
 40
1
 40
1
 10
120.68851405
 20
133.18963485
 30
0
 10
120.4123716750846
 20
133.18963485
 30
0
 10
120.18851405
 20
132.9657772249154
 30
0
 10
120.18851405
 20
132.68963485
 30
0
  0
SPLINE
  5
6E
100
AcDbEntity
  8
0
  6
CONTINUOUS
 62
    7
370
   25
100
AcDbSpline
210
0
220
0
230
0
 70
    8
 71
    3
 72
    8
 73
    4
 74
    0
 42
1e-007
 43
1e-007
 40
0
 40
0
 40
0
 40
0
 40
1
 40
1
 40
1
 40
1
 10
134.18851405
 20
132.68963485
 30
0
 10
134.18851405
 20
132.9657772249154
 30
0
 10
133.9646564249154
 20
133.18963485
 30
0
 10
133.68851405
 20
133.18963485
 30
0
  0
SPLINE
  5
6F
100
AcDbEntity
  8
0
  6
CONTINUOUS
 62
    7
370
   25
100
AcDbSpline
210
0
220
0
230
0
 70
    8
 71
    3
 72
    8
 73
    4
 74
    0
 42
1e-007
 43
1e-007
 40
0
 40
0
 40
0
 40
0
 40
1
 40
1
 40
1
 40
1
 10
120.18851405
 20
119.68963485
 30
0
 10
120.18851405
 20
119.4134924750846
 30
0
 10
120.4123716750846
 20
119.18963485
 30
0
 10
120.68851405
 20
119.18963485
 30
0
  0
SPLINE
  5
70
100
AcDbEntity
  8
0
  6
CONTINUOUS
 62
    7
370
   25
100
AcDbSpline
210
0
220
0
230
0
 70
    8
 71
    3
 72
    8
 73
    4
 74
    0
 42
1e-007
 43
1e-007
 40
0
 40
0
 40
0
 40
0
 40
1
 40
1
 40
1
 40
1
 10
133.68851405
 20
119.18963485
 30
0
 10
133.9646564249154
 20
119.18963485
 30
0
 10
134.18851405
 20
119.4134924750846
 30
0
 10
134.18851405
 20
119.68963485
 30
0
  0
LWPOLYLINE
  5
71
100
AcDbEntity
  8
0
  6
CONTINUOUS
 62
    7
370
   25
100
AcDbPolyline
 90
    2
 70
    0
 43
0
 10
25.43851405000001
 20
128.42713485
 10
38.43851405
 20
128.42713485
  0
LWPOLYLINE
  5
72
100
AcDbEntity
  8
0
  6
CONTINUOUS
 62
    7
370
   25
100
AcDbPolyline
 90
    2
 70
    0
 43
0
 10
25.43851405000001
 20
114.42713485
 10
38.43851405
 20
114.42713485
  0
LWPOLYLINE
  5
73
100
AcDbEntity
  8
0
  6
CONTINUOUS
 62
    7
370
   25
100
AcDbPolyline
 90
    2
 70
    0
 43
0
 10
24.93851405000001
 20
127.92713485
 10
24.93851405000001
 20
114.92713485
  0
LWPOLYLINE
  5
74
100
AcDbEntity
  8
0
  6
CONTINUOUS
 62
    7
370
   25
100
AcDbPolyline
 90
    2
 70
    0
 43
0
 10
38.93851405000001
 20
127.92713485
 10
38.93851405000001
 20
114.92713485
  0
SPLINE
  5
75
100
AcDbEntity
  8
0
  6
CONTINUOUS
 62
    7
370
   25
100
AcDbSpline
210
0
220
0
230
0
 70
    8
 71
    3
 72
    8
 73
    4
 74
    0
 42
1e-007
 43
1e-007
 40
0
 40
0
 40
0
 40
0
 40
1
 40
1
 40
1
 40
1
 10
25.43851405000001
 20
128.42713485
 30
0
 10
25.16237167508461
 20
128.42713485
 30
0
 10
24.93851405000001
 20
128.2032772249154
 30
0
 10
24.93851405000001
 20
127.92713485
 30
0
  0
SPLINE
  5
76
100
AcDbEntity
  8
0
  6
CONTINUOUS
 62
    7
370
   25
100
AcDbSpline
210
0
220
0
230
0
 70
    8
 71
    3
 72
    8
 73
    4
 74
    0
 42
1e-007
 43
1e-007
 40
0
 40
0
 40
0
 40
0
 40
1
 40
1
 40
1
 40
1
 10
38.93851405000001
 20
127.92713485
 30
0
 10
38.93851405000001
 20
128.2032772249154
 30
0
 10
38.7146564249154
 20
128.42713485
 30
0
 10
38.43851405
 20
128.42713485
 30
0
  0
SPLINE
  5
77
100
AcDbEntity
  8
0
  6
CONTINUOUS
 62
    7
370
   25
100
AcDbSpline
210
0
220
0
230
0
 70
    8
 71
    3
 72
    8
 73
    4
 74
    0
 42
1e-007
 43
1e-007
 40
0
 40
0
 40
0
 40
0
 40
1
 40
1
 40
1
 40
1
 10
24.93851405000001
 20
114.92713485
 30
0
 10
24.93851405000001
 20
114.6509924750846
 30
0
 10
25.16237167508461
 20
114.42713485
 30
0
 10
25.43851405000001
 20
114.42713485
 30
0
  0
SPLINE
  5
78
100
AcDbEntity
  8
0
  6
CONTINUOUS
 62
    7
370
   25
100
AcDbSpline
210
0
220
0
230
0
 70
    8
 71
    3
 72
    8
 73
    4
 74
    0
 42
1e-007
 43
1e-007
 40
0
 40
0
 40
0
 40
0
 40
1
 40
1
 40
1
 40
1
 10
38.43851405
 20
114.42713485
 30
0
 10
38.7146564249154
 20
114.42713485
 30
0
 10
38.93851405000001
 20
114.6509924750846
 30
0
 10
38.93851405000001
 20
114.92713485
 30
0
  0
LWPOLYLINE
  5
79
100
AcDbEntity
  8
0
  6
CONTINUOUS
 62
    7
370
   25
100
AcDbPolyline
 90
    2
 70
    0
 43
0
 10
44.48851405
 20
128.42713485
 10
57.48851405
 20
128.42713485
  0
LWPOLYLINE
  5
7A
100
AcDbEntity
  8
0
  6
CONTINUOUS
 62
    7
370
   25
100
AcDbPolyline
 90
    2
 70
    0
 43
0
 10
44.48851405
 20
114.42713485
 10
57.48851405
 20
114.42713485
  0
LWPOLYLINE
  5
7B
100
AcDbEntity
  8
0
  6
CONTINUOUS
 62
    7
370
   25
100
AcDbPolyline
 90
    2
 70
    0
 43
0
 10
43.98851405
 20
127.92713485
 10
43.98851405
 20
114.92713485
  0
LWPOLYLINE
  5
7C
100
AcDbEntity
  8
0
  6
CONTINUOUS
 62
    7
370
   25
100
AcDbPolyline
 90
    2
 70
    0
 43
0
 10
57.98851405
 20
127.92713485
 10
57.98851405
 20
114.92713485
  0
SPLINE
  5
7D
100
AcDbEntity
  8
0
  6
CONTINUOUS
 62
    7
370
   25
100
AcDbSpline
210
0
220
0
230
0
 70
    8
 71
    3
 72
    8
 73
    4
 74
    0
 42
1e-007
 43
1e-007
 40
0
 40
0
 40
0
 40
0
 40
1
 40
1
 40
1
 40
1
 10
44.48851405
 20
128.42713485
 30
0
 10
44.21237167508461
 20
128.42713485
 30
0
 10
43.98851405
 20
128.2032772249154
 30
0
 10
43.98851405
 20
127.92713485
 30
0
  0
SPLINE
  5
7E
100
AcDbEntity
  8
0
  6
CONTINUOUS
 62
    7
370
   25
100
AcDbSpline
210
0
220
0
230
0
 70
    8
 71
    3
 72
    8
 73
    4
 74
    0
 42
1e-007
 43
1e-007
 40
0
 40
0
 40
0
 40
0
 40
1
 40
1
 40
1
 40
1
 10
57.98851405
 20
127.92713485
 30
0
 10
57.98851405
 20
128.2032772249154
 30
0
 10
57.7646564249154
 20
128.42713485
 30
0
 10
57.48851405
 20
128.42713485
 30
0
  0
SPLINE
  5
7F
100
AcDbEntity
  8
0
  6
CONTINUOUS
 62
    7
370
   25
100
AcDbSpline
210
0
220
0
230
0
 70
    8
 71
    3
 72
    8
 73
    4
 74
    0
 42
1e-007
 43
1e-007
 40
0
 40
0
 40
0
 40
0
 40
1
 40
1
 40
1
 40
1
 10
43.98851405
 20
114.92713485
 30
0
 10
43.98851405
 20
114.6509924750846
 30
0
 10
44.21237167508461
 20
114.42713485
 30
0
 10
44.48851405
 20
114.42713485
 30
0
  0
SPLINE
  5
80
100
AcDbEntity
  8
0
  6
CONTINUOUS
 62
    7
370
   25
100
AcDbSpline
210
0
220
0
230
0
 70
    8
 71
    3
 72
    8
 73
    4
 74
    0
 42
1e-007
 43
1e-007
 40
0
 40
0
 40
0
 40
0
 40
1
 40
1
 40
1
 40
1
 10
57.48851405
 20
114.42713485
 30
0
 10
57.7646564249154
 20
114.42713485
 30
0
 10
57.98851405
 20
114.6509924750846
 30
0
 10
57.98851405
 20
114.92713485
 30
0
  0
LWPOLYLINE
  5
81
100
AcDbEntity
  8
0
  6
CONTINUOUS
 62
    7
370
   25
100
AcDbPolyline
 90
    2
 70
    0
 43
0
 10
139.73851405
 20
128.42713485
 10
152.73851405
 20
128.42713485
  0
LWPOLYLINE
  5
82
100
AcDbEntity
  8
0
  6
CONTINUOUS
 62
    7
370
   25
100
AcDbPolyline
 90
    2
 70
    0
 43
0
 10
139.73851405
 20
114.42713485
 10
152.73851405
 20
114.42713485
  0
LWPOLYLINE
  5
83
100
AcDbEntity
  8
0
  6
CONTINUOUS
 62
    7
370
   25
100
AcDbPolyline
 90
    2
 70
    0
 43
0
 10
139.23851405
 20
127.92713485
 10
139.23851405
 20
114.92713485
  0
LWPOLYLINE
  5
84
100
AcDbEntity
  8
0
  6
CONTINUOUS
 62
    7
370
   25
100
AcDbPolyline
 90
    2
 70
    0
 43
0
 10
153.23851405
 20
127.92713485
 10
153.23851405
 20
114.92713485
  0
SPLINE
  5
85
100
AcDbEntity
  8
0
  6
CONTINUOUS
 62
    7
370
   25
100
AcDbSpline
210
0
220
0
230
0
 70
    8
 71
    3
 72
    8
 73
    4
 74
    0
 42
1e-007
 43
1e-007
 40
0
 40
0
 40
0
 40
0
 40
1
 40
1
 40
1
 40
1
 10
139.73851405
 20
128.42713485
 30
0
 10
139.4623716750846
 20
128.42713485
 30
0
 10
139.23851405
 20
128.2032772249154
 30
0
 10
139.23851405
 20
127.92713485
 30
0
  0
SPLINE
  5
86
100
AcDbEntity
  8
0
  6
CONTINUOUS
 62
    7
370
   25
100
AcDbSpline
210
0
220
0
230
0
 70
    8
 71
    3
 72
    8
 73
    4
 74
    0
 42
1e-007
 43
1e-007
 40
0
 40
0
 40
0
 40
0
 40
1
 40
1
 40
1
 40
1
 10
153.23851405
 20
127.92713485
 30
0
 10
153.23851405
 20
128.2032772249154
 30
0
 10
153.0146564249154
 20
128.42713485
 30
0
 10
152.73851405
 20
128.42713485
 30
0
  0
SPLINE
  5
87
100
AcDbEntity
  8
0
  6
CONTINUOUS
 62
    7
370
   25
100
AcDbSpline
210
0
220
0
230
0
 70
    8
 71
    3
 72
    8
 73
    4
 74
    0
 42
1e-007
 43
1e-007
 40
0
 40
0
 40
0
 40
0
 40
1
 40
1
 40
1
 40
1
 10
139.23851405
 20
114.92713485
 30
0
 10
139.23851405
 20
114.6509924750846
 30
0
 10
139.4623716750846
 20
114.42713485
 30
0
 10
139.73851405
 20
114.42713485
 30
0
  0
SPLINE
  5
88
100
AcDbEntity
  8
0
  6
CONTINUOUS
 62
    7
370
   25
100
AcDbSpline
210
0
220
0
230
0
 70
    8
 71
    3
 72
    8
 73
    4
 74
    0
 42
1e-007
 43
1e-007
 40
0
 40
0
 40
0
 40
0
 40
1
 40
1
 40
1
 40
1
 10
152.73851405
 20
114.42713485
 30
0
 10
153.0146564249154
 20
114.42713485
 30
0
 10
153.23851405
 20
114.6509924750846
 30
0
 10
153.23851405
 20
114.92713485
 30
0
  0
LWPOLYLINE
  5
89
100
AcDbEntity
  8
0
  6
CONTINUOUS
 62
    7
370
   25
100
AcDbPolyline
 90
    2
 70
    0
 43
0
 10
63.53851405000001
 20
118.90213485
 10
76.53851405
 20
118.90213485
  0
LWPOLYLINE
  5
8A
100
AcDbEntity
  8
0
  6
CONTINUOUS
 62
    7
370
   25
100
AcDbPolyline
 90
    2
 70
    0
 43
0
 10
63.53851405000001
 20
104.90213485
 10
76.53851405
 20
104.90213485
  0
LWPOLYLINE
  5
8B
100
AcDbEntity
  8
0
  6
CONTINUOUS
 62
    7
370
   25
100
AcDbPolyline
 90
    2
 70
    0
 43
0
 10
63.03851405000001
 20
118.40213485
 10
63.03851405000001
 20
105.40213485
  0
LWPOLYLINE
  5
8C
100
AcDbEntity
  8
0
  6
CONTINUOUS
 62
    7
370
   25
100
AcDbPolyline
 90
    2
 70
    0
 43
0
 10
77.03851405
 20
118.40213485
 10
77.03851405
 20
105.40213485
  0
SPLINE
  5
8D
100
AcDbEntity
  8
0
  6
CONTINUOUS
 62
    7
370
   25
100
AcDbSpline
210
0
220
0
230
0
 70
    8
 71
    3
 72
    8
 73
    4
 74
    0
 42
1e-007
 43
1e-007
 40
0
 40
0
 40
0
 40
0
 40
1
 40
1
 40
1
 40
1
 10
63.53851405000001
 20
118.90213485
 30
0
 10
63.26237167508461
 20
118.90213485
 30
0
 10
63.03851405000001
 20
118.6782772249154
 30
0
 10
63.03851405000001
 20
118.40213485
 30
0
  0
SPLINE
  5
8E
100
AcDbEntity
  8
0
  6
CONTINUOUS
 62
    7
370
   25
100
AcDbSpline
210
0
220
0
230
0
 70
    8
 71
    3
 72
    8
 73
    4
 74
    0
 42
1e-007
 43
1e-007
 40
0
 40
0
 40
0
 40
0
 40
1
 40
1
 40
1
 40
1
 10
77.03851405
 20
118.40213485
 30
0
 10
77.03851405
 20
118.6782772249154
 30
0
 10
76.8146564249154
 20
118.90213485
 30
0
 10
76.53851405
 20
118.90213485
 30
0
  0
SPLINE
  5
8F
100
AcDbEntity
  8
0
  6
CONTINUOUS
 62
    7
370
   25
100
AcDbSpline
210
0
220
0
230
0
 70
    8
 71
    3
 72
    8
 73
    4
 74
    0
 42
1e-007
 43
1e-007
 40
0
 40
0
 40
0
 40
0
 40
1
 40
1
 40
1
 40
1
 10
63.03851405000001
 20
105.40213485
 30
0
 10
63.03851405000001
 20
105.1259924750846
 30
0
 10
63.26237167508461
 20
104.90213485
 30
0
 10
63.53851405000001
 20
104.90213485
 30
0
  0
SPLINE
  5
90
100
AcDbEntity
  8
0
  6
CONTINUOUS
 62
    7
370
   25
100
AcDbSpline
210
0
220
0
230
0
 70
    8
 71
    3
 72
    8
 73
    4
 74
    0
 42
1e-007
 43
1e-007
 40
0
 40
0
 40
0
 40
0
 40
1
 40
1
 40
1
 40
1
 10
76.53851405
 20
104.90213485
 30
0
 10
76.8146564249154
 20
104.90213485
 30
0
 10
77.03851405
 20
105.1259924750846
 30
0
 10
77.03851405
 20
105.40213485
 30
0
  0
LWPOLYLINE
  5
91
100
AcDbEntity
  8
0
  6
CONTINUOUS
 62
    7
370
   25
100
AcDbPolyline
 90
    2
 70
    0
 43
0
 10
82.58851405000001
 20
118.90213485
 10
95.58851405000001
 20
118.90213485
  0
LWPOLYLINE
  5
92
100
AcDbEntity
  8
0
  6
CONTINUOUS
 62
    7
370
   25
100
AcDbPolyline
 90
    2
 70
    0
 43
0
 10
82.58851405000001
 20
104.90213485
 10
95.58851405000001
 20
104.90213485
  0
LWPOLYLINE
  5
93
100
AcDbEntity
  8
0
  6
CONTINUOUS
 62
    7
370
   25
100
AcDbPolyline
 90
    2
 70
    0
 43
0
 10
82.08851405000001
 20
118.40213485
 10
82.08851405000001
 20
105.40213485
  0
LWPOLYLINE
  5
94
100
AcDbEntity
  8
0
  6
CONTINUOUS
 62
    7
370
   25
100
AcDbPolyline
 90
    2
 70
    0
 43
0
 10
96.08851405000001
 20
118.40213485
 10
96.08851405000001
 20
105.40213485
  0
SPLINE
  5
95
100
AcDbEntity
  8
0
  6
CONTINUOUS
 62
    7
370
   25
100
AcDbSpline
210
0
220
0
230
0
 70
    8
 71
    3
 72
    8
 73
    4
 74
    0
 42
1e-007
 43
1e-007
 40
0
 40
0
 40
0
 40
0
 40
1
 40
1
 40
1
 40
1
 10
82.58851405000001
 20
118.90213485
 30
0
 10
82.31237167508461
 20
118.90213485
 30
0
 10
82.08851405000001
 20
118.6782772249154
 30
0
 10
82.08851405000001
 20
118.40213485
 30
0
  0
SPLINE
  5
96
100
AcDbEntity
  8
0
  6
CONTINUOUS
 62
    7
370
   25
100
AcDbSpline
210
0
220
0
230
0
 70
    8
 71
    3
 72
    8
 73
    4
 74
    0
 42
1e-007
 43
1e-007
 40
0
 40
0
 40
0
 40
0
 40
1
 40
1
 40
1
 40
1
 10
96.08851405000001
 20
118.40213485
 30
0
 10
96.08851405000001
 20
118.6782772249154
 30
0
 10
95.8646564249154
 20
118.90213485
 30
0
 10
95.58851405000001
 20
118.90213485
 30
0
  0
SPLINE
  5
97
100
AcDbEntity
  8
0
  6
CONTINUOUS
 62
    7
370
   25
100
AcDbSpline
210
0
220
0
230
0
 70
    8
 71
    3
 72
    8
 73
    4
 74
    0
 42
1e-007
 43
1e-007
 40
0
 40
0
 40
0
 40
0
 40
1
 40
1
 40
1
 40
1
 10
82.08851405000001
 20
105.40213485
 30
0
 10
82.08851405000001
 20
105.1259924750846
 30
0
 10
82.31237167508461
 20
104.90213485
 30
0
 10
82.58851405000001
 20
104.90213485
 30
0
  0
SPLINE
  5
98
100
AcDbEntity
  8
0
  6
CONTINUOUS
 62
    7
370
   25
100
AcDbSpline
210
0
220
0
230
0
 70
    8
 71
    3
 72
    8
 73
    4
 74
    0
 42
1e-007
 43
1e-007
 40
0
 40
0
 40
0
 40
0
 40
1
 40
1
 40
1
 40
1
 10
95.58851405000001
 20
104.90213485
 30
0
 10
95.8646564249154
 20
104.90213485
 30
0
 10
96.08851405000001
 20
105.1259924750846
 30
0
 10
96.08851405000001
 20
105.40213485
 30
0
  0
LWPOLYLINE
  5
99
100
AcDbEntity
  8
0
  6
CONTINUOUS
 62
    7
370
   25
100
AcDbPolyline
 90
    2
 70
    0
 43
0
 10
101.63851405
 20
114.13963485
 10
114.63851405
 20
114.13963485
  0
LWPOLYLINE
  5
9A
100
AcDbEntity
  8
0
  6
CONTINUOUS
 62
    7
370
   25
100
AcDbPolyline
 90
    2
 70
    0
 43
0
 10
101.63851405
 20
100.13963485
 10
114.63851405
 20
100.13963485
  0
LWPOLYLINE
  5
9B
100
AcDbEntity
  8
0
  6
CONTINUOUS
 62
    7
370
   25
100
AcDbPolyline
 90
    2
 70
    0
 43
0
 10
101.13851405
 20
113.63963485
 10
101.13851405
 20
100.63963485
  0
LWPOLYLINE
  5
9C
100
AcDbEntity
  8
0
  6
CONTINUOUS
 62
    7
370
   25
100
AcDbPolyline
 90
    2
 70
    0
 43
0
 10
115.13851405
 20
113.63963485
 10
115.13851405
 20
100.63963485
  0
SPLINE
  5
9D
100
AcDbEntity
  8
0
  6
CONTINUOUS
 62
    7
370
   25
100
AcDbSpline
210
0
220
0
230
0
 70
    8
 71
    3
 72
    8
 73
    4
 74
    0
 42
1e-007
 43
1e-007
 40
0
 40
0
 40
0
 40
0
 40
1
 40
1
 40
1
 40
1
 10
101.63851405
 20
114.13963485
 30
0
 10
101.3623716750846
 20
114.13963485
 30
0
 10
101.13851405
 20
113.9157772249154
 30
0
 10
101.13851405
 20
113.63963485
 30
0
  0
SPLINE
  5
9E
100
AcDbEntity
  8
0
  6
CONTINUOUS
 62
    7
370
   25
100
AcDbSpline
210
0
220
0
230
0
 70
    8
 71
    3
 72
    8
 73
    4
 74
    0
 42
1e-007
 43
1e-007
 40
0
 40
0
 40
0
 40
0
 40
1
 40
1
 40
1
 40
1
 10
115.13851405
 20
113.63963485
 30
0
 10
115.13851405
 20
113.9157772249154
 30
0
 10
114.9146564249154
 20
114.13963485
 30
0
 10
114.63851405
 20
114.13963485
 30
0
  0
SPLINE
  5
9F
100
AcDbEntity
  8
0
  6
CONTINUOUS
 62
    7
370
   25
100
AcDbSpline
210
0
220
0
230
0
 70
    8
 71
    3
 72
    8
 73
    4
 74
    0
 42
1e-007
 43
1e-007
 40
0
 40
0
 40
0
 40
0
 40
1
 40
1
 40
1
 40
1
 10
101.13851405
 20
100.63963485
 30
0
 10
101.13851405
 20
100.3634924750846
 30
0
 10
101.3623716750846
 20
100.13963485
 30
0
 10
101.63851405
 20
100.13963485
 30
0
  0
SPLINE
  5
A0
100
AcDbEntity
  8
0
  6
CONTINUOUS
 62
    7
370
   25
100
AcDbSpline
210
0
220
0
230
0
 70
    8
 71
    3
 72
    8
 73
    4
 74
    0
 42
1e-007
 43
1e-007
 40
0
 40
0
 40
0
 40
0
 40
1
 40
1
 40
1
 40
1
 10
114.63851405
 20
100.13963485
 30
0
 10
114.9146564249154
 20
100.13963485
 30
0
 10
115.13851405
 20
100.3634924750846
 30
0
 10
115.13851405
 20
100.63963485
 30
0
  0
LWPOLYLINE
  5
A1
100
AcDbEntity
  8
0
  6
CONTINUOUS
 62
    7
370
   25
100
AcDbPolyline
 90
    2
 70
    0
 43
0
 10
120.68851405
 20
114.13963485
 10
133.68851405
 20
114.13963485
  0
LWPOLYLINE
  5
A2
100
AcDbEntity
  8
0
  6
CONTINUOUS
 62
    7
370
   25
100
AcDbPolyline
 90
    2
 70
    0
 43
0
 10
120.68851405
 20
100.13963485
 10
133.68851405
 20
100.13963485
  0
LWPOLYLINE
  5
A3
100
AcDbEntity
  8
0
  6
CONTINUOUS
 62
    7
370
   25
100
AcDbPolyline
 90
    2
 70
    0
 43
0
 10
120.18851405
 20
113.63963485
 10
120.18851405
 20
100.63963485
  0
LWPOLYLINE
  5
A4
100
AcDbEntity
  8
0
  6
CONTINUOUS
 62
    7
370
   25
100
AcDbPolyline
 90
    2
 70
    0
 43
0
 10
134.18851405
 20
113.63963485
 10
134.18851405
 20
100.63963485
  0
SPLINE
  5
A5
100
AcDbEntity
  8
0
  6
CONTINUOUS
 62
    7
370
   25
100
AcDbSpline
210
0
220
0
230
0
 70
    8
 71
    3
 72
    8
 73
    4
 74
    0
 42
1e-007
 43
1e-007
 40
0
 40
0
 40
0
 40
0
 40
1
 40
1
 40
1
 40
1
 10
120.68851405
 20
114.13963485
 30
0
 10
120.4123716750846
 20
114.13963485
 30
0
 10
120.18851405
 20
113.9157772249154
 30
0
 10
120.18851405
 20
113.63963485
 30
0
  0
SPLINE
  5
A6
100
AcDbEntity
  8
0
  6
CONTINUOUS
 62
    7
370
   25
100
AcDbSpline
210
0
220
0
230
0
 70
    8
 71
    3
 72
    8
 73
    4
 74
    0
 42
1e-007
 43
1e-007
 40
0
 40
0
 40
0
 40
0
 40
1
 40
1
 40
1
 40
1
 10
134.18851405
 20
113.63963485
 30
0
 10
134.18851405
 20
113.9157772249154
 30
0
 10
133.9646564249154
 20
114.13963485
 30
0
 10
133.68851405
 20
114.13963485
 30
0
  0
SPLINE
  5
A7
100
AcDbEntity
  8
0
  6
CONTINUOUS
 62
    7
370
   25
100
AcDbSpline
210
0
220
0
230
0
 70
    8
 71
    3
 72
    8
 73
    4
 74
    0
 42
1e-007
 43
1e-007
 40
0
 40
0
 40
0
 40
0
 40
1
 40
1
 40
1
 40
1
 10
120.18851405
 20
100.63963485
 30
0
 10
120.18851405
 20
100.3634924750846
 30
0
 10
120.4123716750846
 20
100.13963485
 30
0
 10
120.68851405
 20
100.13963485
 30
0
  0
SPLINE
  5
A8
100
AcDbEntity
  8
0
  6
CONTINUOUS
 62
    7
370
   25
100
AcDbSpline
210
0
220
0
230
0
 70
    8
 71
    3
 72
    8
 73
    4
 74
    0
 42
1e-007
 43
1e-007
 40
0
 40
0
 40
0
 40
0
 40
1
 40
1
 40
1
 40
1
 10
133.68851405
 20
100.13963485
 30
0
 10
133.9646564249154
 20
100.13963485
 30
0
 10
134.18851405
 20
100.3634924750846
 30
0
 10
134.18851405
 20
100.63963485
 30
0
  0
LWPOLYLINE
  5
A9
100
AcDbEntity
  8
0
  6
CONTINUOUS
 62
    7
370
   25
100
AcDbPolyline
 90
    2
 70
    0
 43
0
 10
20.67601405
 20
109.37713485
 10
33.67601405000001
 20
109.37713485
  0
LWPOLYLINE
  5
AA
100
AcDbEntity
  8
0
  6
CONTINUOUS
 62
    7
370
   25
100
AcDbPolyline
 90
    2
 70
    0
 43
0
 10
20.67601405
 20
95.37713485
 10
33.67601405000001
 20
95.37713485
  0
LWPOLYLINE
  5
AB
100
AcDbEntity
  8
0
  6
CONTINUOUS
 62
    7
370
   25
100
AcDbPolyline
 90
    2
 70
    0
 43
0
 10
20.17601405000001
 20
108.87713485
 10
20.17601405000001
 20
95.87713485
  0
LWPOLYLINE
  5
AC
100
AcDbEntity
  8
0
  6
CONTINUOUS
 62
    7
370
   25
100
AcDbPolyline
 90
    2
 70
    0
 43
0
 10
34.17601405000001
 20
108.87713485
 10
34.17601405000001
 20
95.87713485
  0
SPLINE
  5
AD
100
AcDbEntity
  8
0
  6
CONTINUOUS
 62
    7
370
   25
100
AcDbSpline
210
0
220
0
230
0
 70
    8
 71
    3
 72
    8
 73
    4
 74
    0
 42
1e-007
 43
1e-007
 40
0
 40
0
 40
0
 40
0
 40
1
 40
1
 40
1
 40
1
 10
20.67601405
 20
109.37713485
 30
0
 10
20.39987167508461
 20
109.37713485
 30
0
 10
20.17601405000001
 20
109.1532772249154
 30
0
 10
20.17601405000001
 20
108.87713485
 30
0
  0
SPLINE
  5
AE
100
AcDbEntity
  8
0
  6
CONTINUOUS
 62
    7
370
   25
100
AcDbSpline
210
0
220
0
230
0
 70
    8
 71
    3
 72
    8
 73
    4
 74
    0
 42
1e-007
 43
1e-007
 40
0
 40
0
 40
0
 40
0
 40
1
 40
1
 40
1
 40
1
 10
34.17601405000001
 20
108.87713485
 30
0
 10
34.17601405000001
 20
109.1532772249154
 30
0
 10
33.9521564249154
 20
109.37713485
 30
0
 10
33.67601405000001
 20
109.37713485
 30
0
  0
SPLINE
  5
AF
100
AcDbEntity
  8
0
  6
CONTINUOUS
 62
    7
370
   25
100
AcDbSpline
210
0
220
0
230
0
 70
    8
 71
    3
 72
    8
 73
    4
 74
    0
 42
1e-007
 43
1e-007
 40
0
 40
0
 40
0
 40
0
 40
1
 40
1
 40
1
 40
1
 10
20.17601405000001
 20
95.87713485
 30
0
 10
20.17601405000001
 20
95.60099247508461
 30
0
 10
20.39987167508461
 20
95.37713485
 30
0
 10
20.67601405
 20
95.37713485
 30
0
  0
SPLINE
  5
B0
100
AcDbEntity
  8
0
  6
CONTINUOUS
 62
    7
370
   25
100
AcDbSpline
210
0
220
0
230
0
 70
    8
 71
    3
 72
    8
 73
    4
 74
    0
 42
1e-007
 43
1e-007
 40
0
 40
0
 40
0
 40
0
 40
1
 40
1
 40
1
 40
1
 10
33.67601405000001
 20
95.37713485
 30
0
 10
33.9521564249154
 20
95.37713485
 30
0
 10
34.17601405000001
 20
95.60099247508461
 30
0
 10
34.17601405000001
 20
95.87713485
 30
0
  0
LWPOLYLINE
  5
B1
100
AcDbEntity
  8
0
  6
CONTINUOUS
 62
    7
370
   25
100
AcDbPolyline
 90
    2
 70
    0
 43
0
 10
44.48851405
 20
109.37713485
 10
57.48851405
 20
109.37713485
  0
LWPOLYLINE
  5
B2
100
AcDbEntity
  8
0
  6
CONTINUOUS
 62
    7
370
   25
100
AcDbPolyline
 90
    2
 70
    0
 43
0
 10
44.48851405
 20
95.37713485
 10
57.48851405
 20
95.37713485
  0
LWPOLYLINE
  5
B3
100
AcDbEntity
  8
0
  6
CONTINUOUS
 62
    7
370
   25
100
AcDbPolyline
 90
    2
 70
    0
 43
0
 10
43.98851405
 20
108.87713485
 10
43.98851405
 20
95.87713485
  0
LWPOLYLINE
  5
B4
100
AcDbEntity
  8
0
  6
CONTINUOUS
 62
    7
370
   25
100
AcDbPolyline
 90
    2
 70
    0
 43
0
 10
57.98851405
 20
108.87713485
 10
57.98851405
 20
95.87713485
  0
SPLINE
  5
B5
100
AcDbEntity
  8
0
  6
CONTINUOUS
 62
    7
370
   25
100
AcDbSpline
210
0
220
0
230
0
 70
    8
 71
    3
 72
    8
 73
    4
 74
    0
 42
1e-007
 43
1e-007
 40
0
 40
0
 40
0
 40
0
 40
1
 40
1
 40
1
 40
1
 10
44.48851405
 20
109.37713485
 30
0
 10
44.21237167508461
 20
109.37713485
 30
0
 10
43.98851405
 20
109.1532772249154
 30
0
 10
43.98851405
 20
108.87713485
 30
0
  0
SPLINE
  5
B6
100
AcDbEntity
  8
0
  6
CONTINUOUS
 62
    7
370
   25
100
AcDbSpline
210
0
220
0
230
0
 70
    8
 71
    3
 72
    8
 73
    4
 74
    0
 42
1e-007
 43
1e-007
 40
0
 40
0
 40
0
 40
0
 40
1
 40
1
 40
1
 40
1
 10
57.98851405
 20
108.87713485
 30
0
 10
57.98851405
 20
109.1532772249154
 30
0
 10
57.7646564249154
 20
109.37713485
 30
0
 10
57.48851405
 20
109.37713485
 30
0
  0
SPLINE
  5
B7
100
AcDbEntity
  8
0
  6
CONTINUOUS
 62
    7
370
   25
100
AcDbSpline
210
0
220
0
230
0
 70
    8
 71
    3
 72
    8
 73
    4
 74
    0
 42
1e-007
 43
1e-007
 40
0
 40
0
 40
0
 40
0
 40
1
 40
1
 40
1
 40
1
 10
43.98851405
 20
95.87713485
 30
0
 10
43.98851405
 20
95.60099247508461
 30
0
 10
44.21237167508461
 20
95.37713485
 30
0
 10
44.48851405
 20
95.37713485
 30
0
  0
SPLINE
  5
B8
100
AcDbEntity
  8
0
  6
CONTINUOUS
 62
    7
370
   25
100
AcDbSpline
210
0
220
0
230
0
 70
    8
 71
    3
 72
    8
 73
    4
 74
    0
 42
1e-007
 43
1e-007
 40
0
 40
0
 40
0
 40
0
 40
1
 40
1
 40
1
 40
1
 10
57.48851405
 20
95.37713485
 30
0
 10
57.7646564249154
 20
95.37713485
 30
0
 10
57.98851405
 20
95.60099247508461
 30
0
 10
57.98851405
 20
95.87713485
 30
0
  0
LWPOLYLINE
  5
B9
100
AcDbEntity
  8
0
  6
CONTINUOUS
 62
    7
370
   25
100
AcDbPolyline
 90
    2
 70
    0
 43
0
 10
139.73851405
 20
109.37713485
 10
152.73851405
 20
109.37713485
  0
LWPOLYLINE
  5
BA
100
AcDbEntity
  8
0
  6
CONTINUOUS
 62
    7
370
   25
100
AcDbPolyline
 90
    2
 70
    0
 43
0
 10
139.73851405
 20
95.37713485
 10
152.73851405
 20
95.37713485
  0
LWPOLYLINE
  5
BB
100
AcDbEntity
  8
0
  6
CONTINUOUS
 62
    7
370
   25
100
AcDbPolyline
 90
    2
 70
    0
 43
0
 10
139.23851405
 20
108.87713485
 10
139.23851405
 20
95.87713485
  0
LWPOLYLINE
  5
BC
100
AcDbEntity
  8
0
  6
CONTINUOUS
 62
    7
370
   25
100
AcDbPolyline
 90
    2
 70
    0
 43
0
 10
153.23851405
 20
108.87713485
 10
153.23851405
 20
95.87713485
  0
SPLINE
  5
BD
100
AcDbEntity
  8
0
  6
CONTINUOUS
 62
    7
370
   25
100
AcDbSpline
210
0
220
0
230
0
 70
    8
 71
    3
 72
    8
 73
    4
 74
    0
 42
1e-007
 43
1e-007
 40
0
 40
0
 40
0
 40
0
 40
1
 40
1
 40
1
 40
1
 10
139.73851405
 20
109.37713485
 30
0
 10
139.4623716750846
 20
109.37713485
 30
0
 10
139.23851405
 20
109.1532772249154
 30
0
 10
139.23851405
 20
108.87713485
 30
0
  0
SPLINE
  5
BE
100
AcDbEntity
  8
0
  6
CONTINUOUS
 62
    7
370
   25
100
AcDbSpline
210
0
220
0
230
0
 70
    8
 71
    3
 72
    8
 73
    4
 74
    0
 42
1e-007
 43
1e-007
 40
0
 40
0
 40
0
 40
0
 40
1
 40
1
 40
1
 40
1
 10
153.23851405
 20
108.87713485
 30
0
 10
153.23851405
 20
109.1532772249154
 30
0
 10
153.0146564249154
 20
109.37713485
 30
0
 10
152.73851405
 20
109.37713485
 30
0
  0
SPLINE
  5
BF
100
AcDbEntity
  8
0
  6
CONTINUOUS
 62
    7
370
   25
100
AcDbSpline
210
0
220
0
230
0
 70
    8
 71
    3
 72
    8
 73
    4
 74
    0
 42
1e-007
 43
1e-007
 40
0
 40
0
 40
0
 40
0
 40
1
 40
1
 40
1
 40
1
 10
139.23851405
 20
95.87713485
 30
0
 10
139.23851405
 20
95.60099247508461
 30
0
 10
139.4623716750846
 20
95.37713485
 30
0
 10
139.73851405
 20
95.37713485
 30
0
  0
SPLINE
  5
C0
100
AcDbEntity
  8
0
  6
CONTINUOUS
 62
    7
370
   25
100
AcDbSpline
210
0
220
0
230
0
 70
    8
 71
    3
 72
    8
 73
    4
 74
    0
 42
1e-007
 43
1e-007
 40
0
 40
0
 40
0
 40
0
 40
1
 40
1
 40
1
 40
1
 10
152.73851405
 20
95.37713485
 30
0
 10
153.0146564249154
 20
95.37713485
 30
0
 10
153.23851405
 20
95.60099247508461
 30
0
 10
153.23851405
 20
95.87713485
 30
0
  0
LWPOLYLINE
  5
C1
100
AcDbEntity
  8
0
  6
CONTINUOUS
 62
    7
370
   25
100
AcDbPolyline
 90
    2
 70
    0
 43
0
 10
63.53851405000001
 20
99.85213485
 10
76.53851405
 20
99.85213485
  0
LWPOLYLINE
  5
C2
100
AcDbEntity
  8
0
  6
CONTINUOUS
 62
    7
370
   25
100
AcDbPolyline
 90
    2
 70
    0
 43
0
 10
63.53851405000001
 20
85.85213485
 10
76.53851405
 20
85.85213485
  0
LWPOLYLINE
  5
C3
100
AcDbEntity
  8
0
  6
CONTINUOUS
 62
    7
370
   25
100
AcDbPolyline
 90
    2
 70
    0
 43
0
 10
63.03851405000001
 20
99.35213485
 10
63.03851405000001
 20
86.35213485
  0
LWPOLYLINE
  5
C4
100
AcDbEntity
  8
0
  6
CONTINUOUS
 62
    7
370
   25
100
AcDbPolyline
 90
    2
 70
    0
 43
0
 10
77.03851405
 20
99.35213485
 10
77.03851405
 20
86.35213485
  0
SPLINE
  5
C5
100
AcDbEntity
  8
0
  6
CONTINUOUS
 62
    7
370
   25
100
AcDbSpline
210
0
220
0
230
0
 70
    8
 71
    3
 72
    8
 73
    4
 74
    0
 42
1e-007
 43
1e-007
 40
0
 40
0
 40
0
 40
0
 40
1
 40
1
 40
1
 40
1
 10
63.53851405000001
 20
99.85213485000001
 30
0
 10
63.26237167508461
 20
99.85213485000001
 30
0
 10
63.03851405000001
 20
99.62827722491541
 30
0
 10
63.03851405000001
 20
99.35213485
 30
0
  0
SPLINE
  5
C6
100
AcDbEntity
  8
0
  6
CONTINUOUS
 62
    7
370
   25
100
AcDbSpline
210
0
220
0
230
0
 70
    8
 71
    3
 72
    8
 73
    4
 74
    0
 42
1e-007
 43
1e-007
 40
0
 40
0
 40
0
 40
0
 40
1
 40
1
 40
1
 40
1
 10
77.03851405
 20
99.35213485
 30
0
 10
77.03851405
 20
99.62827722491541
 30
0
 10
76.8146564249154
 20
99.85213485000001
 30
0
 10
76.53851405
 20
99.85213485000001
 30
0
  0
SPLINE
  5
C7
100
AcDbEntity
  8
0
  6
CONTINUOUS
 62
    7
370
   25
100
AcDbSpline
210
0
220
0
230
0
 70
    8
 71
    3
 72
    8
 73
    4
 74
    0
 42
1e-007
 43
1e-007
 40
0
 40
0
 40
0
 40
0
 40
1
 40
1
 40
1
 40
1
 10
63.03851405000001
 20
86.35213485
 30
0
 10
63.03851405000001
 20
86.0759924750846
 30
0
 10
63.26237167508461
 20
85.85213485
 30
0
 10
63.53851405000001
 20
85.85213485
 30
0
  0
SPLINE
  5
C8
100
AcDbEntity
  8
0
  6
CONTINUOUS
 62
    7
370
   25
100
AcDbSpline
210
0
220
0
230
0
 70
    8
 71
    3
 72
    8
 73
    4
 74
    0
 42
1e-007
 43
1e-007
 40
0
 40
0
 40
0
 40
0
 40
1
 40
1
 40
1
 40
1
 10
76.53851405
 20
85.85213485
 30
0
 10
76.8146564249154
 20
85.85213485
 30
0
 10
77.03851405
 20
86.0759924750846
 30
0
 10
77.03851405
 20
86.35213485
 30
0
  0
LWPOLYLINE
  5
C9
100
AcDbEntity
  8
0
  6
CONTINUOUS
 62
    7
370
   25
100
AcDbPolyline
 90
    2
 70
    0
 43
0
 10
82.58851405000001
 20
99.85213485
 10
95.58851405000001
 20
99.85213485
  0
LWPOLYLINE
  5
CA
100
AcDbEntity
  8
0
  6
CONTINUOUS
 62
    7
370
   25
100
AcDbPolyline
 90
    2
 70
    0
 43
0
 10
82.58851405000001
 20
85.85213485
 10
95.58851405000001
 20
85.85213485
  0
LWPOLYLINE
  5
CB
100
AcDbEntity
  8
0
  6
CONTINUOUS
 62
    7
370
   25
100
AcDbPolyline
 90
    2
 70
    0
 43
0
 10
82.08851405000001
 20
99.35213485
 10
82.08851405000001
 20
86.35213485
  0
LWPOLYLINE
  5
CC
100
AcDbEntity
  8
0
  6
CONTINUOUS
 62
    7
370
   25
100
AcDbPolyline
 90
    2
 70
    0
 43
0
 10
96.08851405000001
 20
99.35213485
 10
96.08851405000001
 20
86.35213485
  0
SPLINE
  5
CD
100
AcDbEntity
  8
0
  6
CONTINUOUS
 62
    7
370
   25
100
AcDbSpline
210
0
220
0
230
0
 70
    8
 71
    3
 72
    8
 73
    4
 74
    0
 42
1e-007
 43
1e-007
 40
0
 40
0
 40
0
 40
0
 40
1
 40
1
 40
1
 40
1
 10
82.58851405000001
 20
99.85213485000001
 30
0
 10
82.31237167508461
 20
99.85213485000001
 30
0
 10
82.08851405000001
 20
99.62827722491541
 30
0
 10
82.08851405000001
 20
99.35213485
 30
0
  0
SPLINE
  5
CE
100
AcDbEntity
  8
0
  6
CONTINUOUS
 62
    7
370
   25
100
AcDbSpline
210
0
220
0
230
0
 70
    8
 71
    3
 72
    8
 73
    4
 74
    0
 42
1e-007
 43
1e-007
 40
0
 40
0
 40
0
 40
0
 40
1
 40
1
 40
1
 40
1
 10
96.08851405000001
 20
99.35213485
 30
0
 10
96.08851405000001
 20
99.62827722491541
 30
0
 10
95.8646564249154
 20
99.85213485000001
 30
0
 10
95.58851405000001
 20
99.85213485000001
 30
0
  0
SPLINE
  5
CF
100
AcDbEntity
  8
0
  6
CONTINUOUS
 62
    7
370
   25
100
AcDbSpline
210
0
220
0
230
0
 70
    8
 71
    3
 72
    8
 73
    4
 74
    0
 42
1e-007
 43
1e-007
 40
0
 40
0
 40
0
 40
0
 40
1
 40
1
 40
1
 40
1
 10
82.08851405000001
 20
86.35213485
 30
0
 10
82.08851405000001
 20
86.0759924750846
 30
0
 10
82.31237167508461
 20
85.85213485
 30
0
 10
82.58851405000001
 20
85.85213485
 30
0
  0
SPLINE
  5
D0
100
AcDbEntity
  8
0
  6
CONTINUOUS
 62
    7
370
   25
100
AcDbSpline
210
0
220
0
230
0
 70
    8
 71
    3
 72
    8
 73
    4
 74
    0
 42
1e-007
 43
1e-007
 40
0
 40
0
 40
0
 40
0
 40
1
 40
1
 40
1
 40
1
 10
95.58851405000001
 20
85.85213485
 30
0
 10
95.8646564249154
 20
85.85213485
 30
0
 10
96.08851405000001
 20
86.0759924750846
 30
0
 10
96.08851405000001
 20
86.35213485
 30
0
  0
LWPOLYLINE
  5
D1
100
AcDbEntity
  8
0
  6
CONTINUOUS
 62
    7
370
   25
100
AcDbPolyline
 90
    2
 70
    0
 43
0
 10
101.63851405
 20
95.08963485000001
 10
114.63851405
 20
95.08963485000001
  0
LWPOLYLINE
  5
D2
100
AcDbEntity
  8
0
  6
CONTINUOUS
 62
    7
370
   25
100
AcDbPolyline
 90
    2
 70
    0
 43
0
 10
101.63851405
 20
81.08963485000001
 10
114.63851405
 20
81.08963485000001
  0
LWPOLYLINE
  5
D3
100
AcDbEntity
  8
0
  6
CONTINUOUS
 62
    7
370
   25
100
AcDbPolyline
 90
    2
 70
    0
 43
0
 10
101.13851405
 20
94.58963485
 10
101.13851405
 20
81.58963485000001
  0
LWPOLYLINE
  5
D4
100
AcDbEntity
  8
0
  6
CONTINUOUS
 62
    7
370
   25
100
AcDbPolyline
 90
    2
 70
    0
 43
0
 10
115.13851405
 20
94.58963485
 10
115.13851405
 20
81.58963485000001
  0
SPLINE
  5
D5
100
AcDbEntity
  8
0
  6
CONTINUOUS
 62
    7
370
   25
100
AcDbSpline
210
0
220
0
230
0
 70
    8
 71
    3
 72
    8
 73
    4
 74
    0
 42
1e-007
 43
1e-007
 40
0
 40
0
 40
0
 40
0
 40
1
 40
1
 40
1
 40
1
 10
101.63851405
 20
95.08963485000001
 30
0
 10
101.3623716750846
 20
95.08963485000001
 30
0
 10
101.13851405
 20
94.8657772249154
 30
0
 10
101.13851405
 20
94.58963485
 30
0
  0
SPLINE
  5
D6
100
AcDbEntity
  8
0
  6
CONTINUOUS
 62
    7
370
   25
100
AcDbSpline
210
0
220
0
230
0
 70
    8
 71
    3
 72
    8
 73
    4
 74
    0
 42
1e-007
 43
1e-007
 40
0
 40
0
 40
0
 40
0
 40
1
 40
1
 40
1
 40
1
 10
115.13851405
 20
94.58963485
 30
0
 10
115.13851405
 20
94.8657772249154
 30
0
 10
114.9146564249154
 20
95.08963485000001
 30
0
 10
114.63851405
 20
95.08963485000001
 30
0
  0
SPLINE
  5
D7
100
AcDbEntity
  8
0
  6
CONTINUOUS
 62
    7
370
   25
100
AcDbSpline
210
0
220
0
230
0
 70
    8
 71
    3
 72
    8
 73
    4
 74
    0
 42
1e-007
 43
1e-007
 40
0
 40
0
 40
0
 40
0
 40
1
 40
1
 40
1
 40
1
 10
101.13851405
 20
81.58963485000001
 30
0
 10
101.13851405
 20
81.31349247508462
 30
0
 10
101.3623716750846
 20
81.08963485000001
 30
0
 10
101.63851405
 20
81.08963485000001
 30
0
  0
SPLINE
  5
D8
100
AcDbEntity
  8
0
  6
CONTINUOUS
 62
    7
370
   25
100
AcDbSpline
210
0
220
0
230
0
 70
    8
 71
    3
 72
    8
 73
    4
 74
    0
 42
1e-007
 43
1e-007
 40
0
 40
0
 40
0
 40
0
 40
1
 40
1
 40
1
 40
1
 10
114.63851405
 20
81.08963485000001
 30
0
 10
114.9146564249154
 20
81.08963485000001
 30
0
 10
115.13851405
 20
81.31349247508462
 30
0
 10
115.13851405
 20
81.58963485000001
 30
0
  0
LWPOLYLINE
  5
D9
100
AcDbEntity
  8
0
  6
CONTINUOUS
 62
    7
370
   25
100
AcDbPolyline
 90
    2
 70
    0
 43
0
 10
120.68851405
 20
95.08963485000001
 10
133.68851405
 20
95.08963485000001
  0
LWPOLYLINE
  5
DA
100
AcDbEntity
  8
0
  6
CONTINUOUS
 62
    7
370
   25
100
AcDbPolyline
 90
    2
 70
    0
 43
0
 10
120.68851405
 20
81.08963485000001
 10
133.68851405
 20
81.08963485000001
  0
LWPOLYLINE
  5
DB
100
AcDbEntity
  8
0
  6
CONTINUOUS
 62
    7
370
   25
100
AcDbPolyline
 90
    2
 70
    0
 43
0
 10
120.18851405
 20
94.58963485
 10
120.18851405
 20
81.58963485000001
  0
LWPOLYLINE
  5
DC
100
AcDbEntity
  8
0
  6
CONTINUOUS
 62
    7
370
   25
100
AcDbPolyline
 90
    2
 70
    0
 43
0
 10
134.18851405
 20
94.58963485
 10
134.18851405
 20
81.58963485000001
  0
SPLINE
  5
DD
100
AcDbEntity
  8
0
  6
CONTINUOUS
 62
    7
370
   25
100
AcDbSpline
210
0
220
0
230
0
 70
    8
 71
    3
 72
    8
 73
    4
 74
    0
 42
1e-007
 43
1e-007
 40
0
 40
0
 40
0
 40
0
 40
1
 40
1
 40
1
 40
1
 10
120.68851405
 20
95.08963485000001
 30
0
 10
120.4123716750846
 20
95.08963485000001
 30
0
 10
120.18851405
 20
94.8657772249154
 30
0
 10
120.18851405
 20
94.58963485
 30
0
  0
SPLINE
  5
DE
100
AcDbEntity
  8
0
  6
CONTINUOUS
 62
    7
370
   25
100
AcDbSpline
210
0
220
0
230
0
 70
    8
 71
    3
 72
    8
 73
    4
 74
    0
 42
1e-007
 43
1e-007
 40
0
 40
0
 40
0
 40
0
 40
1
 40
1
 40
1
 40
1
 10
134.18851405
 20
94.58963485
 30
0
 10
134.18851405
 20
94.8657772249154
 30
0
 10
133.9646564249154
 20
95.08963485000001
 30
0
 10
133.68851405
 20
95.08963485000001
 30
0
  0
SPLINE
  5
DF
100
AcDbEntity
  8
0
  6
CONTINUOUS
 62
    7
370
   25
100
AcDbSpline
210
0
220
0
230
0
 70
    8
 71
    3
 72
    8
 73
    4
 74
    0
 42
1e-007
 43
1e-007
 40
0
 40
0
 40
0
 40
0
 40
1
 40
1
 40
1
 40
1
 10
120.18851405
 20
81.58963485000001
 30
0
 10
120.18851405
 20
81.31349247508462
 30
0
 10
120.4123716750846
 20
81.08963485000001
 30
0
 10
120.68851405
 20
81.08963485000001
 30
0
  0
SPLINE
  5
E0
100
AcDbEntity
  8
0
  6
CONTINUOUS
 62
    7
370
   25
100
AcDbSpline
210
0
220
0
230
0
 70
    8
 71
    3
 72
    8
 73
    4
 74
    0
 42
1e-007
 43
1e-007
 40
0
 40
0
 40
0
 40
0
 40
1
 40
1
 40
1
 40
1
 10
133.68851405
 20
81.08963485000001
 30
0
 10
133.9646564249154
 20
81.08963485000001
 30
0
 10
134.18851405
 20
81.31349247508462
 30
0
 10
134.18851405
 20
81.58963485000001
 30
0
  0
LWPOLYLINE
  5
E1
100
AcDbEntity
  8
0
  6
CONTINUOUS
 62
    7
370
   25
100
AcDbPolyline
 90
    2
 70
    0
 43
0
 10
18.29476405
 20
90.32713484999999
 10
31.29476405
 20
90.32713484999999
  0
LWPOLYLINE
  5
E2
100
AcDbEntity
  8
0
  6
CONTINUOUS
 62
    7
370
   25
100
AcDbPolyline
 90
    2
 70
    0
 43
0
 10
18.29476405
 20
76.32713485000001
 10
31.29476405
 20
76.32713485000001
  0
LWPOLYLINE
  5
E3
100
AcDbEntity
  8
0
  6
CONTINUOUS
 62
    7
370
   25
100
AcDbPolyline
 90
    2
 70
    0
 43
0
 10
17.79476405
 20
89.82713485000001
 10
17.79476405
 20
76.82713485000001
  0
LWPOLYLINE
  5
E4
100
AcDbEntity
  8
0
  6
CONTINUOUS
 62
    7
370
   25
100
AcDbPolyline
 90
    2
 70
    0
 43
0
 10
31.79476405
 20
89.82713485000001
 10
31.79476405
 20
76.82713485000001
  0
SPLINE
  5
E5
100
AcDbEntity
  8
0
  6
CONTINUOUS
 62
    7
370
   25
100
AcDbSpline
210
0
220
0
230
0
 70
    8
 71
    3
 72
    8
 73
    4
 74
    0
 42
1e-007
 43
1e-007
 40
0
 40
0
 40
0
 40
0
 40
1
 40
1
 40
1
 40
1
 10
18.29476405
 20
90.32713485000001
 30
0
 10
18.01862167508461
 20
90.32713485000001
 30
0
 10
17.79476405
 20
90.10327722491542
 30
0
 10
17.79476405
 20
89.82713485000001
 30
0
  0
SPLINE
  5
E6
100
AcDbEntity
  8
0
  6
CONTINUOUS
 62
    7
370
   25
100
AcDbSpline
210
0
220
0
230
0
 70
    8
 71
    3
 72
    8
 73
    4
 74
    0
 42
1e-007
 43
1e-007
 40
0
 40
0
 40
0
 40
0
 40
1
 40
1
 40
1
 40
1
 10
31.79476405
 20
89.82713485000001
 30
0
 10
31.79476405
 20
90.10327722491542
 30
0
 10
31.5709064249154
 20
90.32713485000001
 30
0
 10
31.29476405
 20
90.32713485000001
 30
0
  0
SPLINE
  5
E7
100
AcDbEntity
  8
0
  6
CONTINUOUS
 62
    7
370
   25
100
AcDbSpline
210
0
220
0
230
0
 70
    8
 71
    3
 72
    8
 73
    4
 74
    0
 42
1e-007
 43
1e-007
 40
0
 40
0
 40
0
 40
0
 40
1
 40
1
 40
1
 40
1
 10
17.79476405
 20
76.82713485000001
 30
0
 10
17.79476405
 20
76.55099247508461
 30
0
 10
18.01862167508461
 20
76.32713485000001
 30
0
 10
18.29476405
 20
76.32713485000001
 30
0
  0
SPLINE
  5
E8
100
AcDbEntity
  8
0
  6
CONTINUOUS
 62
    7
370
   25
100
AcDbSpline
210
0
220
0
230
0
 70
    8
 71
    3
 72
    8
 73
    4
 74
    0
 42
1e-007
 43
1e-007
 40
0
 40
0
 40
0
 40
0
 40
1
 40
1
 40
1
 40
1
 10
31.29476405
 20
76.32713485000001
 30
0
 10
31.5709064249154
 20
76.32713485000001
 30
0
 10
31.79476405
 20
76.55099247508461
 30
0
 10
31.79476405
 20
76.82713485000001
 30
0
  0
LWPOLYLINE
  5
E9
100
AcDbEntity
  8
0
  6
CONTINUOUS
 62
    7
370
   25
100
AcDbPolyline
 90
    2
 70
    0
 43
0
 10
44.48851405
 20
90.32713484999999
 10
57.48851405
 20
90.32713484999999
  0
LWPOLYLINE
  5
EA
100
AcDbEntity
  8
0
  6
CONTINUOUS
 62
    7
370
   25
100
AcDbPolyline
 90
    2
 70
    0
 43
0
 10
44.48851405
 20
76.32713485000001
 10
57.48851405
 20
76.32713485000001
  0
LWPOLYLINE
  5
EB
100
AcDbEntity
  8
0
  6
CONTINUOUS
 62
    7
370
   25
100
AcDbPolyline
 90
    2
 70
    0
 43
0
 10
43.98851405
 20
89.82713485000001
 10
43.98851405
 20
76.82713485000001
  0
LWPOLYLINE
  5
EC
100
AcDbEntity
  8
0
  6
CONTINUOUS
 62
    7
370
   25
100
AcDbPolyline
 90
    2
 70
    0
 43
0
 10
57.98851405
 20
89.82713485000001
 10
57.98851405
 20
76.82713485000001
  0
SPLINE
  5
ED
100
AcDbEntity
  8
0
  6
CONTINUOUS
 62
    7
370
   25
100
AcDbSpline
210
0
220
0
230
0
 70
    8
 71
    3
 72
    8
 73
    4
 74
    0
 42
1e-007
 43
1e-007
 40
0
 40
0
 40
0
 40
0
 40
1
 40
1
 40
1
 40
1
 10
44.48851405
 20
90.32713485000001
 30
0
 10
44.21237167508461
 20
90.32713485000001
 30
0
 10
43.98851405
 20
90.10327722491542
 30
0
 10
43.98851405
 20
89.82713485000001
 30
0
  0
SPLINE
  5
EE
100
AcDbEntity
  8
0
  6
CONTINUOUS
 62
    7
370
   25
100
AcDbSpline
210
0
220
0
230
0
 70
    8
 71
    3
 72
    8
 73
    4
 74
    0
 42
1e-007
 43
1e-007
 40
0
 40
0
 40
0
 40
0
 40
1
 40
1
 40
1
 40
1
 10
57.98851405
 20
89.82713485000001
 30
0
 10
57.98851405
 20
90.10327722491542
 30
0
 10
57.7646564249154
 20
90.32713485000001
 30
0
 10
57.48851405
 20
90.32713485000001
 30
0
  0
SPLINE
  5
EF
100
AcDbEntity
  8
0
  6
CONTINUOUS
 62
    7
370
   25
100
AcDbSpline
210
0
220
0
230
0
 70
    8
 71
    3
 72
    8
 73
    4
 74
    0
 42
1e-007
 43
1e-007
 40
0
 40
0
 40
0
 40
0
 40
1
 40
1
 40
1
 40
1
 10
43.98851405
 20
76.82713485000001
 30
0
 10
43.98851405
 20
76.55099247508461
 30
0
 10
44.21237167508461
 20
76.32713485000001
 30
0
 10
44.48851405
 20
76.32713485000001
 30
0
  0
SPLINE
  5
F0
100
AcDbEntity
  8
0
  6
CONTINUOUS
 62
    7
370
   25
100
AcDbSpline
210
0
220
0
230
0
 70
    8
 71
    3
 72
    8
 73
    4
 74
    0
 42
1e-007
 43
1e-007
 40
0
 40
0
 40
0
 40
0
 40
1
 40
1
 40
1
 40
1
 10
57.48851405
 20
76.32713485000001
 30
0
 10
57.7646564249154
 20
76.32713485000001
 30
0
 10
57.98851405
 20
76.55099247508461
 30
0
 10
57.98851405
 20
76.82713485000001
 30
0
  0
LWPOLYLINE
  5
F1
100
AcDbEntity
  8
0
  6
CONTINUOUS
 62
    7
370
   25
100
AcDbPolyline
 90
    2
 70
    0
 43
0
 10
139.73851405
 20
90.32713484999999
 10
152.73851405
 20
90.32713484999999
  0
LWPOLYLINE
  5
F2
100
AcDbEntity
  8
0
  6
CONTINUOUS
 62
    7
370
   25
100
AcDbPolyline
 90
    2
 70
    0
 43
0
 10
139.73851405
 20
76.32713485000001
 10
152.73851405
 20
76.32713485000001
  0
LWPOLYLINE
  5
F3
100
AcDbEntity
  8
0
  6
CONTINUOUS
 62
    7
370
   25
100
AcDbPolyline
 90
    2
 70
    0
 43
0
 10
139.23851405
 20
89.82713485000001
 10
139.23851405
 20
76.82713485000001
  0
LWPOLYLINE
  5
F4
100
AcDbEntity
  8
0
  6
CONTINUOUS
 62
    7
370
   25
100
AcDbPolyline
 90
    2
 70
    0
 43
0
 10
153.23851405
 20
89.82713485000001
 10
153.23851405
 20
76.82713485000001
  0
SPLINE
  5
F5
100
AcDbEntity
  8
0
  6
CONTINUOUS
 62
    7
370
   25
100
AcDbSpline
210
0
220
0
230
0
 70
    8
 71
    3
 72
    8
 73
    4
 74
    0
 42
1e-007
 43
1e-007
 40
0
 40
0
 40
0
 40
0
 40
1
 40
1
 40
1
 40
1
 10
139.73851405
 20
90.32713485000001
 30
0
 10
139.4623716750846
 20
90.32713485000001
 30
0
 10
139.23851405
 20
90.10327722491542
 30
0
 10
139.23851405
 20
89.82713485000001
 30
0
  0
SPLINE
  5
F6
100
AcDbEntity
  8
0
  6
CONTINUOUS
 62
    7
370
   25
100
AcDbSpline
210
0
220
0
230
0
 70
    8
 71
    3
 72
    8
 73
    4
 74
    0
 42
1e-007
 43
1e-007
 40
0
 40
0
 40
0
 40
0
 40
1
 40
1
 40
1
 40
1
 10
153.23851405
 20
89.82713485000001
 30
0
 10
153.23851405
 20
90.10327722491542
 30
0
 10
153.0146564249154
 20
90.32713485000001
 30
0
 10
152.73851405
 20
90.32713485000001
 30
0
  0
SPLINE
  5
F7
100
AcDbEntity
  8
0
  6
CONTINUOUS
 62
    7
370
   25
100
AcDbSpline
210
0
220
0
230
0
 70
    8
 71
    3
 72
    8
 73
    4
 74
    0
 42
1e-007
 43
1e-007
 40
0
 40
0
 40
0
 40
0
 40
1
 40
1
 40
1
 40
1
 10
139.23851405
 20
76.82713485000001
 30
0
 10
139.23851405
 20
76.55099247508461
 30
0
 10
139.4623716750846
 20
76.32713485000001
 30
0
 10
139.73851405
 20
76.32713485000001
 30
0
  0
SPLINE
  5
F8
100
AcDbEntity
  8
0
  6
CONTINUOUS
 62
    7
370
   25
100
AcDbSpline
210
0
220
0
230
0
 70
    8
 71
    3
 72
    8
 73
    4
 74
    0
 42
1e-007
 43
1e-007
 40
0
 40
0
 40
0
 40
0
 40
1
 40
1
 40
1
 40
1
 10
152.73851405
 20
76.32713485000001
 30
0
 10
153.0146564249154
 20
76.32713485000001
 30
0
 10
153.23851405
 20
76.55099247508461
 30
0
 10
153.23851405
 20
76.82713485000001
 30
0
  0
LWPOLYLINE
  5
F9
100
AcDbEntity
  8
0
  6
CONTINUOUS
 62
    7
370
   25
100
AcDbPolyline
 90
    2
 70
    0
 43
0
 10
63.53851405000001
 20
80.80213485
 10
76.53851405
 20
80.80213485
  0
LWPOLYLINE
  5
FA
100
AcDbEntity
  8
0
  6
CONTINUOUS
 62
    7
370
   25
100
AcDbPolyline
 90
    2
 70
    0
 43
0
 10
63.53851405000001
 20
66.80213485
 10
76.53851405
 20
66.80213485
  0
LWPOLYLINE
  5
FB
100
AcDbEntity
  8
0
  6
CONTINUOUS
 62
    7
370
   25
100
AcDbPolyline
 90
    2
 70
    0
 43
0
 10
63.03851405000001
 20
80.30213485
 10
63.03851405000001
 20
67.30213485
  0
LWPOLYLINE
  5
FC
100
AcDbEntity
  8
0
  6
CONTINUOUS
 62
    7
370
   25
100
AcDbPolyline
 90
    2
 70
    0
 43
0
 10
77.03851405
 20
80.30213485
 10
77.03851405
 20
67.30213485
  0
SPLINE
  5
FD
100
AcDbEntity
  8
0
  6
CONTINUOUS
 62
    7
370
   25
100
AcDbSpline
210
0
220
0
230
0
 70
    8
 71
    3
 72
    8
 73
    4
 74
    0
 42
1e-007
 43
1e-007
 40
0
 40
0
 40
0
 40
0
 40
1
 40
1
 40
1
 40
1
 10
63.53851405000001
 20
80.80213485
 30
0
 10
63.26237167508461
 20
80.80213485
 30
0
 10
63.03851405000001
 20
80.5782772249154
 30
0
 10
63.03851405000001
 20
80.30213485
 30
0
  0
SPLINE
  5
FE
100
AcDbEntity
  8
0
  6
CONTINUOUS
 62
    7
370
   25
100
AcDbSpline
210
0
220
0
230
0
 70
    8
 71
    3
 72
    8
 73
    4
 74
    0
 42
1e-007
 43
1e-007
 40
0
 40
0
 40
0
 40
0
 40
1
 40
1
 40
1
 40
1
 10
77.03851405
 20
80.30213485
 30
0
 10
77.03851405
 20
80.5782772249154
 30
0
 10
76.8146564249154
 20
80.80213485
 30
0
 10
76.53851405
 20
80.80213485
 30
0
  0
SPLINE
  5
FF
100
AcDbEntity
  8
0
  6
CONTINUOUS
 62
    7
370
   25
100
AcDbSpline
210
0
220
0
230
0
 70
    8
 71
    3
 72
    8
 73
    4
 74
    0
 42
1e-007
 43
1e-007
 40
0
 40
0
 40
0
 40
0
 40
1
 40
1
 40
1
 40
1
 10
63.03851405000001
 20
67.30213485
 30
0
 10
63.03851405000001
 20
67.02599247508459
 30
0
 10
63.26237167508461
 20
66.80213485
 30
0
 10
63.53851405000001
 20
66.80213485
 30
0
  0
SPLINE
  5
100
100
AcDbEntity
  8
0
  6
CONTINUOUS
 62
    7
370
   25
100
AcDbSpline
210
0
220
0
230
0
 70
    8
 71
    3
 72
    8
 73
    4
 74
    0
 42
1e-007
 43
1e-007
 40
0
 40
0
 40
0
 40
0
 40
1
 40
1
 40
1
 40
1
 10
76.53851405
 20
66.80213485
 30
0
 10
76.8146564249154
 20
66.80213485
 30
0
 10
77.03851405
 20
67.02599247508459
 30
0
 10
77.03851405
 20
67.30213485
 30
0
  0
LWPOLYLINE
  5
101
100
AcDbEntity
  8
0
  6
CONTINUOUS
 62
    7
370
   25
100
AcDbPolyline
 90
    2
 70
    0
 43
0
 10
82.58851405000001
 20
80.80213485
 10
95.58851405000001
 20
80.80213485
  0
LWPOLYLINE
  5
102
100
AcDbEntity
  8
0
  6
CONTINUOUS
 62
    7
370
   25
100
AcDbPolyline
 90
    2
 70
    0
 43
0
 10
82.58851405000001
 20
66.80213485
 10
95.58851405000001
 20
66.80213485
  0
LWPOLYLINE
  5
103
100
AcDbEntity
  8
0
  6
CONTINUOUS
 62
    7
370
   25
100
AcDbPolyline
 90
    2
 70
    0
 43
0
 10
82.08851405000001
 20
80.30213485
 10
82.08851405000001
 20
67.30213485
  0
LWPOLYLINE
  5
104
100
AcDbEntity
  8
0
  6
CONTINUOUS
 62
    7
370
   25
100
AcDbPolyline
 90
    2
 70
    0
 43
0
 10
96.08851405000001
 20
80.30213485
 10
96.08851405000001
 20
67.30213485
  0
SPLINE
  5
105
100
AcDbEntity
  8
0
  6
CONTINUOUS
 62
    7
370
   25
100
AcDbSpline
210
0
220
0
230
0
 70
    8
 71
    3
 72
    8
 73
    4
 74
    0
 42
1e-007
 43
1e-007
 40
0
 40
0
 40
0
 40
0
 40
1
 40
1
 40
1
 40
1
 10
82.58851405000001
 20
80.80213485
 30
0
 10
82.31237167508461
 20
80.80213485
 30
0
 10
82.08851405000001
 20
80.5782772249154
 30
0
 10
82.08851405000001
 20
80.30213485
 30
0
  0
SPLINE
  5
106
100
AcDbEntity
  8
0
  6
CONTINUOUS
 62
    7
370
   25
100
AcDbSpline
210
0
220
0
230
0
 70
    8
 71
    3
 72
    8
 73
    4
 74
    0
 42
1e-007
 43
1e-007
 40
0
 40
0
 40
0
 40
0
 40
1
 40
1
 40
1
 40
1
 10
96.08851405000001
 20
80.30213485
 30
0
 10
96.08851405000001
 20
80.5782772249154
 30
0
 10
95.8646564249154
 20
80.80213485
 30
0
 10
95.58851405000001
 20
80.80213485
 30
0
  0
SPLINE
  5
107
100
AcDbEntity
  8
0
  6
CONTINUOUS
 62
    7
370
   25
100
AcDbSpline
210
0
220
0
230
0
 70
    8
 71
    3
 72
    8
 73
    4
 74
    0
 42
1e-007
 43
1e-007
 40
0
 40
0
 40
0
 40
0
 40
1
 40
1
 40
1
 40
1
 10
82.08851405000001
 20
67.30213485
 30
0
 10
82.08851405000001
 20
67.02599247508459
 30
0
 10
82.31237167508461
 20
66.80213485
 30
0
 10
82.58851405000001
 20
66.80213485
 30
0
  0
SPLINE
  5
108
100
AcDbEntity
  8
0
  6
CONTINUOUS
 62
    7
370
   25
100
AcDbSpline
210
0
220
0
230
0
 70
    8
 71
    3
 72
    8
 73
    4
 74
    0
 42
1e-007
 43
1e-007
 40
0
 40
0
 40
0
 40
0
 40
1
 40
1
 40
1
 40
1
 10
95.58851405000001
 20
66.80213485
 30
0
 10
95.8646564249154
 20
66.80213485
 30
0
 10
96.08851405000001
 20
67.02599247508459
 30
0
 10
96.08851405000001
 20
67.30213485
 30
0
  0
LWPOLYLINE
  5
109
100
AcDbEntity
  8
0
  6
CONTINUOUS
 62
    7
370
   25
100
AcDbPolyline
 90
    2
 70
    0
 43
0
 10
101.63851405
 20
76.03963485
 10
114.63851405
 20
76.03963485
  0
LWPOLYLINE
  5
10A
100
AcDbEntity
  8
0
  6
CONTINUOUS
 62
    7
370
   25
100
AcDbPolyline
 90
    2
 70
    0
 43
0
 10
101.63851405
 20
62.03963485
 10
114.63851405
 20
62.03963485
  0
LWPOLYLINE
  5
10B
100
AcDbEntity
  8
0
  6
CONTINUOUS
 62
    7
370
   25
100
AcDbPolyline
 90
    2
 70
    0
 43
0
 10
101.13851405
 20
75.53963485
 10
101.13851405
 20
62.53963485
  0
LWPOLYLINE
  5
10C
100
AcDbEntity
  8
0
  6
CONTINUOUS
 62
    7
370
   25
100
AcDbPolyline
 90
    2
 70
    0
 43
0
 10
115.13851405
 20
75.53963485
 10
115.13851405
 20
62.53963485
  0
SPLINE
  5
10D
100
AcDbEntity
  8
0
  6
CONTINUOUS
 62
    7
370
   25
100
AcDbSpline
210
0
220
0
230
0
 70
    8
 71
    3
 72
    8
 73
    4
 74
    0
 42
1e-007
 43
1e-007
 40
0
 40
0
 40
0
 40
0
 40
1
 40
1
 40
1
 40
1
 10
101.63851405
 20
76.03963485
 30
0
 10
101.3623716750846
 20
76.03963485
 30
0
 10
101.13851405
 20
75.81577722491539
 30
0
 10
101.13851405
 20
75.53963485
 30
0
  0
SPLINE
  5
10E
100
AcDbEntity
  8
0
  6
CONTINUOUS
 62
    7
370
   25
100
AcDbSpline
210
0
220
0
230
0
 70
    8
 71
    3
 72
    8
 73
    4
 74
    0
 42
1e-007
 43
1e-007
 40
0
 40
0
 40
0
 40
0
 40
1
 40
1
 40
1
 40
1
 10
115.13851405
 20
75.53963485
 30
0
 10
115.13851405
 20
75.81577722491539
 30
0
 10
114.9146564249154
 20
76.03963485
 30
0
 10
114.63851405
 20
76.03963485
 30
0
  0
SPLINE
  5
10F
100
AcDbEntity
  8
0
  6
CONTINUOUS
 62
    7
370
   25
100
AcDbSpline
210
0
220
0
230
0
 70
    8
 71
    3
 72
    8
 73
    4
 74
    0
 42
1e-007
 43
1e-007
 40
0
 40
0
 40
0
 40
0
 40
1
 40
1
 40
1
 40
1
 10
101.13851405
 20
62.53963485
 30
0
 10
101.13851405
 20
62.2634924750846
 30
0
 10
101.3623716750846
 20
62.03963485
 30
0
 10
101.63851405
 20
62.03963485
 30
0
  0
SPLINE
  5
110
100
AcDbEntity
  8
0
  6
CONTINUOUS
 62
    7
370
   25
100
AcDbSpline
210
0
220
0
230
0
 70
    8
 71
    3
 72
    8
 73
    4
 74
    0
 42
1e-007
 43
1e-007
 40
0
 40
0
 40
0
 40
0
 40
1
 40
1
 40
1
 40
1
 10
114.63851405
 20
62.03963485
 30
0
 10
114.9146564249154
 20
62.03963485
 30
0
 10
115.13851405
 20
62.2634924750846
 30
0
 10
115.13851405
 20
62.53963485
 30
0
  0
LWPOLYLINE
  5
111
100
AcDbEntity
  8
0
  6
CONTINUOUS
 62
    7
370
   25
100
AcDbPolyline
 90
    2
 70
    0
 43
0
 10
120.68851405
 20
76.03963485
 10
133.68851405
 20
76.03963485
  0
LWPOLYLINE
  5
112
100
AcDbEntity
  8
0
  6
CONTINUOUS
 62
    7
370
   25
100
AcDbPolyline
 90
    2
 70
    0
 43
0
 10
120.68851405
 20
62.03963485
 10
133.68851405
 20
62.03963485
  0
LWPOLYLINE
  5
113
100
AcDbEntity
  8
0
  6
CONTINUOUS
 62
    7
370
   25
100
AcDbPolyline
 90
    2
 70
    0
 43
0
 10
120.18851405
 20
75.53963485
 10
120.18851405
 20
62.53963485
  0
LWPOLYLINE
  5
114
100
AcDbEntity
  8
0
  6
CONTINUOUS
 62
    7
370
   25
100
AcDbPolyline
 90
    2
 70
    0
 43
0
 10
134.18851405
 20
75.53963485
 10
134.18851405
 20
62.53963485
  0
SPLINE
  5
115
100
AcDbEntity
  8
0
  6
CONTINUOUS
 62
    7
370
   25
100
AcDbSpline
210
0
220
0
230
0
 70
    8
 71
    3
 72
    8
 73
    4
 74
    0
 42
1e-007
 43
1e-007
 40
0
 40
0
 40
0
 40
0
 40
1
 40
1
 40
1
 40
1
 10
120.68851405
 20
76.03963485
 30
0
 10
120.4123716750846
 20
76.03963485
 30
0
 10
120.18851405
 20
75.81577722491539
 30
0
 10
120.18851405
 20
75.53963485
 30
0
  0
SPLINE
  5
116
100
AcDbEntity
  8
0
  6
CONTINUOUS
 62
    7
370
   25
100
AcDbSpline
210
0
220
0
230
0
 70
    8
 71
    3
 72
    8
 73
    4
 74
    0
 42
1e-007
 43
1e-007
 40
0
 40
0
 40
0
 40
0
 40
1
 40
1
 40
1
 40
1
 10
134.18851405
 20
75.53963485
 30
0
 10
134.18851405
 20
75.81577722491539
 30
0
 10
133.9646564249154
 20
76.03963485
 30
0
 10
133.68851405
 20
76.03963485
 30
0
  0
SPLINE
  5
117
100
AcDbEntity
  8
0
  6
CONTINUOUS
 62
    7
370
   25
100
AcDbSpline
210
0
220
0
230
0
 70
    8
 71
    3
 72
    8
 73
    4
 74
    0
 42
1e-007
 43
1e-007
 40
0
 40
0
 40
0
 40
0
 40
1
 40
1
 40
1
 40
1
 10
120.18851405
 20
62.53963485
 30
0
 10
120.18851405
 20
62.2634924750846
 30
0
 10
120.4123716750846
 20
62.03963485
 30
0
 10
120.68851405
 20
62.03963485
 30
0
  0
SPLINE
  5
118
100
AcDbEntity
  8
0
  6
CONTINUOUS
 62
    7
370
   25
100
AcDbSpline
210
0
220
0
230
0
 70
    8
 71
    3
 72
    8
 73
    4
 74
    0
 42
1e-007
 43
1e-007
 40
0
 40
0
 40
0
 40
0
 40
1
 40
1
 40
1
 40
1
 10
133.68851405
 20
62.03963485
 30
0
 10
133.9646564249154
 20
62.03963485
 30
0
 10
134.18851405
 20
62.2634924750846
 30
0
 10
134.18851405
 20
62.53963485
 30
0
  0
LWPOLYLINE
  5
119
100
AcDbEntity
  8
0
  6
CONTINUOUS
 62
    7
370
   25
100
AcDbPolyline
 90
    2
 70
    0
 43
0
 10
18.29476405
 20
71.27713485000001
 10
31.29476405
 20
71.27713485000001
  0
LWPOLYLINE
  5
11A
100
AcDbEntity
  8
0
  6
CONTINUOUS
 62
    7
370
   25
100
AcDbPolyline
 90
    2
 70
    0
 43
0
 10
18.29476405
 20
57.27713485
 10
31.29476405
 20
57.27713485
  0
LWPOLYLINE
  5
11B
100
AcDbEntity
  8
0
  6
CONTINUOUS
 62
    7
370
   25
100
AcDbPolyline
 90
    2
 70
    0
 43
0
 10
17.79476405
 20
70.77713485000001
 10
17.79476405
 20
57.77713485
  0
LWPOLYLINE
  5
11C
100
AcDbEntity
  8
0
  6
CONTINUOUS
 62
    7
370
   25
100
AcDbPolyline
 90
    2
 70
    0
 43
0
 10
31.79476405
 20
70.77713485000001
 10
31.79476405
 20
57.77713485
  0
SPLINE
  5
11D
100
AcDbEntity
  8
0
  6
CONTINUOUS
 62
    7
370
   25
100
AcDbSpline
210
0
220
0
230
0
 70
    8
 71
    3
 72
    8
 73
    4
 74
    0
 42
1e-007
 43
1e-007
 40
0
 40
0
 40
0
 40
0
 40
1
 40
1
 40
1
 40
1
 10
18.29476405
 20
71.27713485000001
 30
0
 10
18.01862167508461
 20
71.27713485000001
 30
0
 10
17.79476405
 20
71.0532772249154
 30
0
 10
17.79476405
 20
70.77713485000001
 30
0
  0
SPLINE
  5
11E
100
AcDbEntity
  8
0
  6
CONTINUOUS
 62
    7
370
   25
100
AcDbSpline
210
0
220
0
230
0
 70
    8
 71
    3
 72
    8
 73
    4
 74
    0
 42
1e-007
 43
1e-007
 40
0
 40
0
 40
0
 40
0
 40
1
 40
1
 40
1
 40
1
 10
31.79476405
 20
70.77713485000001
 30
0
 10
31.79476405
 20
71.0532772249154
 30
0
 10
31.5709064249154
 20
71.27713485000001
 30
0
 10
31.29476405
 20
71.27713485000001
 30
0
  0
SPLINE
  5
11F
100
AcDbEntity
  8
0
  6
CONTINUOUS
 62
    7
370
   25
100
AcDbSpline
210
0
220
0
230
0
 70
    8
 71
    3
 72
    8
 73
    4
 74
    0
 42
1e-007
 43
1e-007
 40
0
 40
0
 40
0
 40
0
 40
1
 40
1
 40
1
 40
1
 10
17.79476405
 20
57.77713485
 30
0
 10
17.79476405
 20
57.50099247508462
 30
0
 10
18.01862167508461
 20
57.27713485
 30
0
 10
18.29476405
 20
57.27713485
 30
0
  0
SPLINE
  5
120
100
AcDbEntity
  8
0
  6
CONTINUOUS
 62
    7
370
   25
100
AcDbSpline
210
0
220
0
230
0
 70
    8
 71
    3
 72
    8
 73
    4
 74
    0
 42
1e-007
 43
1e-007
 40
0
 40
0
 40
0
 40
0
 40
1
 40
1
 40
1
 40
1
 10
31.29476405
 20
57.27713485
 30
0
 10
31.5709064249154
 20
57.27713485
 30
0
 10
31.79476405
 20
57.50099247508462
 30
0
 10
31.79476405
 20
57.77713485
 30
0
  0
LWPOLYLINE
  5
121
100
AcDbEntity
  8
0
  6
CONTINUOUS
 62
    7
370
   25
100
AcDbPolyline
 90
    2
 70
    0
 43
0
 10
44.48851405
 20
71.27713485000001
 10
57.48851405
 20
71.27713485000001
  0
LWPOLYLINE
  5
122
100
AcDbEntity
  8
0
  6
CONTINUOUS
 62
    7
370
   25
100
AcDbPolyline
 90
    2
 70
    0
 43
0
 10
44.48851405
 20
57.27713485
 10
57.48851405
 20
57.27713485
  0
LWPOLYLINE
  5
123
100
AcDbEntity
  8
0
  6
CONTINUOUS
 62
    7
370
   25
100
AcDbPolyline
 90
    2
 70
    0
 43
0
 10
43.98851405
 20
70.77713485000001
 10
43.98851405
 20
57.77713485
  0
LWPOLYLINE
  5
124
100
AcDbEntity
  8
0
  6
CONTINUOUS
 62
    7
370
   25
100
AcDbPolyline
 90
    2
 70
    0
 43
0
 10
57.98851405
 20
70.77713485000001
 10
57.98851405
 20
57.77713485
  0
SPLINE
  5
125
100
AcDbEntity
  8
0
  6
CONTINUOUS
 62
    7
370
   25
100
AcDbSpline
210
0
220
0
230
0
 70
    8
 71
    3
 72
    8
 73
    4
 74
    0
 42
1e-007
 43
1e-007
 40
0
 40
0
 40
0
 40
0
 40
1
 40
1
 40
1
 40
1
 10
44.48851405
 20
71.27713485000001
 30
0
 10
44.21237167508461
 20
71.27713485000001
 30
0
 10
43.98851405
 20
71.0532772249154
 30
0
 10
43.98851405
 20
70.77713485000001
 30
0
  0
SPLINE
  5
126
100
AcDbEntity
  8
0
  6
CONTINUOUS
 62
    7
370
   25
100
AcDbSpline
210
0
220
0
230
0
 70
    8
 71
    3
 72
    8
 73
    4
 74
    0
 42
1e-007
 43
1e-007
 40
0
 40
0
 40
0
 40
0
 40
1
 40
1
 40
1
 40
1
 10
57.98851405
 20
70.77713485000001
 30
0
 10
57.98851405
 20
71.0532772249154
 30
0
 10
57.7646564249154
 20
71.27713485000001
 30
0
 10
57.48851405
 20
71.27713485000001
 30
0
  0
SPLINE
  5
127
100
AcDbEntity
  8
0
  6
CONTINUOUS
 62
    7
370
   25
100
AcDbSpline
210
0
220
0
230
0
 70
    8
 71
    3
 72
    8
 73
    4
 74
    0
 42
1e-007
 43
1e-007
 40
0
 40
0
 40
0
 40
0
 40
1
 40
1
 40
1
 40
1
 10
43.98851405
 20
57.77713485
 30
0
 10
43.98851405
 20
57.50099247508462
 30
0
 10
44.21237167508461
 20
57.27713485
 30
0
 10
44.48851405
 20
57.27713485
 30
0
  0
SPLINE
  5
128
100
AcDbEntity
  8
0
  6
CONTINUOUS
 62
    7
370
   25
100
AcDbSpline
210
0
220
0
230
0
 70
    8
 71
    3
 72
    8
 73
    4
 74
    0
 42
1e-007
 43
1e-007
 40
0
 40
0
 40
0
 40
0
 40
1
 40
1
 40
1
 40
1
 10
57.48851405
 20
57.27713485
 30
0
 10
57.7646564249154
 20
57.27713485
 30
0
 10
57.98851405
 20
57.50099247508462
 30
0
 10
57.98851405
 20
57.77713485
 30
0
  0
LWPOLYLINE
  5
129
100
AcDbEntity
  8
0
  6
CONTINUOUS
 62
    7
370
   25
100
AcDbPolyline
 90
    2
 70
    0
 43
0
 10
139.73851405
 20
71.27713485000001
 10
152.73851405
 20
71.27713485000001
  0
LWPOLYLINE
  5
12A
100
AcDbEntity
  8
0
  6
CONTINUOUS
 62
    7
370
   25
100
AcDbPolyline
 90
    2
 70
    0
 43
0
 10
139.73851405
 20
57.27713485
 10
152.73851405
 20
57.27713485
  0
LWPOLYLINE
  5
12B
100
AcDbEntity
  8
0
  6
CONTINUOUS
 62
    7
370
   25
100
AcDbPolyline
 90
    2
 70
    0
 43
0
 10
139.23851405
 20
70.77713485000001
 10
139.23851405
 20
57.77713485
  0
LWPOLYLINE
  5
12C
100
AcDbEntity
  8
0
  6
CONTINUOUS
 62
    7
370
   25
100
AcDbPolyline
 90
    2
 70
    0
 43
0
 10
153.23851405
 20
70.77713485000001
 10
153.23851405
 20
57.77713485
  0
SPLINE
  5
12D
100
AcDbEntity
  8
0
  6
CONTINUOUS
 62
    7
370
   25
100
AcDbSpline
210
0
220
0
230
0
 70
    8
 71
    3
 72
    8
 73
    4
 74
    0
 42
1e-007
 43
1e-007
 40
0
 40
0
 40
0
 40
0
 40
1
 40
1
 40
1
 40
1
 10
139.73851405
 20
71.27713485000001
 30
0
 10
139.4623716750846
 20
71.27713485000001
 30
0
 10
139.23851405
 20
71.0532772249154
 30
0
 10
139.23851405
 20
70.77713485000001
 30
0
  0
SPLINE
  5
12E
100
AcDbEntity
  8
0
  6
CONTINUOUS
 62
    7
370
   25
100
AcDbSpline
210
0
220
0
230
0
 70
    8
 71
    3
 72
    8
 73
    4
 74
    0
 42
1e-007
 43
1e-007
 40
0
 40
0
 40
0
 40
0
 40
1
 40
1
 40
1
 40
1
 10
153.23851405
 20
70.77713485000001
 30
0
 10
153.23851405
 20
71.0532772249154
 30
0
 10
153.0146564249154
 20
71.27713485000001
 30
0
 10
152.73851405
 20
71.27713485000001
 30
0
  0
SPLINE
  5
12F
100
AcDbEntity
  8
0
  6
CONTINUOUS
 62
    7
370
   25
100
AcDbSpline
210
0
220
0
230
0
 70
    8
 71
    3
 72
    8
 73
    4
 74
    0
 42
1e-007
 43
1e-007
 40
0
 40
0
 40
0
 40
0
 40
1
 40
1
 40
1
 40
1
 10
139.23851405
 20
57.77713485
 30
0
 10
139.23851405
 20
57.50099247508462
 30
0
 10
139.4623716750846
 20
57.27713485
 30
0
 10
139.73851405
 20
57.27713485
 30
0
  0
SPLINE
  5
130
100
AcDbEntity
  8
0
  6
CONTINUOUS
 62
    7
370
   25
100
AcDbSpline
210
0
220
0
230
0
 70
    8
 71
    3
 72
    8
 73
    4
 74
    0
 42
1e-007
 43
1e-007
 40
0
 40
0
 40
0
 40
0
 40
1
 40
1
 40
1
 40
1
 10
152.73851405
 20
57.27713485
 30
0
 10
153.0146564249154
 20
57.27713485
 30
0
 10
153.23851405
 20
57.50099247508462
 30
0
 10
153.23851405
 20
57.77713485
 30
0
  0
LWPOLYLINE
  5
131
100
AcDbEntity
  8
0
  6
CONTINUOUS
 62
    7
370
   25
100
AcDbPolyline
 90
    2
 70
    0
 43
0
 10
25.43851405000001
 20
52.22713484999998
 10
38.43851405
 20
52.22713484999998
  0
LWPOLYLINE
  5
132
100
AcDbEntity
  8
0
  6
CONTINUOUS
 62
    7
370
   25
100
AcDbPolyline
 90
    2
 70
    0
 43
0
 10
25.43851405000001
 20
38.22713485
 10
38.43851405
 20
38.22713485
  0
LWPOLYLINE
  5
133
100
AcDbEntity
  8
0
  6
CONTINUOUS
 62
    7
370
   25
100
AcDbPolyline
 90
    2
 70
    0
 43
0
 10
24.93851405000001
 20
51.72713484999998
 10
24.93851405000001
 20
38.72713485
  0
LWPOLYLINE
  5
134
100
AcDbEntity
  8
0
  6
CONTINUOUS
 62
    7
370
   25
100
AcDbPolyline
 90
    2
 70
    0
 43
0
 10
38.93851405000001
 20
51.72713484999998
 10
38.93851405000001
 20
38.72713485
  0
SPLINE
  5
135
100
AcDbEntity
  8
0
  6
CONTINUOUS
 62
    7
370
   25
100
AcDbSpline
210
0
220
0
230
0
 70
    8
 71
    3
 72
    8
 73
    4
 74
    0
 42
1e-007
 43
1e-007
 40
0
 40
0
 40
0
 40
0
 40
1
 40
1
 40
1
 40
1
 10
25.43851405000001
 20
52.22713484999998
 30
0
 10
25.16237167508461
 20
52.22713484999998
 30
0
 10
24.93851405000001
 20
52.00327722491538
 30
0
 10
24.93851405000001
 20
51.72713484999998
 30
0
  0
SPLINE
  5
136
100
AcDbEntity
  8
0
  6
CONTINUOUS
 62
    7
370
   25
100
AcDbSpline
210
0
220
0
230
0
 70
    8
 71
    3
 72
    8
 73
    4
 74
    0
 42
1e-007
 43
1e-007
 40
0
 40
0
 40
0
 40
0
 40
1
 40
1
 40
1
 40
1
 10
38.93851405000001
 20
51.72713484999998
 30
0
 10
38.93851405000001
 20
52.00327722491538
 30
0
 10
38.7146564249154
 20
52.22713484999998
 30
0
 10
38.43851405
 20
52.22713484999998
 30
0
  0
SPLINE
  5
137
100
AcDbEntity
  8
0
  6
CONTINUOUS
 62
    7
370
   25
100
AcDbSpline
210
0
220
0
230
0
 70
    8
 71
    3
 72
    8
 73
    4
 74
    0
 42
1e-007
 43
1e-007
 40
0
 40
0
 40
0
 40
0
 40
1
 40
1
 40
1
 40
1
 10
24.93851405000001
 20
38.72713485
 30
0
 10
24.93851405000001
 20
38.4509924750846
 30
0
 10
25.16237167508461
 20
38.22713485
 30
0
 10
25.43851405000001
 20
38.22713485
 30
0
  0
SPLINE
  5
138
100
AcDbEntity
  8
0
  6
CONTINUOUS
 62
    7
370
   25
100
AcDbSpline
210
0
220
0
230
0
 70
    8
 71
    3
 72
    8
 73
    4
 74
    0
 42
1e-007
 43
1e-007
 40
0
 40
0
 40
0
 40
0
 40
1
 40
1
 40
1
 40
1
 10
38.43851405
 20
38.22713485
 30
0
 10
38.7146564249154
 20
38.22713485
 30
0
 10
38.93851405000001
 20
38.4509924750846
 30
0
 10
38.93851405000001
 20
38.72713485
 30
0
  0
LWPOLYLINE
  5
139
100
AcDbEntity
  8
0
  6
CONTINUOUS
 62
    7
370
   25
100
AcDbPolyline
 90
    2
 70
    0
 43
0
 10
44.48851405
 20
52.22713484999998
 10
57.48851405
 20
52.22713484999998
  0
LWPOLYLINE
  5
13A
100
AcDbEntity
  8
0
  6
CONTINUOUS
 62
    7
370
   25
100
AcDbPolyline
 90
    2
 70
    0
 43
0
 10
44.48851405
 20
38.22713485
 10
57.48851405
 20
38.22713485
  0
LWPOLYLINE
  5
13B
100
AcDbEntity
  8
0
  6
CONTINUOUS
 62
    7
370
   25
100
AcDbPolyline
 90
    2
 70
    0
 43
0
 10
43.98851405
 20
51.72713484999998
 10
43.98851405
 20
38.72713485
  0
LWPOLYLINE
  5
13C
100
AcDbEntity
  8
0
  6
CONTINUOUS
 62
    7
370
   25
100
AcDbPolyline
 90
    2
 70
    0
 43
0
 10
57.98851405
 20
51.72713484999998
 10
57.98851405
 20
38.72713485
  0
SPLINE
  5
13D
100
AcDbEntity
  8
0
  6
CONTINUOUS
 62
    7
370
   25
100
AcDbSpline
210
0
220
0
230
0
 70
    8
 71
    3
 72
    8
 73
    4
 74
    0
 42
1e-007
 43
1e-007
 40
0
 40
0
 40
0
 40
0
 40
1
 40
1
 40
1
 40
1
 10
44.48851405
 20
52.22713484999998
 30
0
 10
44.21237167508461
 20
52.22713484999998
 30
0
 10
43.98851405
 20
52.00327722491538
 30
0
 10
43.98851405
 20
51.72713484999998
 30
0
  0
SPLINE
  5
13E
100
AcDbEntity
  8
0
  6
CONTINUOUS
 62
    7
370
   25
100
AcDbSpline
210
0
220
0
230
0
 70
    8
 71
    3
 72
    8
 73
    4
 74
    0
 42
1e-007
 43
1e-007
 40
0
 40
0
 40
0
 40
0
 40
1
 40
1
 40
1
 40
1
 10
57.98851405
 20
51.72713484999998
 30
0
 10
57.98851405
 20
52.00327722491538
 30
0
 10
57.7646564249154
 20
52.22713484999998
 30
0
 10
57.48851405
 20
52.22713484999998
 30
0
  0
SPLINE
  5
13F
100
AcDbEntity
  8
0
  6
CONTINUOUS
 62
    7
370
   25
100
AcDbSpline
210
0
220
0
230
0
 70
    8
 71
    3
 72
    8
 73
    4
 74
    0
 42
1e-007
 43
1e-007
 40
0
 40
0
 40
0
 40
0
 40
1
 40
1
 40
1
 40
1
 10
43.98851405
 20
38.72713485
 30
0
 10
43.98851405
 20
38.4509924750846
 30
0
 10
44.21237167508461
 20
38.22713485
 30
0
 10
44.48851405
 20
38.22713485
 30
0
  0
SPLINE
  5
140
100
AcDbEntity
  8
0
  6
CONTINUOUS
 62
    7
370
   25
100
AcDbSpline
210
0
220
0
230
0
 70
    8
 71
    3
 72
    8
 73
    4
 74
    0
 42
1e-007
 43
1e-007
 40
0
 40
0
 40
0
 40
0
 40
1
 40
1
 40
1
 40
1
 10
57.48851405
 20
38.22713485
 30
0
 10
57.7646564249154
 20
38.22713485
 30
0
 10
57.98851405
 20
38.4509924750846
 30
0
 10
57.98851405
 20
38.72713485
 30
0
  0
LWPOLYLINE
  5
141
100
AcDbEntity
  8
0
  6
CONTINUOUS
 62
    7
370
   25
100
AcDbPolyline
 90
    2
 70
    0
 43
0
 10
63.53851405000001
 20
52.22713484999998
 10
76.53851405
 20
52.22713484999998
  0
LWPOLYLINE
  5
142
100
AcDbEntity
  8
0
  6
CONTINUOUS
 62
    7
370
   25
100
AcDbPolyline
 90
    2
 70
    0
 43
0
 10
63.53851405000001
 20
38.22713485
 10
76.53851405
 20
38.22713485
  0
LWPOLYLINE
  5
143
100
AcDbEntity
  8
0
  6
CONTINUOUS
 62
    7
370
   25
100
AcDbPolyline
 90
    2
 70
    0
 43
0
 10
63.03851405000001
 20
51.72713484999998
 10
63.03851405000001
 20
38.72713485
  0
LWPOLYLINE
  5
144
100
AcDbEntity
  8
0
  6
CONTINUOUS
 62
    7
370
   25
100
AcDbPolyline
 90
    2
 70
    0
 43
0
 10
77.03851405
 20
51.72713484999998
 10
77.03851405
 20
38.72713485
  0
SPLINE
  5
145
100
AcDbEntity
  8
0
  6
CONTINUOUS
 62
    7
370
   25
100
AcDbSpline
210
0
220
0
230
0
 70
    8
 71
    3
 72
    8
 73
    4
 74
    0
 42
1e-007
 43
1e-007
 40
0
 40
0
 40
0
 40
0
 40
1
 40
1
 40
1
 40
1
 10
63.53851405000001
 20
52.22713484999998
 30
0
 10
63.26237167508461
 20
52.22713484999998
 30
0
 10
63.03851405000001
 20
52.00327722491538
 30
0
 10
63.03851405000001
 20
51.72713484999998
 30
0
  0
SPLINE
  5
146
100
AcDbEntity
  8
0
  6
CONTINUOUS
 62
    7
370
   25
100
AcDbSpline
210
0
220
0
230
0
 70
    8
 71
    3
 72
    8
 73
    4
 74
    0
 42
1e-007
 43
1e-007
 40
0
 40
0
 40
0
 40
0
 40
1
 40
1
 40
1
 40
1
 10
63.03851405000001
 20
38.72713485
 30
0
 10
63.03851405000001
 20
38.4509924750846
 30
0
 10
63.26237167508461
 20
38.22713485
 30
0
 10
63.53851405000001
 20
38.22713485
 30
0
  0
SPLINE
  5
147
100
AcDbEntity
  8
0
  6
CONTINUOUS
 62
    7
370
   25
100
AcDbSpline
210
0
220
0
230
0
 70
    8
 71
    3
 72
    8
 73
    4
 74
    0
 42
1e-007
 43
1e-007
 40
0
 40
0
 40
0
 40
0
 40
1
 40
1
 40
1
 40
1
 10
76.53851405
 20
38.22713485
 30
0
 10
76.8146564249154
 20
38.22713485
 30
0
 10
77.03851405
 20
38.4509924750846
 30
0
 10
77.03851405
 20
38.72713485
 30
0
  0
LWPOLYLINE
  5
148
100
AcDbEntity
  8
0
  6
CONTINUOUS
 62
    7
370
   25
100
AcDbPolyline
 90
    2
 70
    0
 43
0
 10
118.18165275
 20
52.61276464999999
 10
130.89757155
 20
49.90991265000001
  0
LWPOLYLINE
  5
149
100
AcDbEntity
  8
0
  6
CONTINUOUS
 62
    7
370
   25
100
AcDbPolyline
 90
    2
 70
    0
 43
0
 10
115.27088915
 20
38.91869825000001
 10
127.98680795
 20
36.21584625
  0
LWPOLYLINE
  5
14A
100
AcDbEntity
  8
0
  6
CONTINUOUS
 62
    7
370
   25
100
AcDbPolyline
 90
    2
 70
    0
 43
0
 10
117.58862315
 20
52.22764665
 10
114.88577115
 20
39.51172785
  0
LWPOLYLINE
  5
14B
100
AcDbEntity
  8
0
  6
CONTINUOUS
 62
    7
370
   25
100
AcDbPolyline
 90
    2
 70
    0
 43
0
 10
131.28268955
 20
49.31688304999999
 10
128.57983755
 20
36.60096424999999
  0
SPLINE
  5
14C
100
AcDbEntity
  8
0
  6
CONTINUOUS
 62
    7
370
   25
100
AcDbSpline
210
0
220
0
230
0
 70
    8
 71
    3
 72
   11
 73
    7
 74
    0
 42
1e-007
 43
1e-007
 40
0
 40
0
 40
0
 40
0
 40
1
 40
1
 40
1
 40
2
 40
2
 40
2
 40
2
 10
118.1816527954089
 20
52.6127646503669
 30
0
 10
118.0519423588031
 20
52.64033545478455
 30
0
 10
117.9165920645736
 20
52.61524976052085
 30
0
 10
117.8053774324925
 20
52.54302613397272
 30
0
 10
117.6941628004114
 20
52.47080250742457
 30
0
 10
117.6161939540507
 20
52.35735713201468
 30
0
 10
117.5886231496331
 20
52.22764669540888
 30
0
  0
SPLINE
  5
14D
100
AcDbEntity
  8
0
  6
CONTINUOUS
 62
    7
370
   25
100
AcDbSpline
210
0
220
0
230
0
 70
    8
 71
    3
 72
   11
 73
    7
 74
    0
 42
1e-007
 43
1e-007
 40
0
 40
0
 40
0
 40
0
 40
1
 40
1
 40
1
 40
2
 40
2
 40
2
 40
2
 10
131.2826895503669
 20
49.31688300459112
 30
0
 10
131.3102603547846
 20
49.44659344119694
 30
0
 10
131.2851746605209
 20
49.58194373542642
 30
0
 10
131.2129510339727
 20
49.69315836750754
 30
0
 10
131.1407274074246
 20
49.80437299958864
 30
0
 10
131.0272820320147
 20
49.88234184594927
 30
0
 10
130.8975715954089
 20
49.90991265036691
 30
0
  0
SPLINE
  5
14E
100
AcDbEntity
  8
0
  6
CONTINUOUS
 62
    7
370
   25
100
AcDbSpline
210
0
220
0
230
0
 70
    8
 71
    3
 72
    8
 73
    4
 74
    0
 42
1e-007
 43
1e-007
 40
0
 40
0
 40
0
 40
0
 40
1
 40
1
 40
1
 40
1
 10
114.8857711496331
 20
39.51172789540888
 30
0
 10
114.828357921558
 20
39.24161989392445
 30
0
 10
115.0007811031067
 20
38.97611147770817
 30
0
 10
115.2708891045911
 20
38.9186982496331
 30
0
  0
SPLINE
  5
14F
100
AcDbEntity
  8
0
  6
CONTINUOUS
 62
    7
370
   25
100
AcDbSpline
210
0
220
0
230
0
 70
    8
 71
    3
 72
    8
 73
    4
 74
    0
 42
1e-007
 43
1e-007
 40
0
 40
0
 40
0
 40
0
 40
1
 40
1
 40
1
 40
1
 10
127.9868079045911
 20
36.2158462496331
 30
0
 10
128.2569159060756
 20
36.158433021558
 30
0
 10
128.5224243222918
 20
36.33085620310669
 30
0
 10
128.5798375503669
 20
36.60096420459111
 30
0
  0
LWPOLYLINE
  5
150
100
AcDbEntity
  8
0
  6
CONTINUOUS
 62
    7
370
   25
100
AcDbPolyline
 90
    2
 70
    0
 43
0
 10
147.93604245
 20
36.03930935000001
 10
145.23319045
 20
23.32339054999998
  0
LWPOLYLINE
  5
151
100
AcDbEntity
  8
0
  6
CONTINUOUS
 62
    7
370
   25
100
AcDbPolyline
 90
    2
 70
    0
 43
0
 10
134.24197605
 20
38.95007295000001
 10
131.53912405
 20
26.23415415000001
  0
LWPOLYLINE
  5
152
100
AcDbEntity
  8
0
  6
CONTINUOUS
 62
    7
370
   25
100
AcDbPolyline
 90
    2
 70
    0
 43
0
 10
147.55092445
 20
36.63233895
 10
134.83500565
 20
39.33519095
  0
LWPOLYLINE
  5
153
100
AcDbEntity
  8
0
  6
CONTINUOUS
 62
    7
370
   25
100
AcDbPolyline
 90
    2
 70
    0
 43
0
 10
144.64016085
 20
22.93827254999999
 10
131.92424205
 20
25.64112455
  0
SPLINE
  5
154
100
AcDbEntity
  8
0
  6
CONTINUOUS
 62
    7
370
   25
100
AcDbSpline
210
0
220
0
230
0
 70
    8
 71
    3
 72
   11
 73
    7
 74
    0
 42
1e-007
 43
1e-007
 40
0
 40
0
 40
0
 40
0
 40
1
 40
1
 40
1
 40
2
 40
2
 40
2
 40
2
 10
147.9360424503669
 20
36.0393093045911
 30
0
 10
147.9636132547845
 20
36.16901974119692
 30
0
 10
147.9385275605209
 20
36.3043700354264
 30
0
 10
147.8663039339727
 20
36.41558466750752
 30
0
 10
147.7940803074246
 20
36.52679929958862
 30
0
 10
147.6806349320147
 20
36.60476814594925
 30
0
 10
147.5509244954089
 20
36.63233895036689
 30
0
  0
SPLINE
  5
155
100
AcDbEntity
  8
0
  6
CONTINUOUS
 62
    7
370
   25
100
AcDbSpline
210
0
220
0
230
0
 70
    8
 71
    3
 72
    8
 73
    4
 74
    0
 42
1e-007
 43
1e-007
 40
0
 40
0
 40
0
 40
0
 40
1
 40
1
 40
1
 40
1
 10
144.6401608045911
 20
22.9382725496331
 30
0
 10
144.9102688060755
 20
22.88085932155799
 30
0
 10
145.1757772222918
 20
23.05328250310669
 30
0
 10
145.2331904503669
 20
23.3233905045911
 30
0
  0
SPLINE
  5
156
100
AcDbEntity
  8
0
  6
CONTINUOUS
 62
    7
370
   25
100
AcDbSpline
210
0
220
0
230
0
 70
    8
 71
    3
 72
   11
 73
    7
 74
    0
 42
1e-007
 43
1e-007
 40
0
 40
0
 40
0
 40
0
 40
1
 40
1
 40
1
 40
2
 40
2
 40
2
 40
2
 10
134.8350056954089
 20
39.33519095036689
 30
0
 10
134.7052952588031
 20
39.36276175478456
 30
0
 10
134.5699449645736
 20
39.33767606052085
 30
0
 10
134.4587303324925
 20
39.26545243397271
 30
0
 10
134.3475157004114
 20
39.19322880742456
 30
0
 10
134.2695468540508
 20
39.07978343201468
 30
0
 10
134.2419760496331
 20
38.95007299540889
 30
0
  0
SPLINE
  5
157
100
AcDbEntity
  8
0
  6
CONTINUOUS
 62
    7
370
   25
100
AcDbSpline
210
0
220
0
230
0
 70
    8
 71
    3
 72
    8
 73
    4
 74
    0
 42
1e-007
 43
1e-007
 40
0
 40
0
 40
0
 40
0
 40
1
 40
1
 40
1
 40
1
 10
131.5391240496331
 20
26.23415419540889
 30
0
 10
131.481710821558
 20
25.96404619392445
 30
0
 10
131.6541340031067
 20
25.69853777770818
 30
0
 10
131.9242420045911
 20
25.6411245496331
 30
0
  0
LWPOLYLINE
  5
158
100
AcDbEntity
  8
0
  6
CONTINUOUS
 62
    7
370
   25
100
AcDbPolyline
 90
    2
 70
    0
 43
0
 10
148.71225365
 20
44.50083045000001
 10
147.46478355
 20
38.63194485
  0
LWPOLYLINE
  5
159
100
AcDbEntity
  8
0
  6
CONTINUOUS
 62
    7
370
   25
100
AcDbPolyline
 90
    2
 70
    0
 43
0
 10
134.04003965
 20
47.61950585000001
 10
132.79256955
 20
41.75062025
  0
LWPOLYLINE
  5
15A
100
AcDbEntity
  8
0
  6
CONTINUOUS
 62
    7
370
   25
100
AcDbPolyline
 90
    2
 70
    0
 43
0
 10
148.32713575
 20
45.09386015
 10
134.63306935
 20
48.00462374999999
  0
LWPOLYLINE
  5
15B
100
AcDbEntity
  8
0
  6
CONTINUOUS
 62
    7
370
   25
100
AcDbPolyline
 90
    2
 70
    0
 43
0
 10
146.87175395
 20
38.24682694999998
 10
133.17768745
 20
41.15759054999999
  0
SPLINE
  5
15C
100
AcDbEntity
  8
0
  6
CONTINUOUS
 62
    7
370
   25
100
AcDbSpline
210
0
220
0
230
0
 70
    8
 71
    3
 72
   11
 73
    7
 74
    0
 42
1e-007
 43
1e-007
 40
0
 40
0
 40
0
 40
0
 40
1
 40
1
 40
1
 40
2
 40
2
 40
2
 40
2
 10
148.7122536503669
 20
44.50083050459109
 30
0
 10
148.7398244547846
 20
44.63054094119691
 30
0
 10
148.7147387605209
 20
44.76589123542639
 30
0
 10
148.6425151339727
 20
44.87710586750751
 30
0
 10
148.5702915074246
 20
44.98832049958861
 30
0
 10
148.4568461320147
 20
45.06628934594924
 30
0
 10
148.3271356954089
 20
45.09386015036688
 30
0
  0
SPLINE
  5
15D
100
AcDbEntity
  8
0
  6
CONTINUOUS
 62
    7
370
   25
100
AcDbSpline
210
0
220
0
230
0
 70
    8
 71
    3
 72
    8
 73
    4
 74
    0
 42
1e-007
 43
1e-007
 40
0
 40
0
 40
0
 40
0
 40
1
 40
1
 40
1
 40
1
 10
146.8717539045911
 20
38.2468269496331
 30
0
 10
147.1418619060755
 20
38.189413721558
 30
0
 10
147.4073703222918
 20
38.36183690310669
 30
0
 10
147.4647835503669
 20
38.63194490459111
 30
0
  0
SPLINE
  5
15E
100
AcDbEntity
  8
0
  6
CONTINUOUS
 62
    7
370
   25
100
AcDbSpline
210
0
220
0
230
0
 70
    8
 71
    3
 72
   11
 73
    7
 74
    0
 42
1e-007
 43
1e-007
 40
0
 40
0
 40
0
 40
0
 40
1
 40
1
 40
1
 40
2
 40
2
 40
2
 40
2
 10
134.6330692954089
 20
48.0046237503669
 30
0
 10
134.5033588588031
 20
48.03219455478455
 30
0
 10
134.3680085645736
 20
48.00710886052086
 30
0
 10
134.2567939324925
 20
47.93488523397272
 30
0
 10
134.1455793004114
 20
47.86266160742457
 30
0
 10
134.0676104540507
 20
47.74921623201469
 30
0
 10
134.0400396496331
 20
47.61950579540888
 30
0
  0
SPLINE
  5
15F
100
AcDbEntity
  8
0
  6
CONTINUOUS
 62
    7
370
   25
100
AcDbSpline
210
0
220
0
230
0
 70
    8
 71
    3
 72
    8
 73
    4
 74
    0
 42
1e-007
 43
1e-007
 40
0
 40
0
 40
0
 40
0
 40
1
 40
1
 40
1
 40
1
 10
132.7925695496331
 20
41.75062019540889
 30
0
 10
132.735156321558
 20
41.48051219392445
 30
0
 10
132.9075795031067
 20
41.21500377770818
 30
0
 10
133.1776875045911
 20
41.1575905496331
 30
0
  0
LWPOLYLINE
  5
160
100
AcDbEntity
  8
0
  6
CONTINUOUS
 62
    7
370
   25
100
AcDbPolyline
 90
    2
 70
    0
 43
0
 10
143.74815415
 20
21.14657835
 10
142.50068405
 20
15.27769275
  0
LWPOLYLINE
  5
161
100
AcDbEntity
  8
0
  6
CONTINUOUS
 62
    7
370
   25
100
AcDbPolyline
 90
    2
 70
    0
 43
0
 10
129.07594015
 20
24.26525375
 10
127.82847005
 20
18.39636815
  0
LWPOLYLINE
  5
162
100
AcDbEntity
  8
0
  6
CONTINUOUS
 62
    7
370
   25
100
AcDbPolyline
 90
    2
 70
    0
 43
0
 10
143.36303625
 20
21.73960794999998
 10
129.66896975
 20
24.65037165000001
  0
LWPOLYLINE
  5
163
100
AcDbEntity
  8
0
  6
CONTINUOUS
 62
    7
370
   25
100
AcDbPolyline
 90
    2
 70
    0
 43
0
 10
141.90765435
 20
14.89257474999999
 10
128.21358795
 20
17.80333844999998
  0
SPLINE
  5
164
100
AcDbEntity
  8
0
  6
CONTINUOUS
 62
    7
370
   25
100
AcDbSpline
210
0
220
0
230
0
 70
    8
 71
    3
 72
   11
 73
    7
 74
    0
 42
1e-007
 43
1e-007
 40
0
 40
0
 40
0
 40
0
 40
1
 40
1
 40
1
 40
2
 40
2
 40
2
 40
2
 10
143.7481541503669
 20
21.1465783045911
 30
0
 10
143.7757249547846
 20
21.27628874119691
 30
0
 10
143.7506392605208
 20
21.41163903542639
 30
0
 10
143.6784156339727
 20
21.5228536675075
 30
0
 10
143.6061920074246
 20
21.63406829958861
 30
0
 10
143.4927466320147
 20
21.71203714594925
 30
0
 10
143.3630361954089
 20
21.73960795036689
 30
0
  0
SPLINE
  5
165
100
AcDbEntity
  8
0
  6
CONTINUOUS
 62
    7
370
   25
100
AcDbSpline
210
0
220
0
230
0
 70
    8
 71
    3
 72
    8
 73
    4
 74
    0
 42
1e-007
 43
1e-007
 40
0
 40
0
 40
0
 40
0
 40
1
 40
1
 40
1
 40
1
 10
141.9076544045911
 20
14.89257474963307
 30
0
 10
142.1777624060756
 20
14.83516152155798
 30
0
 10
142.4432708222919
 20
15.00758470310669
 30
0
 10
142.5006840503669
 20
15.27769270459109
 30
0
  0
SPLINE
  5
166
100
AcDbEntity
  8
0
  6
CONTINUOUS
 62
    7
370
   25
100
AcDbSpline
210
0
220
0
230
0
 70
    8
 71
    3
 72
   11
 73
    7
 74
    0
 42
1e-007
 43
1e-007
 40
0
 40
0
 40
0
 40
0
 40
1
 40
1
 40
1
 40
2
 40
2
 40
2
 40
2
 10
129.6689697954089
 20
24.65037165036689
 30
0
 10
129.5392593588031
 20
24.67794245478456
 30
0
 10
129.4039090645736
 20
24.65285676052085
 30
0
 10
129.2926944324925
 20
24.58063313397271
 30
0
 10
129.1814798004114
 20
24.50840950742456
 30
0
 10
129.1035109540508
 20
24.39496413201468
 30
0
 10
129.0759401496331
 20
24.26525369540889
 30
0
  0
SPLINE
  5
167
100
AcDbEntity
  8
0
  6
CONTINUOUS
 62
    7
370
   25
100
AcDbSpline
210
0
220
0
230
0
 70
    8
 71
    3
 72
    8
 73
    4
 74
    0
 42
1e-007
 43
1e-007
 40
0
 40
0
 40
0
 40
0
 40
1
 40
1
 40
1
 40
1
 10
127.8284700496331
 20
18.39636809540889
 30
0
 10
127.771056821558
 20
18.12626009392446
 30
0
 10
127.9434800031067
 20
17.86075167770818
 30
0
 10
128.2135880045911
 20
17.80333844963312
 30
0
  0
LWPOLYLINE
  5
168
100
AcDbEntity
  8
0
  6
CONTINUOUS
 62
    7
370
   25
100
AcDbPolyline
 90
    2
 70
    0
 43
0
 10
166.56975425
 20
32.07859165000001
 10
163.86690225
 20
19.36267285
  0
LWPOLYLINE
  5
169
100
AcDbEntity
  8
0
  6
CONTINUOUS
 62
    7
370
   25
100
AcDbPolyline
 90
    2
 70
    0
 43
0
 10
152.87568785
 20
34.98935525
 10
150.17283585
 20
22.27343645000001
  0
LWPOLYLINE
  5
16A
100
AcDbEntity
  8
0
  6
CONTINUOUS
 62
    7
370
   25
100
AcDbPolyline
 90
    2
 70
    0
 43
0
 10
166.18463625
 20
32.67162124999999
 10
153.46871745
 20
35.37447325000001
  0
LWPOLYLINE
  5
16B
100
AcDbEntity
  8
0
  6
CONTINUOUS
 62
    7
370
   25
100
AcDbPolyline
 90
    2
 70
    0
 43
0
 10
163.27387265
 20
18.97755485000002
 10
150.55795385
 20
21.68040684999998
  0
SPLINE
  5
16C
100
AcDbEntity
  8
0
  6
CONTINUOUS
 62
    7
370
   25
100
AcDbSpline
210
0
220
0
230
0
 70
    8
 71
    3
 72
   11
 73
    7
 74
    0
 42
1e-007
 43
1e-007
 40
0
 40
0
 40
0
 40
0
 40
1
 40
1
 40
1
 40
2
 40
2
 40
2
 40
2
 10
166.5697542503669
 20
32.07859160459111
 30
0
 10
166.5973250547846
 20
32.20830204119692
 30
0
 10
166.5722393605209
 20
32.3436523354264
 30
0
 10
166.5000157339727
 20
32.45486696750751
 30
0
 10
166.4277921074246
 20
32.56608159958861
 30
0
 10
166.3143467320147
 20
32.64405044594926
 30
0
 10
166.1846362954089
 20
32.6716212503669
 30
0
  0
SPLINE
  5
16D
100
AcDbEntity
  8
0
  6
CONTINUOUS
 62
    7
370
   25
100
AcDbSpline
210
0
220
0
230
0
 70
    8
 71
    3
 72
    8
 73
    4
 74
    0
 42
1e-007
 43
1e-007
 40
0
 40
0
 40
0
 40
0
 40
1
 40
1
 40
1
 40
1
 10
163.2738726045911
 20
18.97755484963312
 30
0
 10
163.5439806060756
 20
18.92014162155803
 30
0
 10
163.8094890222918
 20
19.09256480310671
 30
0
 10
163.8669022503669
 20
19.36267280459111
 30
0
  0
SPLINE
  5
16E
100
AcDbEntity
  8
0
  6
CONTINUOUS
 62
    7
370
   25
100
AcDbSpline
210
0
220
0
230
0
 70
    8
 71
    3
 72
   11
 73
    7
 74
    0
 42
1e-007
 43
1e-007
 40
0
 40
0
 40
0
 40
0
 40
1
 40
1
 40
1
 40
2
 40
2
 40
2
 40
2
 10
153.4687174954089
 20
35.37447325036689
 30
0
 10
153.3390070588031
 20
35.40204405478455
 30
0
 10
153.2036567645736
 20
35.37695836052085
 30
0
 10
153.0924421324925
 20
35.30473473397272
 30
0
 10
152.9812275004114
 20
35.23251110742456
 30
0
 10
152.9032586540507
 20
35.11906573201468
 30
0
 10
152.8756878496331
 20
34.98935529540888
 30
0
  0
SPLINE
  5
16F
100
AcDbEntity
  8
0
  6
CONTINUOUS
 62
    7
370
   25
100
AcDbSpline
210
0
220
0
230
0
 70
    8
 71
    3
 72
    8
 73
    4
 74
    0
 42
1e-007
 43
1e-007
 40
0
 40
0
 40
0
 40
0
 40
1
 40
1
 40
1
 40
1
 10
150.1728358496331
 20
22.27343649540889
 30
0
 10
150.115422621558
 20
22.00332849392446
 30
0
 10
150.2878458031067
 20
21.73782007770818
 30
0
 10
150.5579538045911
 20
21.6804068496331
 30
0
  0
LWPOLYLINE
  5
170
100
AcDbEntity
  8
0
  6
CONTINUOUS
 62
    7
370
   25
100
AcDbPolyline
 90
    2
 70
    0
 43
0
 10
167.34596545
 20
40.54011275000001
 10
166.09849535
 20
34.67122714999999
  0
LWPOLYLINE
  5
171
100
AcDbEntity
  8
0
  6
CONTINUOUS
 62
    7
370
   25
100
AcDbPolyline
 90
    2
 70
    0
 43
0
 10
152.67375145
 20
43.65878815000001
 10
151.42628135
 20
37.78990254999999
  0
LWPOLYLINE
  5
172
100
AcDbEntity
  8
0
  6
CONTINUOUS
 62
    7
370
   25
100
AcDbPolyline
 90
    2
 70
    0
 43
0
 10
166.96084755
 20
41.13314245000001
 10
153.26678115
 20
44.04390605
  0
LWPOLYLINE
  5
173
100
AcDbEntity
  8
0
  6
CONTINUOUS
 62
    7
370
   25
100
AcDbPolyline
 90
    2
 70
    0
 43
0
 10
165.50546575
 20
34.28610925000001
 10
151.81139925
 20
37.19687285000001
  0
SPLINE
  5
174
100
AcDbEntity
  8
0
  6
CONTINUOUS
 62
    7
370
   25
100
AcDbSpline
210
0
220
0
230
0
 70
    8
 71
    3
 72
   11
 73
    7
 74
    0
 42
1e-007
 43
1e-007
 40
0
 40
0
 40
0
 40
0
 40
1
 40
1
 40
1
 40
2
 40
2
 40
2
 40
2
 10
167.3459654503669
 20
40.54011280459112
 30
0
 10
167.3735362547846
 20
40.66982324119694
 30
0
 10
167.3484505605209
 20
40.80517353542641
 30
0
 10
167.2762269339727
 20
40.91638816750753
 30
0
 10
167.2040033074246
 20
41.02760279958862
 30
0
 10
167.0905579320147
 20
41.10557164594927
 30
0
 10
166.9608474954089
 20
41.1331424503669
 30
0
  0
SPLINE
  5
175
100
AcDbEntity
  8
0
  6
CONTINUOUS
 62
    7
370
   25
100
AcDbSpline
210
0
220
0
230
0
 70
    8
 71
    3
 72
    8
 73
    4
 74
    0
 42
1e-007
 43
1e-007
 40
0
 40
0
 40
0
 40
0
 40
1
 40
1
 40
1
 40
1
 10
165.5054657045911
 20
34.2861092496331
 30
0
 10
165.7755737060756
 20
34.22869602155801
 30
0
 10
166.0410821222918
 20
34.4011192031067
 30
0
 10
166.0984953503669
 20
34.67122720459112
 30
0
  0
SPLINE
  5
176
100
AcDbEntity
  8
0
  6
CONTINUOUS
 62
    7
370
   25
100
AcDbSpline
210
0
220
0
230
0
 70
    8
 71
    3
 72
   11
 73
    7
 74
    0
 42
1e-007
 43
1e-007
 40
0
 40
0
 40
0
 40
0
 40
1
 40
1
 40
1
 40
2
 40
2
 40
2
 40
2
 10
153.2667810954089
 20
44.0439060503669
 30
0
 10
153.1370706588031
 20
44.07147685478456
 30
0
 10
153.0017203645736
 20
44.04639116052086
 30
0
 10
152.8905057324925
 20
43.97416753397272
 30
0
 10
152.7792911004114
 20
43.90194390742457
 30
0
 10
152.7013222540507
 20
43.78849853201469
 30
0
 10
152.6737514496331
 20
43.65878809540889
 30
0
  0
SPLINE
  5
177
100
AcDbEntity
  8
0
  6
CONTINUOUS
 62
    7
370
   25
100
AcDbSpline
210
0
220
0
230
0
 70
    8
 71
    3
 72
    8
 73
    4
 74
    0
 42
1e-007
 43
1e-007
 40
0
 40
0
 40
0
 40
0
 40
1
 40
1
 40
1
 40
1
 10
151.4262813496331
 20
37.78990249540888
 30
0
 10
151.368868121558
 20
37.51979449392445
 30
0
 10
151.5412913031067
 20
37.25428607770817
 30
0
 10
151.8113993045911
 20
37.1968728496331
 30
0
  0
LWPOLYLINE
  5
178
100
AcDbEntity
  8
0
  6
CONTINUOUS
 62
    7
370
   25
100
AcDbPolyline
 90
    2
 70
    0
 43
0
 10
162.38186595
 20
17.18586065
 10
161.13439585
 20
11.31697505
  0
LWPOLYLINE
  5
179
100
AcDbEntity
  8
0
  6
CONTINUOUS
 62
    7
370
   25
100
AcDbPolyline
 90
    2
 70
    0
 43
0
 10
147.70965195
 20
20.30453605
 10
146.46218185
 20
14.43565045
  0
LWPOLYLINE
  5
17A
100
AcDbEntity
  8
0
  6
CONTINUOUS
 62
    7
370
   25
100
AcDbPolyline
 90
    2
 70
    0
 43
0
 10
161.99674805
 20
17.77889025000002
 10
148.30268155
 20
20.68965394999999
  0
LWPOLYLINE
  5
17B
100
AcDbEntity
  8
0
  6
CONTINUOUS
 62
    7
370
   25
100
AcDbPolyline
 90
    2
 70
    0
 43
0
 10
160.54136615
 20
10.93185704999999
 10
146.84729975
 20
13.84262075000001
  0
SPLINE
  5
17C
100
AcDbEntity
  8
0
  6
CONTINUOUS
 62
    7
370
   25
100
AcDbSpline
210
0
220
0
230
0
 70
    8
 71
    3
 72
   11
 73
    7
 74
    0
 42
1e-007
 43
1e-007
 40
0
 40
0
 40
0
 40
0
 40
1
 40
1
 40
1
 40
2
 40
2
 40
2
 40
2
 10
162.3818659503669
 20
17.18586060459111
 30
0
 10
162.4094367547846
 20
17.31557104119693
 30
0
 10
162.3843510605209
 20
17.45092133542641
 30
0
 10
162.3121274339727
 20
17.56213596750752
 30
0
 10
162.2399038074246
 20
17.67335059958862
 30
0
 10
162.1264584320147
 20
17.75131944594926
 30
0
 10
161.9967479954089
 20
17.77889025036691
 30
0
  0
SPLINE
  5
17D
100
AcDbEntity
  8
0
  6
CONTINUOUS
 62
    7
370
   25
100
AcDbSpline
210
0
220
0
230
0
 70
    8
 71
    3
 72
    8
 73
    4
 74
    0
 42
1e-007
 43
1e-007
 40
0
 40
0
 40
0
 40
0
 40
1
 40
1
 40
1
 40
1
 10
160.5413662045911
 20
10.93185704963309
 30
0
 10
160.8114742060756
 20
10.87444382155797
 30
0
 10
161.0769826222918
 20
11.04686700310668
 30
0
 10
161.1343958503669
 20
11.31697500459109
 30
0
  0
SPLINE
  5
17E
100
AcDbEntity
  8
0
  6
CONTINUOUS
 62
    7
370
   25
100
AcDbSpline
210
0
220
0
230
0
 70
    8
 71
    3
 72
   11
 73
    7
 74
    0
 42
1e-007
 43
1e-007
 40
0
 40
0
 40
0
 40
0
 40
1
 40
1
 40
1
 40
2
 40
2
 40
2
 40
2
 10
148.3026815954089
 20
20.6896539503669
 30
0
 10
148.1729711588031
 20
20.71722475478455
 30
0
 10
148.0376208645736
 20
20.69213906052086
 30
0
 10
147.9264062324925
 20
20.61991543397272
 30
0
 10
147.8151916004114
 20
20.54769180742457
 30
0
 10
147.7372227540507
 20
20.43424643201467
 30
0
 10
147.7096519496331
 20
20.30453599540888
 30
0
  0
SPLINE
  5
17F
100
AcDbEntity
  8
0
  6
CONTINUOUS
 62
    7
370
   25
100
AcDbSpline
210
0
220
0
230
0
 70
    8
 71
    3
 72
    8
 73
    4
 74
    0
 42
1e-007
 43
1e-007
 40
0
 40
0
 40
0
 40
0
 40
1
 40
1
 40
1
 40
1
 10
146.4621818496331
 20
14.43565039540891
 30
0
 10
146.404768621558
 20
14.16554239392445
 30
0
 10
146.5771918031067
 20
13.9000339777082
 30
0
 10
146.8472998045911
 20
13.84262074963311
 30
0
  0
LWPOLYLINE
  5
180
100
AcDbEntity
  8
0
  6
CONTINUOUS
 62
    7
370
   25
100
AcDbPolyline
 90
    2
 70
    0
 43
0
 10
114.22093505
 20
33.97905285
 10
126.93685385
 20
31.27620085
  0
LWPOLYLINE
  5
181
100
AcDbEntity
  8
0
  6
CONTINUOUS
 62
    7
370
   25
100
AcDbPolyline
 90
    2
 70
    0
 43
0
 10
111.31017145
 20
20.28498644999996
 10
124.02609025
 20
17.58213445000001
  0
LWPOLYLINE
  5
182
100
AcDbEntity
  8
0
  6
CONTINUOUS
 62
    7
370
   25
100
AcDbPolyline
 90
    2
 70
    0
 43
0
 10
113.62790545
 20
33.59393485000001
 10
110.92505345
 20
20.87801605000001
  0
LWPOLYLINE
  5
183
100
AcDbEntity
  8
0
  6
CONTINUOUS
 62
    7
370
   25
100
AcDbPolyline
 90
    2
 70
    0
 43
0
 10
127.32197185
 20
30.68317125
 10
124.61911985
 20
17.96725245000002
  0
SPLINE
  5
184
100
AcDbEntity
  8
0
  6
CONTINUOUS
 62
    7
370
   25
100
AcDbSpline
210
0
220
0
230
0
 70
    8
 71
    3
 72
   11
 73
    7
 74
    0
 42
1e-007
 43
1e-007
 40
0
 40
0
 40
0
 40
0
 40
1
 40
1
 40
1
 40
2
 40
2
 40
2
 40
2
 10
114.2209350954089
 20
33.97905285036688
 30
0
 10
114.0912246588031
 20
34.00662365478455
 30
0
 10
113.9558743645736
 20
33.98153796052084
 30
0
 10
113.8446597324925
 20
33.9093143339727
 30
0
 10
113.7334451004114
 20
33.83709070742455
 30
0
 10
113.6554762540508
 20
33.72364533201467
 30
0
 10
113.6279054496331
 20
33.59393489540888
 30
0
  0
SPLINE
  5
185
100
AcDbEntity
  8
0
  6
CONTINUOUS
 62
    7
370
   25
100
AcDbSpline
210
0
220
0
230
0
 70
    8
 71
    3
 72
   11
 73
    7
 74
    0
 42
1e-007
 43
1e-007
 40
0
 40
0
 40
0
 40
0
 40
1
 40
1
 40
1
 40
2
 40
2
 40
2
 40
2
 10
127.3219718503669
 20
30.68317120459112
 30
0
 10
127.3495426547846
 20
30.81288164119692
 30
0
 10
127.3244569605209
 20
30.94823193542641
 30
0
 10
127.2522333339727
 20
31.05944656750752
 30
0
 10
127.1800097074246
 20
31.17066119958862
 30
0
 10
127.0665643320147
 20
31.24863004594927
 30
0
 10
126.9368538954089
 20
31.27620085036691
 30
0
  0
SPLINE
  5
186
100
AcDbEntity
  8
0
  6
CONTINUOUS
 62
    7
370
   25
100
AcDbSpline
210
0
220
0
230
0
 70
    8
 71
    3
 72
    8
 73
    4
 74
    0
 42
1e-007
 43
1e-007
 40
0
 40
0
 40
0
 40
0
 40
1
 40
1
 40
1
 40
1
 10
110.9250534496331
 20
20.87801609540888
 30
0
 10
110.867640221558
 20
20.60790809392445
 30
0
 10
111.0400634031067
 20
20.34239967770816
 30
0
 10
111.3101714045911
 20
20.2849864496331
 30
0
  0
SPLINE
  5
187
100
AcDbEntity
  8
0
  6
CONTINUOUS
 62
    7
370
   25
100
AcDbSpline
210
0
220
0
230
0
 70
    8
 71
    3
 72
    8
 73
    4
 74
    0
 42
1e-007
 43
1e-007
 40
0
 40
0
 40
0
 40
0
 40
1
 40
1
 40
1
 40
1
 10
124.0260902045911
 20
17.58213444963312
 30
0
 10
124.2961982060756
 20
17.524721221558
 30
0
 10
124.5617066222918
 20
17.69714440310671
 30
0
 10
124.6191198503669
 20
17.96725240459111
 30
0
  0
LINE
  5
188
100
AcDbEntity
  8
Anchor
  6
ByLayer
 62
  256
370
   -1
100
AcDbLine
 10
24.93851405000001
 20
121.42713485
 11
38.93851405000001
 21
121.42713485
  0
LINE
  5
189
100
AcDbEntity
  8
Anchor
  6
ByLayer
 62
  256
370
   -1
100
AcDbLine
 10
31.93851405000001
 20
128.42713485
 11
31.93851405000001
 21
114.42713485
  0
LINE
  5
18A
100
AcDbEntity
  8
Anchor
  6
ByLayer
 62
  256
370
   -1
100
AcDbLine
 10
63.03851405000001
 20
130.95213485
 11
77.03851405
 21
130.95213485
  0
LINE
  5
18B
100
AcDbEntity
  8
Anchor
  6
ByLayer
 62
  256
370
   -1
100
AcDbLine
 10
70.03851405
 20
137.95213485
 11
70.03851405
 21
123.95213485
  0
LINE
  5
18C
100
AcDbEntity
  8
Anchor
  6
ByLayer
 62
  256
370
   -1
100
AcDbLine
 10
89.08851405000001
 20
137.95213485
 11
89.08851405000001
 21
123.95213485
  0
LWPOLYLINE
  5
18D
100
AcDbEntity
  8
Plate
  6
ByLayer
 62
  256
370
   -1
100
AcDbPolyline
 90
   14
 70
    1
 43
0
 10
62.03851405000001
 20
144.95213485
 10
103.5078682994924
 20
144.95213485
 42
0.414213562373095
 10
107.5078682994924
 20
148.95213485
 10
107.5078682994924
 20
155.95213485
 42
0.414213562373095
 10
103.5078682994924
 20
159.95213485
 10
19.17601405000001
 20
159.95213485
 42
0.414213562373095
 10
15.17601405000001
 20
155.95213485
 10
15.17601405000001
 20
145.5033433489847
 42
0.1989123673796579
 10
16.34758692525382
 20
142.6749162242386
 10
22.42379542423861
 20
136.5987077252538
 42
0.1989123673796543
 10
25.25222254898476
 20
135.42713485
 10
54.03851405000002
 20
135.42713485
 42
0.414213562373095
 10
56.03851405000002
 20
137.42713485
 10
56.03851405000001
 20
138.95213485
 42
-0.414213562373095
  0
CIRCLE
  5
18E
100
AcDbEntity
  8
Anchor
  6
ByLayer
 62
  256
370
   -1
100
AcDbCircle
 10
19.56514323595515
 20
121.3556020979068
 40
2
  0
CIRCLE
  5
18F
100
AcDbEntity
  8
Anchor
  6
ByLayer
 62
  256
370
   -1
100
AcDbCircle
 10
19.72201888155262
 20
46.79801090537909
 40
2
  0
CIRCLE
  5
190
100
AcDbEntity
  8
Anchor
  6
ByLayer
 62
  256
370
   -1
100
AcDbCircle
 10
171.0914350057566
 20
44.11839396249462
 40
2
  0
CIRCLE
  5
191
100
AcDbEntity
  8
Anchor
  6
ByLayer
 62
  256
370
   -1
100
AcDbCircle
 10
162.6768398520109
 20
6.369876259265489
 40
2
  0
CIRCLE
  5
192
100
AcDbEntity
  8
Anchor
  6
ByLayer
 62
  256
370
   -1
100
AcDbCircle
 10
103.3879915926937
 20
23.12755072594855
 40
2
  0
CIRCLE
  5
193
100
AcDbEntity
  8
Anchor
  6
ByLayer
 62
  256
370
   -1
100
AcDbCircle
 10
126.711538511235
 20
57.03489204450022
 40
2
  0
CIRCLE
  5
194
100
AcDbEntity
  8
Anchor
  6
ByLayer
 62
  256
370
   -1
100
AcDbCircle
 10
156.5029597853382
 20
112.207820259369
 40
2
  0
CIRCLE
  5
195
100
AcDbEntity
  8
Anchor
  6
ByLayer
 62
  256
370
   -1
100
AcDbCircle
 10
156.5029597853382
 20
73.98856270377607
 40
2
  0
CIRCLE
  5
196
100
AcDbEntity
  8
Anchor
  6
ByLayer
 62
  256
370
   -1
100
AcDbCircle
 10
79.56351405000001
 20
121.42713485
 40
2
  0
CIRCLE
  5
197
100
AcDbEntity
  8
Anchor
  6
ByLayer
 62
  256
370
   -1
100
AcDbCircle
 10
39.08226405000001
 20
92.85213485
 40
2
  0
CIRCLE
  5
198
100
AcDbEntity
  8
Anchor
  6
ByLayer
 62
  256
370
   -1
100
AcDbCircle
 10
117.66351405
 20
116.66463485
 40
2
  0
CIRCLE
  5
199
100
AcDbEntity
  8
Anchor
  6
ByLayer
 62
  256
370
   -1
100
AcDbCircle
 10
79.690202950951
 20
57.06917316689595
 40
2
  0
LINE
  5
19A
100
AcDbEntity
  8
Plate
  6
ByLayer
 62
  256
370
   -1
100
AcDbLine
 10
58.03851405000001
 20
137.42713485
 11
58.03851405000001
 21
138.95213485
  0
ARC
  5
19B
100
AcDbEntity
  8
Plate
  6
ByLayer
 62
  256
370
   -1
100
AcDbCircle
 10
62.03851405000001
 20
138.95213485
 40
4.000000000000001
100
AcDbArc
 50
90
 51
180
  0
LINE
  5
19C
100
AcDbEntity
  8
Plate
  6
ByLayer
 62
  256
370
   -1
100
AcDbLine
 10
62.03851405000001
 20
142.95213485
 11
99.43165980050765
 21
142.95213485
  0
ARC
  5
19D
100
AcDbEntity
  8
Plate
  6
ByLayer
 62
  256
370
   -1
100
AcDbCircle
 10
99.43165980050766
 20
138.9521348500001
 40
3.999999999999918
100
AcDbArc
 50
44.99999999999986
 51
90.0000000000002
  0
LINE
  5
19E
100
AcDbEntity
  8
Plate
  6
ByLayer
 62
  256
370
   -1
100
AcDbLine
 10
102.2600869252538
 20
141.7805619747462
 11
104.6794411747462
 21
139.3612077252538
  0
ARC
  5
19F
100
AcDbEntity
  8
Plate
  6
ByLayer
 62
  256
370
   -1
100
AcDbCircle
 10
107.5078682994924
 20
142.18963485
 40
3.999999999999972
100
AcDbArc
 50
225.0000000000003
 51
270.0000000000006
  0
LINE
  5
1A0
100
AcDbEntity
  8
Plate
  6
ByLayer
 62
  256
370
   -1
100
AcDbLine
 10
107.5078682994924
 20
138.18963485
 11
135.5316598005077
 21
138.18963485
  0
ARC
  5
1A1
100
AcDbEntity
  8
Plate
  6
ByLayer
 62
  256
370
   -1
100
AcDbCircle
 10
135.5316598005077
 20
134.18963485
 40
3.999999999999973
100
AcDbArc
 50
44.99999999999972
 51
90.00000000000041
  0
LINE
  5
1A2
100
AcDbEntity
  8
Plate
  6
ByLayer
 62
  256
370
   -1
100
AcDbLine
 10
138.3600869252539
 20
137.0180619747462
 11
142.7794411747462
 21
132.5987077252538
  0
ARC
  5
1A3
100
AcDbEntity
  8
Plate
  6
ByLayer
 62
  256
370
   -1
100
AcDbCircle
 10
145.6078682994924
 20
135.42713485
 40
3.999999999999996
100
AcDbArc
 50
225
 51
270
  0
ARC
  5
1A4
100
AcDbEntity
  8
Plate
  6
ByLayer
 62
  256
370
   -1
100
AcDbCircle
 10
23.59536829949239
 20
39.22713485
 40
3.999999999999999
100
AcDbArc
 50
225.0000000000001
 51
270.0000000000001
  0
LINE
  5
1A5
100
AcDbEntity
  8
Plate
  6
ByLayer
 62
  256
370
   -1
100
AcDbLine
 10
20.7669411747462
 20
36.39870772525381
 11
9.316336925253808
 21
47.8493119747462
  0
ARC
  5
1A6
100
AcDbEntity
  8
Plate
  6
ByLayer
 62
  256
370
   -1
100
AcDbCircle
 10
12.14476405
 20
50.67773909949238
 40
3.999999999999996
100
AcDbArc
 50
180.0000000000001
 51
224.9999999999999
  0
LINE
  5
1A7
100
AcDbEntity
  8
Plate
  6
ByLayer
 62
  256
370
   -1
100
AcDbLine
 10
8.144764050000003
 20
50.67773909949238
 11
8.144764049999999
 21
117.9765306005076
  0
ARC
  5
1A8
100
AcDbEntity
  8
Plate
  6
ByLayer
 62
  256
370
   -1
100
AcDbCircle
 10
12.14476405000001
 20
117.9765306005076
 40
4.000000000000006
100
AcDbArc
 50
135.0000000000002
 51
180.0000000000002
  0
LINE
  5
1A9
100
AcDbEntity
  8
Plate
  6
ByLayer
 62
  256
370
   -1
100
AcDbLine
 10
9.316336925253804
 20
120.8049577252538
 11
20.7669411747462
 21
132.2555619747462
  0
ARC
  5
1AA
100
AcDbEntity
  8
Plate
  6
ByLayer
 62
  256
370
   -1
100
AcDbCircle
 10
23.59536829949237
 20
129.42713485
 40
4.000000000000002
100
AcDbArc
 50
89.99999999999984
 51
134.9999999999996
  0
LINE
  5
1AB
100
AcDbEntity
  8
Plate
  6
ByLayer
 62
  256
370
   -1
100
AcDbLine
 10
23.59536829949238
 20
133.42713485
 11
54.03851405000002
 21
133.42713485
  0
ARC
  5
1AC
100
AcDbEntity
  8
Plate
  6
ByLayer
 62
  256
370
   -1
100
AcDbCircle
 10
54.03851405000002
 20
137.42713485
 40
3.999999999999997
100
AcDbArc
 50
270
 51
0
  0
LINE
  5
1AD
100
AcDbEntity
  8
Plate
  6
ByLayer
 62
  256
370
   -1
100
AcDbLine
 10
145.6078682994924
 20
131.42713485
 11
155.23851405
 21
131.42713485
  0
ARC
  5
1AE
100
AcDbEntity
  8
Plate
  6
ByLayer
 62
  256
370
   -1
100
AcDbCircle
 10
155.23851405
 20
127.42713485
 40
4
100
AcDbArc
 50
0
 51
90
  0
LINE
  5
1AF
100
AcDbEntity
  8
Plate
  6
ByLayer
 62
  256
370
   -1
100
AcDbLine
 10
159.23851405
 20
127.42713485
 11
159.23851405
 21
53.25903900876155
  0
ARC
  5
1B0
100
AcDbEntity
  8
Plate
  6
ByLayer
 62
  256
370
   -1
100
AcDbCircle
 10
163.23851405
 20
53.25903900876155
 40
4
100
AcDbArc
 50
180
 51
257.9999999077571
  0
LINE
  5
1B1
100
AcDbEntity
  8
Case
  6
ByLayer
 62
  256
370
   -1
100
AcDbLine
 10
159.23851405
 20
127.92713485
 11
159.23851405
 21
114.92713485
  0
LWPOLYLINE
  5
1B2
100
AcDbEntity
  8
PCB
  6
ByLayer
 62
  256
370
   -1
100
AcDbPolyline
 90
   32
 70
    1
 43
0
 10
159.23851405
 20
53.25903900876153
 42
0.3541185720777414
 10
162.4068672804299
 20
49.34644860716521
 10
170.8796867150853
 20
47.54549522622694
 42
-0.414213562373095
 10
173.9606303471115
 20
42.80125805506054
 10
166.2575021483576
 20
6.560889480923143
 42
-0.4142135623730924
 10
161.5132649771912
 20
3.479945848896904
 10
107.7981467334611
 20
14.89744678286793
 42
-0.1449930990806894
 10
105.801366378285
 20
15.98161005971807
 10
87.72741446325693
 20
34.05556197474617
 42
0.1989123673796581
 10
84.89898733851074
 20
35.22713484999999
 10
23.5953682994924
 20
35.22713485000001
 42
-0.1989123673796576
 10
20.7669411747462
 20
36.39870772525381
 10
9.316336925253811
 20
47.84931197474621
 42
-0.1989123673796568
 10
8.144764050000003
 20
50.67773909949238
 10
8.144764050000004
 20
117.9765306005076
 42
-0.1989123673796582
 10
9.316336925253809
 20
120.8049577252538
 10
20.76694117474621
 20
132.2555619747461
 42
-0.1989123673796559
 10
23.59536829949238
 20
133.42713485
 10
54.03851405
 20
133.42713485
 42
0.414213562373095
 10
58.03851405
 20
137.42713485
 10
58.03851405
 20
155.95213485
 42
-0.414213562373095
 10
62.03851405
 20
159.95213485
 10
97.08851404999984
 20
159.95213485
 42
-0.4142135623730929
 10
101.0885140499999
 20
155.95213485
 10
101.08851405
 20
142.18963485
 42
0.414213562373095
 10
105.08851405
 20
138.18963485
 10
135.5316598005077
 20
138.18963485
 42
-0.1989123673796604
 10
138.3600869252539
 20
137.0180619747462
 10
142.7794411747462
 20
132.5987077252538
 42
0.198912367379658
 10
145.6078682994924
 20
131.42713485
 10
155.23851405
 20
131.42713485
 42
-0.4142135623730961
 10
159.23851405
 20
127.42713485
  0
ARC
  5
1B3
100
AcDbEntity
  8
Case
  6
ByLayer
 62
  256
370
   -1
100
AcDbCircle
 10
111.5078682994924
 20
142.18963485
 40
4.000000000000001
100
AcDbArc
 50
180
 51
270
  0
LINE
  5
1B4
100
AcDbEntity
  8
Case
  6
ByLayer
 62
  256
370
   -1
100
AcDbLine
 10
107.5078682994924
 20
142.18963485
 11
107.5078682994924
 21
155.95213485
  0
ARC
  5
1B5
100
AcDbEntity
  8
Case
  6
ByLayer
 62
  256
370
   -1
100
AcDbCircle
 10
103.5078682994924
 20
155.95213485
 40
4.000000000000001
100
AcDbArc
 50
0
 51
90
  0
LINE
  5
1B6
100
AcDbEntity
  8
Case
  6
ByLayer
 62
  256
370
   -1
100
AcDbLine
 10
103.5078682994924
 20
159.95213485
 11
19.17601405000001
 21
159.95213485
  0
ARC
  5
1B7
100
AcDbEntity
  8
Case
  6
ByLayer
 62
  256
370
   -1
100
AcDbCircle
 10
19.17601405000001
 20
155.95213485
 40
4.000000000000001
100
AcDbArc
 50
90
 51
180
  0
LINE
  5
1B8
100
AcDbEntity
  8
Case
  6
ByLayer
 62
  256
370
   -1
100
AcDbLine
 10
15.17601405000001
 20
155.95213485
 11
15.17601405
 21
149.6089890994923
  0
ARC
  5
1B9
100
AcDbEntity
  8
Case
  6
ByLayer
 62
  256
370
   -1
100
AcDbCircle
 10
11.17601404999997
 20
149.6089890994923
 40
4.000000000000028
100
AcDbArc
 50
314.9999999999999
 51
0
  0
LINE
  5
1BA
100
AcDbEntity
  8
Case
  6
ByLayer
 62
  256
370
   -1
100
AcDbLine
 10
14.00444117474618
 20
146.7805619747461
 11
9.316336925253802
 21
142.0924577252538
  0
ARC
  5
1BB
100
AcDbEntity
  8
Case
  6
ByLayer
 62
  256
370
   -1
100
AcDbCircle
 10
12.14476405000001
 20
139.2640306005076
 40
4.000000000000009
100
AcDbArc
 50
135.0000000000002
 51
180.0000000000004
  0
LINE
  5
1BC
100
AcDbEntity
  8
Case
  6
ByLayer
 62
  256
370
   -1
100
AcDbLine
 10
8.144764049999999
 20
139.2640306005076
 11
8.144764049999999
 21
50.67773909949238
  0
ARC
  5
1BD
100
AcDbEntity
  8
Case
  6
ByLayer
 62
  256
370
   -1
100
AcDbCircle
 10
12.14476405
 20
50.67773909949239
 40
3.999999999999997
100
AcDbArc
 50
180.0000000000002
 51
225.0000000000001
  0
LINE
  5
1BE
100
AcDbEntity
  8
Case
  6
ByLayer
 62
  256
370
   -1
100
AcDbLine
 10
9.316336925253811
 20
47.8493119747462
 11
20.7669411747462
 21
36.39870772525381
  0
ARC
  5
1BF
100
AcDbEntity
  8
Case
  6
ByLayer
 62
  256
370
   -1
100
AcDbCircle
 10
23.59536829949239
 20
39.22713485
 40
3.999999999999999
100
AcDbArc
 50
225
 51
270
  0
LINE
  5
1C0
100
AcDbEntity
  8
Case
  6
ByLayer
 62
  256
370
   -1
100
AcDbLine
 10
155.23851405
 20
138.18963485
 11
111.5078682994924
 21
138.18963485
  0
ARC
  5
1C1
100
AcDbEntity
  8
Case
  6
ByLayer
 62
  256
370
   -1
100
AcDbCircle
 10
155.23851405
 20
134.18963485
 40
4
100
AcDbArc
 50
0
 51
90
  0
LINE
  5
1C2
100
AcDbEntity
  8
Plate
  6
ByLayer
 62
  256
370
   -1
100
AcDbLine
 10
162.4068672804299
 20
49.34644860716522
 11
170.8796867150852
 21
47.54549522622693
  0
ARC
  5
1C3
100
AcDbEntity
  8
Plate
  6
ByLayer
 62
  256
370
   -1
100
AcDbCircle
 10
170.0480399455151
 20
43.63290482463061
 40
4
100
AcDbArc
 50
347.9999999077572
 51
77.99999990775707
  0
ARC
  5
1C4
100
AcDbEntity
  8
Case
  6
ByLayer
 62
  256
370
   -1
100
AcDbCircle
 10
161.23851405
 20
106.2202806005077
 40
4
100
AcDbArc
 50
0
 51
45
  0
LINE
  5
1C5
100
AcDbEntity
  8
Case
  6
ByLayer
 62
  256
370
   -1
100
AcDbLine
 10
159.23851405
 20
134.18963485
 11
159.23851405
 21
115.5339890994924
  0
LINE
  5
1C6
100
AcDbEntity
  8
Case
  6
ByLayer
 62
  256
370
   -1
100
AcDbLine
 10
164.0669411747461
 20
109.0487077252539
 11
160.4100869252538
 21
112.7055619747462
  0
ARC
  5
1C7
100
AcDbEntity
  8
Case
  6
ByLayer
 62
  256
370
   -1
100
AcDbCircle
 10
163.23851405
 20
115.5339890994924
 40
4
100
AcDbArc
 50
180
 51
224.9999999999999
  0
LINE
  5
1C8
100
AcDbEntity
  8
Plate
  6
ByLayer
 62
  256
370
   -1
100
AcDbLine
 10
84.89898733851074
 20
35.22713485
 11
23.59536829949239
 21
35.22713485
  0
ARC
  5
1C9
100
AcDbEntity
  8
Plate
  6
ByLayer
 62
  256
370
   -1
100
AcDbCircle
 10
84.89898733851074
 20
31.22713485
 40
4
100
AcDbArc
 50
45
 51
90
  0
LINE
  5
1CA
100
AcDbEntity
  8
Plate
  6
ByLayer
 62
  256
370
   -1
100
AcDbLine
 10
105.8013663782851
 20
15.98161005971805
 11
87.72741446325692
 21
34.05556197474618
  0
ARC
  5
1CB
100
AcDbEntity
  8
Plate
  6
ByLayer
 62
  256
370
   -1
100
AcDbCircle
 10
108.6297935030313
 20
18.81003718446424
 40
4
100
AcDbArc
 50
225
 51
257.9999999077575
  0
LINE
  5
1CC
100
AcDbEntity
  8
Plate
  6
ByLayer
 62
  256
370
   -1
100
AcDbLine
 10
173.9606303471114
 20
42.80125805506054
 11
166.2575021483576
 21
6.560889480923144
  0
LINE
  5
1CD
100
AcDbEntity
  8
Plate
  6
ByLayer
 62
  256
370
   -1
100
AcDbLine
 10
107.7981467334612
 20
14.89744678286792
 11
161.5132649771912
 21
3.479945848896902
  0
ARC
  5
1CE
100
AcDbEntity
  8
Plate
  6
ByLayer
 62
  256
370
   -1
100
AcDbCircle
 10
162.3449117467613
 20
7.392536250493223
 40
4
100
AcDbArc
 50
257.9999999077575
 51
347.9999999077572
  0
LINE
  5
1CF
100
AcDbEntity
  8
Case
  6
ByLayer
 62
  256
370
   -1
100
AcDbLine
 10
23.59536829949239
 20
35.22713485
 11
84.89898733851075
 21
35.22713484999999
  0
ARC
  5
1D0
100
AcDbEntity
  8
Case
  6
ByLayer
 62
  256
370
   -1
100
AcDbCircle
 10
84.89898733851075
 20
31.22713484999999
 40
4
100
AcDbArc
 50
45
 51
90
  0
LINE
  5
1D1
100
AcDbEntity
  8
Case
  6
ByLayer
 62
  256
370
   -1
100
AcDbLine
 10
105.8013663782851
 20
15.98161005971806
 11
87.72741446325693
 21
34.05556197474618
  0
ARC
  5
1D2
100
AcDbEntity
  8
Case
  6
ByLayer
 62
  256
370
   -1
100
AcDbCircle
 10
108.6297935030312
 20
18.81003718446425
 40
4
100
AcDbArc
 50
225
 51
257.9999999077573
  0
LINE
  5
1D3
100
AcDbEntity
  8
Case
  6
ByLayer
 62
  256
370
   -1
100
AcDbLine
 10
107.7981467334612
 20
14.89744678286792
 11
161.5132649771912
 21
3.479945848896907
  0
ARC
  5
1D4
100
AcDbEntity
  8
Case
  6
ByLayer
 62
  256
370
   -1
100
AcDbCircle
 10
162.3449117467613
 20
7.392536250493224
 40
4
100
AcDbArc
 50
257.9999999077575
 51
347.9999999077572
  0
LINE
  5
1D5
100
AcDbEntity
  8
Case
  6
ByLayer
 62
  256
370
   -1
100
AcDbLine
 10
166.2575021483576
 20
6.560889480923142
 11
173.9606303471114
 21
42.80125805506054
  0
ARC
  5
1D6
100
AcDbEntity
  8
Case
  6
ByLayer
 62
  256
370
   -1
100
AcDbCircle
 10
170.0480399455151
 20
43.63290482463062
 40
4
100
AcDbArc
 50
347.9999999077571
 51
77.99999990775707
  0
LINE
  5
1D7
100
AcDbEntity
  8
Case
  6
ByLayer
 62
  256
370
   -1
100
AcDbLine
 10
168.4068672804299
 20
48.07110922704903
 11
170.8796867150852
 21
47.54549522622694
  0
LINE
  5
1D8
100
AcDbEntity
  8
Case
  6
ByLayer
 62
  256
370
   -1
100
AcDbLine
 10
165.23851405
 20
106.2202806005077
 11
165.23851405
 21
51.98369962864535
  0
ARC
  5
1D9
100
AcDbEntity
  8
Case
  6
ByLayer
 62
  256
370
   -1
100
AcDbCircle
 10
169.23851405
 20
51.98369962864535
 40
4
100
AcDbArc
 50
180
 51
257.9999999077575
  0
ENDSEC
  0
SECTION
  2
OBJECTS
  0
DICTIONARY
  5
C
330
0
100
AcDbDictionary
281
    1
  3
ACAD_GROUP
350
D
  0
DICTIONARY
  5
D
330
C
100
AcDbDictionary
281
    1
  0
ENDSEC
  0
EOF
