999
dxfrw 0.6.3
  0
SECTION
  2
HEADER
  9
$ACADVER
  1
AC1021
  9
$DWGCODEPAGE
  3
ANSI_1252
  9
$INSBASE
 10
0
 20
0
 30
0
  9
$EXTMIN
 10
8.144764049999999
 20
7.455594000814056
 30
0
  9
$EXTMAX
 10
207.23851405
 20
140.95213485
 30
0
  9
$LIMMIN
 10
0
 20
0
  9
$LIMMAX
 10
420
 20
297
  9
$ORTHOMODE
 70
    0
  9
$REGENMODE
 70
    1
  9
$FILLMODE
 70
    1
  9
$QTEXTMODE
 70
    0
  9
$MIRRTEXT
 70
    1
  9
$LTSCALE
 40
1
  9
$ATTMODE
 70
    1
  9
$TEXTSIZE
 40
2.5
  9
$TRACEWID
 40
1
  9
$TEXTSTYLE
  7
Standard
  9
$CLAYER
  8
Cuts
  9
$CELTYPE
  6
ByLayer
  9
$CECOLOR
 62
  256
  9
$CELTSCALE
 40
1
  9
$DISPSILH
 70
    0
  9
$DIMSCALE
 40
1
  9
$DIMASZ
 40
2.5
  9
$DIMEXO
 40
0.625
  9
$DIMDLI
 40
3.75
  9
$DIMRND
 40
0
  9
$DIMDLE
 40
0
  9
$DIMEXE
 40
1.25
  9
$DIMTP
 40
0
  9
$DIMTM
 40
0
  9
$DIMTXT
 40
2.5
  9
$DIMCEN
 40
2.5
  9
$DIMTSZ
 40
0
  9
$DIMTOL
 70
    0
  9
$DIMLIM
 70
    0
  9
$DIMTIH
 70
    0
  9
$DIMTOH
 70
    0
  9
$DIMSE1
 70
    0
  9
$DIMSE2
 70
    0
  9
$DIMTAD
 70
    1
  9
$DIMZIN
 70
    8
  9
$DIMBLK
  1

  9
$DIMASO
 70
    1
  9
$DIMSHO
 70
    1
  9
$DIMPOST
  1

  9
$DIMAPOST
  1

  9
$DIMALT
 70
    0
  9
$DIMALTD
 70
    3
  9
$DIMALTF
 40
0.03937007874016
  9
$DIMLFAC
 40
1
  9
$DIMTOFL
 70
    1
  9
$DIMTVP
 40
0
  9
$DIMTIX
 70
    0
  9
$DIMSOXD
 70
    0
  9
$DIMSAH
 70
    0
  9
$DIMBLK1
  1

  9
$DIMBLK2
  1

  9
$DIMSTYLE
  2
ISO-25
  9
$DIMCLRD
 70
    0
  9
$DIMCLRE
 70
    0
  9
$DIMCLRT
 70
    0
  9
$DIMTFAC
 40
1
  9
$DIMGAP
 40
0.625
  9
$DIMJUST
 70
    0
  9
$DIMSD1
 70
    0
  9
$DIMSD2
 70
    0
  9
$DIMTOLJ
 70
    0
  9
$DIMTZIN
 70
    8
  9
$DIMALTZ
 70
    0
  9
$DIMALTTZ
 70
    0
  9
$DIMUPT
 70
    0
  9
$DIMDEC
 70
    2
  9
$DIMTDEC
 70
    2
  9
$DIMALTU
 70
    2
  9
$DIMALTTD
 70
    3
  9
$DIMTXSTY
  7
Standard
  9
$DIMAUNIT
 70
    0
  9
$DIMADEC
 70
    0
  9
$DIMALTRND
 40
0
  9
$DIMAZIN
 70
    0
  9
$DIMDSEP
 70
   44
  9
$DIMATFIT
 70
    3
  9
$DIMFRAC
 70
    0
  9
$DIMLDRBLK
  1

  9
$DIMLUNIT
 70
    2
  9
$DIMLWD
 70
   -2
  9
$DIMLWE
 70
   -2
  9
$DIMTMOVE
 70
    0
  9
$DIMFXL
 40
1
  9
$DIMFXLON
 70
    0
  9
$DIMJOGANG
 40
0.7853981633974483
  9
$DIMTFILL
 70
    0
  9
$DIMTFILLCLR
 70
    0
  9
$DIMARCSYM
 70
    0
  9
$DIMLTYPE
  6

  9
$DIMLTEX1
  6

  9
$DIMLTEX2
  6

  9
$LUNITS
 70
    2
  9
$LUPREC
 70
    4
  9
$SKETCHINC
 40
1
  9
$FILLETRAD
 40
0
  9
$AUNITS
 70
    0
  9
$AUPREC
 70
    0
  9
$MENU
  1
.
  9
$ELEVATION
 40
0
  9
$PELEVATION
 40
0
  9
$THICKNESS
 40
0
  9
$LIMCHECK
 70
    0
  9
$CHAMFERA
 40
0
  9
$CHAMFERB
 40
0
  9
$CHAMFERC
 40
0
  9
$CHAMFERD
 40
0
  9
$SKPOLY
 70
    0
  9
$USRTIMER
 70
    1
  9
$ANGBASE
 50
0
  9
$ANGDIR
 70
    0
  9
$PDMODE
 70
    0
  9
$PDSIZE
 40
0
  9
$PLINEWID
 40
0
  9
$SPLFRAME
 70
    0
  9
$SPLINETYPE
 70
    6
  9
$SPLINESEGS
 70
    8
  9
$HANDSEED
  5
20000
  9
$SURFTAB1
 70
    6
  9
$SURFTAB2
 70
    6
  9
$SURFTYPE
 70
    6
  9
$SURFU
 70
    6
  9
$SURFV
 70
    6
  9
$UCSBASE
  2

  9
$UCSNAME
  2

  9
$UCSORG
 10
0
 20
0
 30
0
  9
$UCSXDIR
 10
1
 20
0
 30
0
  9
$UCSYDIR
 10
0
 20
1
 30
0
  9
$UCSORTHOREF
  2

  9
$UCSORTHOVIEW
 70
    0
  9
$UCSORGTOP
 10
0
 20
0
 30
0
  9
$UCSORGBOTTOM
 10
0
 20
0
 30
0
  9
$UCSORGLEFT
 10
0
 20
0
 30
0
  9
$UCSORGRIGHT
 10
0
 20
0
 30
0
  9
$UCSORGFRONT
 10
0
 20
0
 30
0
  9
$UCSORGBACK
 10
0
 20
0
 30
0
  9
$PUCSBASE
  2

  9
$PUCSNAME
  2

  9
$PUCSORG
 10
0
 20
0
 30
0
  9
$PUCSXDIR
 10
1
 20
0
 30
0
  9
$PUCSYDIR
 10
0
 20
1
 30
0
  9
$PUCSORTHOREF
  2

  9
$PUCSORTHOVIEW
 70
    0
  9
$PUCSORGTOP
 10
0
 20
0
 30
0
  9
$PUCSORGBOTTOM
 10
0
 20
0
 30
0
  9
$PUCSORGLEFT
 10
0
 20
0
 30
0
  9
$PUCSORGRIGHT
 10
0
 20
0
 30
0
  9
$PUCSORGFRONT
 10
0
 20
0
 30
0
  9
$PUCSORGBACK
 10
0
 20
0
 30
0
  9
$USERI1
 70
    0
  9
$USERI2
 70
    0
  9
$USERI3
 70
    0
  9
$USERI4
 70
    0
  9
$USERI5
 70
    0
  9
$USERR1
 40
0
  9
$USERR2
 40
0
  9
$USERR3
 40
0
  9
$USERR4
 40
0
  9
$USERR5
 40
0
  9
$WORLDVIEW
 70
    1
  9
$SHADEDGE
 70
    3
  9
$SHADEDIF
 70
   70
  9
$TILEMODE
 70
    1
  9
$MAXACTVP
 70
   64
  9
$PINSBASE
 10
0
 20
0
 30
0
  9
$PLIMCHECK
 70
    0
  9
$PEXTMIN
 10
148.6031489
 20
176.0223091
 30
0
  9
$PEXTMAX
 10
0
 20
0
 30
0
  9
$GRIDMODE
 70
    0
  9
$SNAPSTYLE
 70
    0
  9
$PLIMMIN
 10
-20
 20
-7.5
  9
$PLIMMAX
 10
277
 20
202.5
  9
$UNITMODE
 70
    0
  9
$VISRETAIN
 70
    1
  9
$PLINEGEN
 70
    0
  9
$PSLTSCALE
 70
    1
  9
$TREEDEPTH
 70
 3020
  9
$CMLSTYLE
  2
Standard
  9
$CMLJUST
 70
    0
  9
$CMLSCALE
 40
20
  9
$PROXYGRAPHICS
 70
    1
  9
$MEASUREMENT
 70
    1
  9
$CELWEIGHT
370
   -1
  9
$ENDCAPS
280
    0
  9
$JOINSTYLE
280
    0
  9
$LWDISPLAY
290
    0
  9
$INSUNITS
 70
    4
  9
$HYPERLINKBASE
  1

  9
$STYLESHEET
  1

  9
$XEDIT
290
    1
  9
$CEPSNTYPE
380
    0
  9
$PSTYLEMODE
290
    1
  9
$EXTNAMES
290
    1
  9
$PSVPSCALE
 40
0
  9
$OLESTARTUP
290
    0
  9
$SORTENTS
280
  127
  9
$INDEXCTL
280
    0
  9
$HIDETEXT
280
    1
  9
$XCLIPFRAME
290
    2
  9
$HALOGAP
280
    0
  9
$OBSCOLOR
 70
  257
  9
$OBSLTYPE
280
    0
  9
$INTERSECTIONDISPLAY
280
    0
  9
$INTERSECTIONCOLOR
 70
  257
  9
$DIMASSOC
280
    2
  9
$PROJECTNAME
  1

  9
$CAMERADISPLAY
290
    0
  9
$LENSLENGTH
 40
50
  9
$CAMERAHEIGHT
 40
0
  9
$STEPSPERSEC
 40
2
  9
$STEPSIZE
 40
6
  9
$3DDWFPREC
 40
2
  9
$PSOLWIDTH
 40
5
  9
$PSOLHEIGHT
 40
80
  9
$LOFTANG1
 40
1.570796326794897
  9
$LOFTANG2
 40
1.570796326794897
  9
$LOFTMAG1
 40
0
  9
$LOFTMAG2
 40
0
  9
$LOFTPARAM
 70
    7
  9
$LOFTNORMALS
280
    1
  9
$LATITUDE
 40
37.795
  9
$LONGITUDE
 40
-122.394
  9
$NORTHDIRECTION
 40
0
  9
$TIMEZONE
 70
-8000
  9
$LIGHTGLYPHDISPLAY
280
    1
  9
$TILEMODELIGHTSYNCH
280
    1
  9
$SOLIDHIST
280
    0
  9
$SHOWHIST
280
    1
  9
$DWFFRAME
280
    2
  9
$DGNFRAME
280
    2
  9
$REALWORLDSCALE
290
    1
  9
$INTERFERECOLOR
 62
  256
  9
$CSHADOW
280
    0
  9
$SHADOWPLANELOCATION
 40
0
  0
ENDSEC
  0
SECTION
  2
CLASSES
  0
ENDSEC
  0
SECTION
  2
TABLES
  0
TABLE
  2
VPORT
  5
8
330
0
100
AcDbSymbolTable
 70
    1
  0
VPORT
  5
31
330
2
100
AcDbSymbolTableRecord
100
AcDbViewportTableRecord
  2
*ACTIVE
 70
    0
 10
0
 20
0
 11
1
 21
1
 12
145.949727743942
 22
80.20375494244099
 13
0
 23
0
 14
10
 24
10
 15
10
 25
10
 16
0
 26
0
 36
1
 17
0
 27
0
 37
0
 40
126.6375078038542
 41
2.585
 42
50
 43
0
 44
0
 50
0
 51
0
 71
    0
 72
  100
 73
    1
 74
    3
 75
    0
 76
    0
 77
    0
 78
    0
281
    0
 65
    1
110
0
120
0
130
0
111
1
121
0
131
0
112
0
122
1
132
0
 79
    0
146
0
348
10020
 60
    7
 61
    5
292
1
282
    1
141
0
142
0
 63
  250
421
3358443
  0
ENDTAB
  0
TABLE
  2
LTYPE
  5
5
330
0
100
AcDbSymbolTable
 70
    4
  0
LTYPE
  5
14
330
5
100
AcDbSymbolTableRecord
100
AcDbLinetypeTableRecord
  2
ByBlock
 70
    0
  3

 72
   65
 73
    0
 40
0
  0
LTYPE
  5
15
330
5
100
AcDbSymbolTableRecord
100
AcDbLinetypeTableRecord
  2
ByLayer
 70
    0
  3

 72
   65
 73
    0
 40
0
  0
LTYPE
  5
16
330
5
100
AcDbSymbolTableRecord
100
AcDbLinetypeTableRecord
  2
Continuous
 70
    0
  3
Solid line
 72
   65
 73
    0
 40
0
  0
LTYPE
  5
32
330
5
100
AcDbSymbolTableRecord
100
AcDbLinetypeTableRecord
  2
DOT
 70
    0
  3
Dot . . . . . . . . . . . . . . . . . . . . . .
 72
   65
 73
    2
 40
6.35
 49
0
 74
    0
 49
-6.35
 74
    0
  0
LTYPE
  5
33
330
5
100
AcDbSymbolTableRecord
100
AcDbLinetypeTableRecord
  2
DOTTINY
 70
    0
  3
Dot (.15x) .....................................
 72
   65
 73
    2
 40
0.9525
 49
0
 74
    0
 49
-0.9525
 74
    0
  0
LTYPE
  5
34
330
5
100
AcDbSymbolTableRecord
100
AcDbLinetypeTableRecord
  2
DOT2
 70
    0
  3
Dot (.5x) .....................................
 72
   65
 73
    2
 40
3.175
 49
0
 74
    0
 49
-3.175
 74
    0
  0
LTYPE
  5
35
330
5
100
AcDbSymbolTableRecord
100
AcDbLinetypeTableRecord
  2
DOTX2
 70
    0
  3
Dot (2x) .  .  .  .  .  .  .  .  .  .  .  .  .
 72
   65
 73
    2
 40
12.7
 49
0
 74
    0
 49
-12.7
 74
    0
  0
LTYPE
  5
36
330
5
100
AcDbSymbolTableRecord
100
AcDbLinetypeTableRecord
  2
DASHED
 70
    0
  3
Dashed _ _ _ _ _ _ _ _ _ _ _ _ _ _ _ _ _
 72
   65
 73
    2
 40
19.05
 49
12.7
 74
    0
 49
-6.35
 74
    0
  0
LTYPE
  5
37
330
5
100
AcDbSymbolTableRecord
100
AcDbLinetypeTableRecord
  2
DASHEDTINY
 70
    0
  3
Dashed (.15x) _ _ _ _ _ _ _ _ _ _ _ _ _ _ _ _ _
 72
   65
 73
    2
 40
2.8575
 49
1.905
 74
    0
 49
-0.9525
 74
    0
  0
LTYPE
  5
38
330
5
100
AcDbSymbolTableRecord
100
AcDbLinetypeTableRecord
  2
DASHED2
 70
    0
  3
Dashed (.5x) _ _ _ _ _ _ _ _ _ _ _ _ _ _ _ _ _
 72
   65
 73
    2
 40
9.524999999999999
 49
6.35
 74
    0
 49
-3.175
 74
    0
  0
LTYPE
  5
39
330
5
100
AcDbSymbolTableRecord
100
AcDbLinetypeTableRecord
  2
DASHEDX2
 70
    0
  3
Dashed (2x) ____  ____  ____  ____  ____  ___
 72
   65
 73
    2
 40
38.09999999999999
 49
25.4
 74
    0
 49
-12.7
 74
    0
  0
LTYPE
  5
3A
330
5
100
AcDbSymbolTableRecord
100
AcDbLinetypeTableRecord
  2
DASHDOT
 70
    0
  3
Dash dot __ . __ . __ . __ . __ . __ . __ . __
 72
   65
 73
    4
 40
25.4
 49
12.7
 74
    0
 49
-6.35
 74
    0
 49
0
 74
    0
 49
-6.35
 74
    0
  0
LTYPE
  5
3B
330
5
100
AcDbSymbolTableRecord
100
AcDbLinetypeTableRecord
  2
DASHDOTTINY
 70
    0
  3
Dash dot (.15x) _._._._._._._._._._._._._._._.
 72
   65
 73
    4
 40
3.81
 49
1.905
 74
    0
 49
-0.9525
 74
    0
 49
0
 74
    0
 49
-0.9525
 74
    0
  0
LTYPE
  5
3C
330
5
100
AcDbSymbolTableRecord
100
AcDbLinetypeTableRecord
  2
DASHDOT2
 70
    0
  3
Dash dot (.5x) _._._._._._._._._._._._._._._.
 72
   65
 73
    4
 40
12.7
 49
6.35
 74
    0
 49
-3.175
 74
    0
 49
0
 74
    0
 49
-3.175
 74
    0
  0
LTYPE
  5
3D
330
5
100
AcDbSymbolTableRecord
100
AcDbLinetypeTableRecord
  2
DASHDOTX2
 70
    0
  3
Dash dot (2x) ____  .  ____  .  ____  .  ___
 72
   65
 73
    4
 40
50.8
 49
25.4
 74
    0
 49
-12.7
 74
    0
 49
0
 74
    0
 49
-12.7
 74
    0
  0
LTYPE
  5
3E
330
5
100
AcDbSymbolTableRecord
100
AcDbLinetypeTableRecord
  2
DIVIDE
 70
    0
  3
Divide ____ . . ____ . . ____ . . ____ . . ____
 72
   65
 73
    6
 40
31.75
 49
12.7
 74
    0
 49
-6.35
 74
    0
 49
0
 74
    0
 49
-6.35
 74
    0
 49
0
 74
    0
 49
-6.35
 74
    0
  0
LTYPE
  5
3F
330
5
100
AcDbSymbolTableRecord
100
AcDbLinetypeTableRecord
  2
DIVIDETINY
 70
    0
  3
Divide (.15x) __..__..__..__..__..__..__..__.._
 72
   65
 73
    6
 40
4.7625
 49
1.905
 74
    0
 49
-0.9525
 74
    0
 49
0
 74
    0
 49
-0.9525
 74
    0
 49
0
 74
    0
 49
-0.9525
 74
    0
  0
LTYPE
  5
40
330
5
100
AcDbSymbolTableRecord
100
AcDbLinetypeTableRecord
  2
DIVIDE2
 70
    0
  3
Divide (.5x) __..__..__..__..__..__..__..__.._
 72
   65
 73
    6
 40
15.875
 49
6.35
 74
    0
 49
-3.175
 74
    0
 49
0
 74
    0
 49
-3.175
 74
    0
 49
0
 74
    0
 49
-3.175
 74
    0
  0
LTYPE
  5
41
330
5
100
AcDbSymbolTableRecord
100
AcDbLinetypeTableRecord
  2
DIVIDEX2
 70
    0
  3
Divide (2x) ________  .  .  ________  .  .  _
 72
   65
 73
    6
 40
63.5
 49
25.4
 74
    0
 49
-12.7
 74
    0
 49
0
 74
    0
 49
-12.7
 74
    0
 49
0
 74
    0
 49
-12.7
 74
    0
  0
LTYPE
  5
42
330
5
100
AcDbSymbolTableRecord
100
AcDbLinetypeTableRecord
  2
BORDER
 70
    0
  3
Border __ __ . __ __ . __ __ . __ __ . __ __ .
 72
   65
 73
    6
 40
44.45
 49
12.7
 74
    0
 49
-6.35
 74
    0
 49
12.7
 74
    0
 49
-6.35
 74
    0
 49
0
 74
    0
 49
-6.35
 74
    0
  0
LTYPE
  5
43
330
5
100
AcDbSymbolTableRecord
100
AcDbLinetypeTableRecord
  2
BORDERTINY
 70
    0
  3
Border (.15x) __.__.__.__.__.__.__.__.__.__.__.
 72
   65
 73
    6
 40
6.6675
 49
1.905
 74
    0
 49
-0.9525
 74
    0
 49
1.905
 74
    0
 49
-0.9525
 74
    0
 49
0
 74
    0
 49
-0.9525
 74
    0
  0
LTYPE
  5
44
330
5
100
AcDbSymbolTableRecord
100
AcDbLinetypeTableRecord
  2
BORDER2
 70
    0
  3
Border (.5x) __.__.__.__.__.__.__.__.__.__.__.
 72
   65
 73
    6
 40
22.225
 49
6.35
 74
    0
 49
-3.175
 74
    0
 49
6.35
 74
    0
 49
-3.175
 74
    0
 49
0
 74
    0
 49
-3.175
 74
    0
  0
LTYPE
  5
45
330
5
100
AcDbSymbolTableRecord
100
AcDbLinetypeTableRecord
  2
BORDERX2
 70
    0
  3
Border (2x) ____  ____  .  ____  ____  .  ___
 72
   65
 73
    6
 40
88.89999999999999
 49
25.4
 74
    0
 49
-12.7
 74
    0
 49
25.4
 74
    0
 49
-12.7
 74
    0
 49
0
 74
    0
 49
-12.7
 74
    0
  0
LTYPE
  5
46
330
5
100
AcDbSymbolTableRecord
100
AcDbLinetypeTableRecord
  2
CENTER
 70
    0
  3
Center ____ _ ____ _ ____ _ ____ _ ____ _ ____
 72
   65
 73
    4
 40
50.8
 49
31.75
 74
    0
 49
-6.35
 74
    0
 49
6.35
 74
    0
 49
-6.35
 74
    0
  0
LTYPE
  5
47
330
5
100
AcDbSymbolTableRecord
100
AcDbLinetypeTableRecord
  2
CENTERTINY
 70
    0
  3
Center (.15x) ___ _ ___ _ ___ _ ___ _ ___ _ ___
 72
   65
 73
    4
 40
7.62
 49
4.7625
 74
    0
 49
-0.9525
 74
    0
 49
0.9525
 74
    0
 49
-0.9525
 74
    0
  0
LTYPE
  5
48
330
5
100
AcDbSymbolTableRecord
100
AcDbLinetypeTableRecord
  2
CENTER2
 70
    0
  3
Center (.5x) ___ _ ___ _ ___ _ ___ _ ___ _ ___
 72
   65
 73
    4
 40
28.575
 49
19.05
 74
    0
 49
-3.175
 74
    0
 49
3.175
 74
    0
 49
-3.175
 74
    0
  0
LTYPE
  5
49
330
5
100
AcDbSymbolTableRecord
100
AcDbLinetypeTableRecord
  2
CENTERX2
 70
    0
  3
Center (2x) ________  __  ________  __  _____
 72
   65
 73
    4
 40
101.6
 49
63.5
 74
    0
 49
-12.7
 74
    0
 49
12.7
 74
    0
 49
-12.7
 74
    0
  0
ENDTAB
  0
TABLE
  2
LAYER
  5
2
330
0
100
AcDbSymbolTable
 70
    1
  0
LAYER
  5
10
330
2
100
AcDbSymbolTableRecord
100
AcDbLayerTableRecord
  2
0
 70
    0
 62
    7
  6
CONTINUOUS
370
   -3
390
F
  0
LAYER
  5
4A
330
2
100
AcDbSymbolTableRecord
100
AcDbLayerTableRecord
  2
Anchor
 70
    0
 62
    3
  6
CONTINUOUS
370
    0
390
F
  0
LAYER
  5
4B
330
2
100
AcDbSymbolTableRecord
100
AcDbLayerTableRecord
  2
Cuts
 70
    0
 62
    7
  6
CONTINUOUS
370
    0
390
F
  0
ENDTAB
  0
TABLE
  2
STYLE
  5
3
330
0
100
AcDbSymbolTable
 70
    3
  0
STYLE
  5
4C
330
2
100
AcDbSymbolTableRecord
100
AcDbTextStyleTableRecord
  2
Standard
 70
    0
 40
0
 41
1
 50
0
 71
    0
 42
1
  3
txt
  4

  0
ENDTAB
  0
TABLE
  2
VIEW
  5
6
330
0
100
AcDbSymbolTable
 70
    0
  0
ENDTAB
  0
TABLE
  2
UCS
  5
7
330
0
100
AcDbSymbolTable
 70
    0
  0
ENDTAB
  0
TABLE
  2
APPID
  5
9
330
0
100
AcDbSymbolTable
 70
    1
  0
APPID
  5
12
330
9
100
AcDbSymbolTableRecord
100
AcDbRegAppTableRecord
  2
ACAD
 70
    0
  0
APPID
  5
4D
330
9
100
AcDbSymbolTableRecord
100
AcDbRegAppTableRecord
  2
LibreCad
 70
    0
  0
ENDTAB
  0
TABLE
  2
DIMSTYLE
  5
A
330
0
100
AcDbSymbolTable
 70
    1
100
AcDbDimStyleTable
 71
    1
  0
DIMSTYLE
105
4E
330
A
100
AcDbSymbolTableRecord
100
AcDbDimStyleTableRecord
  2
Standard
 70
    0
 40
1
 41
2.5
 42
0.625
 43
0.38
 44
1.25
 45
0
 46
0
 47
0
 48
0
 49
1
140
2.5
141
0.09
142
0
143
25.4
144
1
145
0
146
1
147
0.625
148
0
 71
    0
 72
    0
 73
    0
 74
    1
 75
    0
 76
    0
 77
    0
 78
    8
 79
    0
170
    0
171
    2
172
    0
173
    0
174
    0
175
    0
176
    0
177
    0
178
    0
179
    0
271
    2
272
    4
273
    2
274
    2
275
    0
276
    0
277
    2
278
   44
279
    0
280
    0
281
    0
282
    0
283
    1
284
    0
285
    0
286
    0
288
    0
289
    3
340
Standard
341

371
   -2
372
   -2
  0
ENDTAB
  0
TABLE
  2
BLOCK_RECORD
  5
1
330
0
100
AcDbSymbolTable
 70
    2
  0
BLOCK_RECORD
  5
1F
330
1
100
AcDbSymbolTableRecord
100
AcDbBlockTableRecord
  2
*Model_Space
 70
    0
280
    1
281
    0
  0
BLOCK_RECORD
  5
1E
330
1
100
AcDbSymbolTableRecord
100
AcDbBlockTableRecord
  2
*Paper_Space
 70
    0
280
    1
281
    0
  0
ENDTAB
  0
ENDSEC
  0
SECTION
  2
BLOCKS
  0
BLOCK
  5
20
330
1F
100
AcDbEntity
  8
0
100
AcDbBlockBegin
  2
*Model_Space
 70
    0
 10
0
 20
0
 30
0
  3
*Model_Space
  1

  0
ENDBLK
  5
21
330
1F
100
AcDbEntity
  8
0
100
AcDbBlockEnd
  0
BLOCK
  5
1C
330
1B
100
AcDbEntity
  8
0
100
AcDbBlockBegin
  2
*Paper_Space
 70
    0
 10
0
 20
0
 30
0
  3
*Paper_Space
  1

  0
ENDBLK
  5
1D
330
1F
100
AcDbEntity
  8
0
100
AcDbBlockEnd
  0
ENDSEC
  0
SECTION
  2
ENTITIES
  0
LINE
  5
4F
100
AcDbEntity
  8
Anchor
  6
ByLayer
 62
  256
370
   -1
100
AcDbLine
 10
24.93851405000001
 20
121.42713485
 11
38.93851405000001
 21
121.42713485
  0
LINE
  5
50
100
AcDbEntity
  8
Anchor
  6
ByLayer
 62
  256
370
   -1
100
AcDbLine
 10
31.93851405000001
 20
128.42713485
 11
31.93851405000001
 21
114.42713485
  0
ARC
  5
51
100
AcDbEntity
  8
Cuts
  6
ByLayer
 62
  256
370
   -1
100
AcDbCircle
 10
25.93851405000001
 20
39.22713485
 40
4
100
AcDbArc
 50
180
 51
270
  0
LINE
  5
52
100
AcDbEntity
  8
Cuts
  6
ByLayer
 62
  256
370
   -1
100
AcDbLine
 10
21.93851405000001
 20
50.27713485
 11
21.93851405000001
 21
39.22713485
  0
ARC
  5
53
100
AcDbEntity
  8
Cuts
  6
ByLayer
 62
  256
370
   -1
100
AcDbCircle
 10
17.93851405000001
 20
50.27713485
 40
4
100
AcDbArc
 50
0
 51
90
  0
LINE
  5
54
100
AcDbEntity
  8
Cuts
  6
ByLayer
 62
  256
370
   -1
100
AcDbLine
 10
12.14476405
 20
54.27713485
 11
17.93851405000001
 21
54.27713485
  0
ARC
  5
55
100
AcDbEntity
  8
Cuts
  6
ByLayer
 62
  256
370
   -1
100
AcDbCircle
 10
12.14476405
 20
58.27713485
 40
4
100
AcDbArc
 50
180
 51
270
  0
LINE
  5
56
100
AcDbEntity
  8
Cuts
  6
ByLayer
 62
  256
370
   -1
100
AcDbLine
 10
8.144764050000003
 20
108.37713485
 11
8.144764050000003
 21
58.27713485
  0
ARC
  5
57
100
AcDbEntity
  8
Cuts
  6
ByLayer
 62
  256
370
   -1
100
AcDbCircle
 10
12.14476405
 20
108.37713485
 40
4
100
AcDbArc
 50
90
 51
180
  0
LINE
  5
58
100
AcDbEntity
  8
Cuts
  6
ByLayer
 62
  256
370
   -1
100
AcDbLine
 10
12.14476405
 20
112.37713485
 11
17.93851405000001
 21
112.37713485
  0
ARC
  5
59
100
AcDbEntity
  8
Cuts
  6
ByLayer
 62
  256
370
   -1
100
AcDbCircle
 10
17.93851405000001
 20
116.37713485
 40
4
100
AcDbArc
 50
270
 51
0
  0
LINE
  5
5A
100
AcDbEntity
  8
Cuts
  6
ByLayer
 62
  256
370
   -1
100
AcDbLine
 10
21.93851405000001
 20
127.42713485
 11
21.93851405000001
 21
116.37713485
  0
ARC
  5
5B
100
AcDbEntity
  8
Cuts
  6
ByLayer
 62
  256
370
   -1
100
AcDbCircle
 10
25.93851405000001
 20
127.42713485
 40
4
100
AcDbArc
 50
90
 51
180
  0
LINE
  5
5C
100
AcDbEntity
  8
Cuts
  6
ByLayer
 62
  256
370
   -1
100
AcDbLine
 10
25.93851405000001
 20
131.42713485
 11
56.03851405000001
 21
131.42713485
  0
ARC
  5
5D
100
AcDbEntity
  8
Cuts
  6
ByLayer
 62
  256
370
   -1
100
AcDbCircle
 10
56.03851405000001
 20
135.42713485
 40
4
100
AcDbArc
 50
270
 51
0
  0
LINE
  5
5E
100
AcDbEntity
  8
Cuts
  6
ByLayer
 62
  256
370
   -1
100
AcDbLine
 10
60.03851405000001
 20
136.95213485
 11
60.03851405000001
 21
135.42713485
  0
ARC
  5
5F
100
AcDbEntity
  8
Cuts
  6
ByLayer
 62
  256
370
   -1
100
AcDbCircle
 10
64.03851405
 20
136.95213485
 40
4
100
AcDbArc
 50
90
 51
180
  0
LINE
  5
60
100
AcDbEntity
  8
Cuts
  6
ByLayer
 62
  256
370
   -1
100
AcDbLine
 10
64.03851405
 20
140.95213485
 11
97.08851405000001
 21
140.95213485
  0
ARC
  5
61
100
AcDbEntity
  8
Cuts
  6
ByLayer
 62
  256
370
   -1
100
AcDbCircle
 10
97.08851405000001
 20
138.95213485
 40
2
100
AcDbArc
 50
0
 51
90
  0
LINE
  5
62
100
AcDbEntity
  8
Cuts
  6
ByLayer
 62
  256
370
   -1
100
AcDbLine
 10
99.08851405000001
 20
138.95213485
 11
99.08851405000001
 21
138.18963485
  0
ARC
  5
63
100
AcDbEntity
  8
Cuts
  6
ByLayer
 62
  256
370
   -1
100
AcDbCircle
 10
101.08851405
 20
138.18963485
 40
2
100
AcDbArc
 50
180
 51
270
  0
ARC
  5
64
100
AcDbEntity
  8
Cuts
  6
ByLayer
 62
  256
370
   -1
100
AcDbCircle
 10
109.2535285802088
 20
21.74447998566148
 40
4
100
AcDbArc
 50
224.9999999999999
 51
257.9999999077575
  0
LINE
  5
65
100
AcDbEntity
  8
Cuts
  6
ByLayer
 62
  256
370
   -1
100
AcDbLine
 10
91.28559234163171
 20
34.05556197474618
 11
106.4251014554626
 21
18.9160528609153
  0
LINE
  5
66
100
AcDbEntity
  8
Cuts
  6
ByLayer
 62
  256
370
   -1
100
AcDbLine
 10
25.93851405000001
 20
35.22713485
 11
88.45716521688553
 21
35.22713485
  0
ARC
  5
67
100
AcDbEntity
  8
Cuts
  6
ByLayer
 62
  256
370
   -1
100
AcDbCircle
 10
88.45716521688553
 20
31.22713485
 40
4
100
AcDbArc
 50
45
 51
90
  0
LINE
  5
68
100
AcDbEntity
  8
Cuts
  6
ByLayer
 62
  256
370
   -1
100
AcDbLine
 10
101.08851405
 20
136.18963485
 11
180.23851405
 21
136.18963485
  0
ARC
  5
69
100
AcDbEntity
  8
Cuts
  6
ByLayer
 62
  256
370
   -1
100
AcDbCircle
 10
180.23851405
 20
132.18963485
 40
4
100
AcDbArc
 50
0
 51
90
  0
LINE
  5
6A
100
AcDbEntity
  8
0
  6
ByLayer
 62
  256
370
   -1
100
AcDbLine
 10
63.53851405000002
 20
137.95213485
 11
76.53851404999999
 21
137.95213485
  0
LINE
  5
6B
100
AcDbEntity
  8
0
  6
ByLayer
 62
  256
370
   -1
100
AcDbLine
 10
63.53851405000002
 20
123.95213485
 11
76.53851404999999
 21
123.95213485
  0
LINE
  5
6C
100
AcDbEntity
  8
0
  6
ByLayer
 62
  256
370
   -1
100
AcDbLine
 10
63.03851405000002
 20
137.45213485
 11
63.03851405000002
 21
124.45213485
  0
LINE
  5
6D
100
AcDbEntity
  8
0
  6
ByLayer
 62
  256
370
   -1
100
AcDbLine
 10
77.03851404999999
 20
137.45213485
 11
77.03851404999999
 21
124.45213485
  0
ARC
  5
6E
100
AcDbEntity
  8
0
  6
ByLayer
 62
  256
370
   -1
100
AcDbCircle
 10
63.53851405000002
 20
137.45213485
 40
0.5
100
AcDbArc
 50
90
 51
180
  0
ARC
  5
6F
100
AcDbEntity
  8
0
  6
ByLayer
 62
  256
370
   -1
100
AcDbCircle
 10
76.53851404999999
 20
137.45213485
 40
0.5
100
AcDbArc
 50
0
 51
90
  0
ARC
  5
70
100
AcDbEntity
  8
0
  6
ByLayer
 62
  256
370
   -1
100
AcDbCircle
 10
63.53851405000002
 20
124.45213485
 40
0.5
100
AcDbArc
 50
180
 51
270
  0
ARC
  5
71
100
AcDbEntity
  8
0
  6
ByLayer
 62
  256
370
   -1
100
AcDbCircle
 10
76.53851404999999
 20
124.45213485
 40
0.5
100
AcDbArc
 50
270
 51
0
  0
LINE
  5
72
100
AcDbEntity
  8
0
  6
ByLayer
 62
  256
370
   -1
100
AcDbLine
 10
82.58851405
 20
137.95213485
 11
95.58851405
 21
137.95213485
  0
LINE
  5
73
100
AcDbEntity
  8
0
  6
ByLayer
 62
  256
370
   -1
100
AcDbLine
 10
82.58851405
 20
123.95213485
 11
95.58851405
 21
123.95213485
  0
LINE
  5
74
100
AcDbEntity
  8
0
  6
ByLayer
 62
  256
370
   -1
100
AcDbLine
 10
82.08851405
 20
137.45213485
 11
82.08851405
 21
124.45213485
  0
LINE
  5
75
100
AcDbEntity
  8
0
  6
ByLayer
 62
  256
370
   -1
100
AcDbLine
 10
96.08851405
 20
137.45213485
 11
96.08851405
 21
124.45213485
  0
ARC
  5
76
100
AcDbEntity
  8
0
  6
ByLayer
 62
  256
370
   -1
100
AcDbCircle
 10
82.58851405
 20
137.45213485
 40
0.5
100
AcDbArc
 50
90
 51
180
  0
ARC
  5
77
100
AcDbEntity
  8
0
  6
ByLayer
 62
  256
370
   -1
100
AcDbCircle
 10
95.58851405
 20
137.45213485
 40
0.5
100
AcDbArc
 50
0
 51
90
  0
ARC
  5
78
100
AcDbEntity
  8
0
  6
ByLayer
 62
  256
370
   -1
100
AcDbCircle
 10
82.58851405
 20
124.45213485
 40
0.5
100
AcDbArc
 50
180
 51
270
  0
ARC
  5
79
100
AcDbEntity
  8
0
  6
ByLayer
 62
  256
370
   -1
100
AcDbCircle
 10
95.58851405
 20
124.45213485
 40
0.5
100
AcDbArc
 50
270
 51
0
  0
LINE
  5
7A
100
AcDbEntity
  8
0
  6
ByLayer
 62
  256
370
   -1
100
AcDbLine
 10
101.63851405
 20
133.18963485
 11
114.63851405
 21
133.18963485
  0
LINE
  5
7B
100
AcDbEntity
  8
0
  6
ByLayer
 62
  256
370
   -1
100
AcDbLine
 10
101.63851405
 20
119.18963485
 11
114.63851405
 21
119.18963485
  0
LINE
  5
7C
100
AcDbEntity
  8
0
  6
ByLayer
 62
  256
370
   -1
100
AcDbLine
 10
101.13851405
 20
132.68963485
 11
101.13851405
 21
119.68963485
  0
LINE
  5
7D
100
AcDbEntity
  8
0
  6
ByLayer
 62
  256
370
   -1
100
AcDbLine
 10
115.13851405
 20
132.68963485
 11
115.13851405
 21
119.68963485
  0
ARC
  5
7E
100
AcDbEntity
  8
0
  6
ByLayer
 62
  256
370
   -1
100
AcDbCircle
 10
101.63851405
 20
132.68963485
 40
0.5
100
AcDbArc
 50
90
 51
180
  0
ARC
  5
7F
100
AcDbEntity
  8
0
  6
ByLayer
 62
  256
370
   -1
100
AcDbCircle
 10
114.63851405
 20
132.68963485
 40
0.5
100
AcDbArc
 50
0
 51
90
  0
ARC
  5
80
100
AcDbEntity
  8
0
  6
ByLayer
 62
  256
370
   -1
100
AcDbCircle
 10
101.63851405
 20
119.68963485
 40
0.5
100
AcDbArc
 50
180
 51
270
  0
ARC
  5
81
100
AcDbEntity
  8
0
  6
ByLayer
 62
  256
370
   -1
100
AcDbCircle
 10
114.63851405
 20
119.68963485
 40
0.5
100
AcDbArc
 50
270
 51
0
  0
LINE
  5
82
100
AcDbEntity
  8
0
  6
ByLayer
 62
  256
370
   -1
100
AcDbLine
 10
120.68851405
 20
133.18963485
 11
133.68851405
 21
133.18963485
  0
LINE
  5
83
100
AcDbEntity
  8
0
  6
ByLayer
 62
  256
370
   -1
100
AcDbLine
 10
120.68851405
 20
119.18963485
 11
133.68851405
 21
119.18963485
  0
LINE
  5
84
100
AcDbEntity
  8
0
  6
ByLayer
 62
  256
370
   -1
100
AcDbLine
 10
120.18851405
 20
132.68963485
 11
120.18851405
 21
119.68963485
  0
LINE
  5
85
100
AcDbEntity
  8
0
  6
ByLayer
 62
  256
370
   -1
100
AcDbLine
 10
134.18851405
 20
132.68963485
 11
134.18851405
 21
119.68963485
  0
ARC
  5
86
100
AcDbEntity
  8
0
  6
ByLayer
 62
  256
370
   -1
100
AcDbCircle
 10
120.68851405
 20
132.68963485
 40
0.5
100
AcDbArc
 50
90
 51
180
  0
ARC
  5
87
100
AcDbEntity
  8
0
  6
ByLayer
 62
  256
370
   -1
100
AcDbCircle
 10
133.68851405
 20
132.68963485
 40
0.5
100
AcDbArc
 50
0
 51
90
  0
ARC
  5
88
100
AcDbEntity
  8
0
  6
ByLayer
 62
  256
370
   -1
100
AcDbCircle
 10
120.68851405
 20
119.68963485
 40
0.5
100
AcDbArc
 50
180
 51
270
  0
ARC
  5
89
100
AcDbEntity
  8
0
  6
ByLayer
 62
  256
370
   -1
100
AcDbCircle
 10
133.68851405
 20
119.68963485
 40
0.5
100
AcDbArc
 50
270
 51
0
  0
LINE
  5
8A
100
AcDbEntity
  8
0
  6
ByLayer
 62
  256
370
   -1
100
AcDbLine
 10
25.43851405000001
 20
128.42713485
 11
38.43851405000001
 21
128.42713485
  0
LINE
  5
8B
100
AcDbEntity
  8
0
  6
ByLayer
 62
  256
370
   -1
100
AcDbLine
 10
25.43851405000001
 20
114.42713485
 11
38.43851405000001
 21
114.42713485
  0
LINE
  5
8C
100
AcDbEntity
  8
0
  6
ByLayer
 62
  256
370
   -1
100
AcDbLine
 10
24.93851405000001
 20
127.92713485
 11
24.93851405000001
 21
114.92713485
  0
LINE
  5
8D
100
AcDbEntity
  8
0
  6
ByLayer
 62
  256
370
   -1
100
AcDbLine
 10
38.93851405000001
 20
127.92713485
 11
38.93851405000001
 21
114.92713485
  0
ARC
  5
8E
100
AcDbEntity
  8
0
  6
ByLayer
 62
  256
370
   -1
100
AcDbCircle
 10
25.43851405000001
 20
127.92713485
 40
0.5
100
AcDbArc
 50
90
 51
180
  0
ARC
  5
8F
100
AcDbEntity
  8
0
  6
ByLayer
 62
  256
370
   -1
100
AcDbCircle
 10
38.43851405000001
 20
127.92713485
 40
0.5
100
AcDbArc
 50
0
 51
90
  0
ARC
  5
90
100
AcDbEntity
  8
0
  6
ByLayer
 62
  256
370
   -1
100
AcDbCircle
 10
25.43851405000001
 20
114.92713485
 40
0.5
100
AcDbArc
 50
180
 51
270
  0
ARC
  5
91
100
AcDbEntity
  8
0
  6
ByLayer
 62
  256
370
   -1
100
AcDbCircle
 10
38.43851405000001
 20
114.92713485
 40
0.5
100
AcDbArc
 50
270
 51
0
  0
LINE
  5
92
100
AcDbEntity
  8
0
  6
ByLayer
 62
  256
370
   -1
100
AcDbLine
 10
44.48851405000001
 20
128.42713485
 11
57.48851405000001
 21
128.42713485
  0
LINE
  5
93
100
AcDbEntity
  8
0
  6
ByLayer
 62
  256
370
   -1
100
AcDbLine
 10
44.48851405000001
 20
114.42713485
 11
57.48851405000001
 21
114.42713485
  0
LINE
  5
94
100
AcDbEntity
  8
0
  6
ByLayer
 62
  256
370
   -1
100
AcDbLine
 10
43.98851405000001
 20
127.92713485
 11
43.98851405000001
 21
114.92713485
  0
LINE
  5
95
100
AcDbEntity
  8
0
  6
ByLayer
 62
  256
370
   -1
100
AcDbLine
 10
57.98851405000001
 20
127.92713485
 11
57.98851405000001
 21
114.92713485
  0
ARC
  5
96
100
AcDbEntity
  8
0
  6
ByLayer
 62
  256
370
   -1
100
AcDbCircle
 10
44.48851405000001
 20
127.92713485
 40
0.5
100
AcDbArc
 50
90
 51
180
  0
ARC
  5
97
100
AcDbEntity
  8
0
  6
ByLayer
 62
  256
370
   -1
100
AcDbCircle
 10
57.48851405000001
 20
127.92713485
 40
0.5
100
AcDbArc
 50
0
 51
90
  0
ARC
  5
98
100
AcDbEntity
  8
0
  6
ByLayer
 62
  256
370
   -1
100
AcDbCircle
 10
44.48851405000001
 20
114.92713485
 40
0.5
100
AcDbArc
 50
180
 51
270
  0
ARC
  5
99
100
AcDbEntity
  8
0
  6
ByLayer
 62
  256
370
   -1
100
AcDbCircle
 10
57.48851405000001
 20
114.92713485
 40
0.5
100
AcDbArc
 50
270
 51
0
  0
LINE
  5
9A
100
AcDbEntity
  8
0
  6
ByLayer
 62
  256
370
   -1
100
AcDbLine
 10
139.73851405
 20
128.42713485
 11
152.73851405
 21
128.42713485
  0
LINE
  5
9B
100
AcDbEntity
  8
0
  6
ByLayer
 62
  256
370
   -1
100
AcDbLine
 10
139.73851405
 20
114.42713485
 11
152.73851405
 21
114.42713485
  0
LINE
  5
9C
100
AcDbEntity
  8
0
  6
ByLayer
 62
  256
370
   -1
100
AcDbLine
 10
139.23851405
 20
127.92713485
 11
139.23851405
 21
114.92713485
  0
LINE
  5
9D
100
AcDbEntity
  8
0
  6
ByLayer
 62
  256
370
   -1
100
AcDbLine
 10
153.23851405
 20
127.92713485
 11
153.23851405
 21
114.92713485
  0
ARC
  5
9E
100
AcDbEntity
  8
0
  6
ByLayer
 62
  256
370
   -1
100
AcDbCircle
 10
139.73851405
 20
127.92713485
 40
0.5
100
AcDbArc
 50
90
 51
180
  0
ARC
  5
9F
100
AcDbEntity
  8
0
  6
ByLayer
 62
  256
370
   -1
100
AcDbCircle
 10
152.73851405
 20
127.92713485
 40
0.5
100
AcDbArc
 50
0
 51
90
  0
ARC
  5
A0
100
AcDbEntity
  8
0
  6
ByLayer
 62
  256
370
   -1
100
AcDbCircle
 10
139.73851405
 20
114.92713485
 40
0.5
100
AcDbArc
 50
180
 51
270
  0
ARC
  5
A1
100
AcDbEntity
  8
0
  6
ByLayer
 62
  256
370
   -1
100
AcDbCircle
 10
152.73851405
 20
114.92713485
 40
0.5
100
AcDbArc
 50
270
 51
0
  0
LINE
  5
A2
100
AcDbEntity
  8
0
  6
ByLayer
 62
  256
370
   -1
100
AcDbLine
 10
63.53851405000002
 20
118.90213485
 11
76.53851404999999
 21
118.90213485
  0
LINE
  5
A3
100
AcDbEntity
  8
0
  6
ByLayer
 62
  256
370
   -1
100
AcDbLine
 10
63.53851405000002
 20
104.90213485
 11
76.53851404999999
 21
104.90213485
  0
LINE
  5
A4
100
AcDbEntity
  8
0
  6
ByLayer
 62
  256
370
   -1
100
AcDbLine
 10
63.03851405000002
 20
118.40213485
 11
63.03851405000002
 21
105.40213485
  0
LINE
  5
A5
100
AcDbEntity
  8
0
  6
ByLayer
 62
  256
370
   -1
100
AcDbLine
 10
77.03851404999999
 20
118.40213485
 11
77.03851404999999
 21
105.40213485
  0
ARC
  5
A6
100
AcDbEntity
  8
0
  6
ByLayer
 62
  256
370
   -1
100
AcDbCircle
 10
63.53851405000002
 20
118.40213485
 40
0.5
100
AcDbArc
 50
90
 51
180
  0
ARC
  5
A7
100
AcDbEntity
  8
0
  6
ByLayer
 62
  256
370
   -1
100
AcDbCircle
 10
76.53851404999999
 20
118.40213485
 40
0.5
100
AcDbArc
 50
0
 51
90
  0
ARC
  5
A8
100
AcDbEntity
  8
0
  6
ByLayer
 62
  256
370
   -1
100
AcDbCircle
 10
63.53851405000002
 20
105.40213485
 40
0.5
100
AcDbArc
 50
180
 51
270
  0
ARC
  5
A9
100
AcDbEntity
  8
0
  6
ByLayer
 62
  256
370
   -1
100
AcDbCircle
 10
76.53851404999999
 20
105.40213485
 40
0.5
100
AcDbArc
 50
270
 51
0
  0
LINE
  5
AA
100
AcDbEntity
  8
0
  6
ByLayer
 62
  256
370
   -1
100
AcDbLine
 10
82.58851405
 20
118.90213485
 11
95.58851405
 21
118.90213485
  0
LINE
  5
AB
100
AcDbEntity
  8
0
  6
ByLayer
 62
  256
370
   -1
100
AcDbLine
 10
82.58851405
 20
104.90213485
 11
95.58851405
 21
104.90213485
  0
LINE
  5
AC
100
AcDbEntity
  8
0
  6
ByLayer
 62
  256
370
   -1
100
AcDbLine
 10
82.08851405
 20
118.40213485
 11
82.08851405
 21
105.40213485
  0
LINE
  5
AD
100
AcDbEntity
  8
0
  6
ByLayer
 62
  256
370
   -1
100
AcDbLine
 10
96.08851405
 20
118.40213485
 11
96.08851405
 21
105.40213485
  0
ARC
  5
AE
100
AcDbEntity
  8
0
  6
ByLayer
 62
  256
370
   -1
100
AcDbCircle
 10
82.58851405
 20
118.40213485
 40
0.5
100
AcDbArc
 50
90
 51
180
  0
ARC
  5
AF
100
AcDbEntity
  8
0
  6
ByLayer
 62
  256
370
   -1
100
AcDbCircle
 10
95.58851405
 20
118.40213485
 40
0.5
100
AcDbArc
 50
0
 51
90
  0
ARC
  5
B0
100
AcDbEntity
  8
0
  6
ByLayer
 62
  256
370
   -1
100
AcDbCircle
 10
82.58851405
 20
105.40213485
 40
0.5
100
AcDbArc
 50
180
 51
270
  0
ARC
  5
B1
100
AcDbEntity
  8
0
  6
ByLayer
 62
  256
370
   -1
100
AcDbCircle
 10
95.58851405
 20
105.40213485
 40
0.5
100
AcDbArc
 50
270
 51
0
  0
LINE
  5
B2
100
AcDbEntity
  8
0
  6
ByLayer
 62
  256
370
   -1
100
AcDbLine
 10
101.63851405
 20
114.13963485
 11
114.63851405
 21
114.13963485
  0
LINE
  5
B3
100
AcDbEntity
  8
0
  6
ByLayer
 62
  256
370
   -1
100
AcDbLine
 10
101.63851405
 20
100.13963485
 11
114.63851405
 21
100.13963485
  0
LINE
  5
B4
100
AcDbEntity
  8
0
  6
ByLayer
 62
  256
370
   -1
100
AcDbLine
 10
101.13851405
 20
113.63963485
 11
101.13851405
 21
100.63963485
  0
LINE
  5
B5
100
AcDbEntity
  8
0
  6
ByLayer
 62
  256
370
   -1
100
AcDbLine
 10
115.13851405
 20
113.63963485
 11
115.13851405
 21
100.63963485
  0
ARC
  5
B6
100
AcDbEntity
  8
0
  6
ByLayer
 62
  256
370
   -1
100
AcDbCircle
 10
101.63851405
 20
113.63963485
 40
0.5
100
AcDbArc
 50
90
 51
180
  0
ARC
  5
B7
100
AcDbEntity
  8
0
  6
ByLayer
 62
  256
370
   -1
100
AcDbCircle
 10
114.63851405
 20
113.63963485
 40
0.5
100
AcDbArc
 50
0
 51
90
  0
ARC
  5
B8
100
AcDbEntity
  8
0
  6
ByLayer
 62
  256
370
   -1
100
AcDbCircle
 10
101.63851405
 20
100.63963485
 40
0.5
100
AcDbArc
 50
180
 51
270
  0
ARC
  5
B9
100
AcDbEntity
  8
0
  6
ByLayer
 62
  256
370
   -1
100
AcDbCircle
 10
114.63851405
 20
100.63963485
 40
0.5
100
AcDbArc
 50
270
 51
0
  0
LINE
  5
BA
100
AcDbEntity
  8
0
  6
ByLayer
 62
  256
370
   -1
100
AcDbLine
 10
120.68851405
 20
114.13963485
 11
133.68851405
 21
114.13963485
  0
LINE
  5
BB
100
AcDbEntity
  8
0
  6
ByLayer
 62
  256
370
   -1
100
AcDbLine
 10
120.68851405
 20
100.13963485
 11
133.68851405
 21
100.13963485
  0
LINE
  5
BC
100
AcDbEntity
  8
0
  6
ByLayer
 62
  256
370
   -1
100
AcDbLine
 10
120.18851405
 20
113.63963485
 11
120.18851405
 21
100.63963485
  0
LINE
  5
BD
100
AcDbEntity
  8
0
  6
ByLayer
 62
  256
370
   -1
100
AcDbLine
 10
134.18851405
 20
113.63963485
 11
134.18851405
 21
100.63963485
  0
ARC
  5
BE
100
AcDbEntity
  8
0
  6
ByLayer
 62
  256
370
   -1
100
AcDbCircle
 10
120.68851405
 20
113.63963485
 40
0.5
100
AcDbArc
 50
90
 51
180
  0
ARC
  5
BF
100
AcDbEntity
  8
0
  6
ByLayer
 62
  256
370
   -1
100
AcDbCircle
 10
133.68851405
 20
113.63963485
 40
0.5
100
AcDbArc
 50
0
 51
90
  0
ARC
  5
C0
100
AcDbEntity
  8
0
  6
ByLayer
 62
  256
370
   -1
100
AcDbCircle
 10
120.68851405
 20
100.63963485
 40
0.5
100
AcDbArc
 50
180
 51
270
  0
ARC
  5
C1
100
AcDbEntity
  8
0
  6
ByLayer
 62
  256
370
   -1
100
AcDbCircle
 10
133.68851405
 20
100.63963485
 40
0.5
100
AcDbArc
 50
270
 51
0
  0
LINE
  5
C2
100
AcDbEntity
  8
0
  6
ByLayer
 62
  256
370
   -1
100
AcDbLine
 10
20.67601405000001
 20
109.37713485
 11
33.67601405000001
 21
109.37713485
  0
LINE
  5
C3
100
AcDbEntity
  8
0
  6
ByLayer
 62
  256
370
   -1
100
AcDbLine
 10
20.67601405000001
 20
95.37713484999998
 11
33.67601405000001
 21
95.37713484999998
  0
LINE
  5
C4
100
AcDbEntity
  8
0
  6
ByLayer
 62
  256
370
   -1
100
AcDbLine
 10
20.17601405000001
 20
108.87713485
 11
20.17601405000001
 21
95.87713484999998
  0
LINE
  5
C5
100
AcDbEntity
  8
0
  6
ByLayer
 62
  256
370
   -1
100
AcDbLine
 10
34.17601405000001
 20
108.87713485
 11
34.17601405000001
 21
95.87713484999998
  0
ARC
  5
C6
100
AcDbEntity
  8
0
  6
ByLayer
 62
  256
370
   -1
100
AcDbCircle
 10
20.67601405000001
 20
108.87713485
 40
0.5
100
AcDbArc
 50
90
 51
180
  0
ARC
  5
C7
100
AcDbEntity
  8
0
  6
ByLayer
 62
  256
370
   -1
100
AcDbCircle
 10
33.67601405000001
 20
108.87713485
 40
0.5
100
AcDbArc
 50
0
 51
90
  0
ARC
  5
C8
100
AcDbEntity
  8
0
  6
ByLayer
 62
  256
370
   -1
100
AcDbCircle
 10
20.67601405000001
 20
95.87713484999998
 40
0.5
100
AcDbArc
 50
180
 51
270
  0
ARC
  5
C9
100
AcDbEntity
  8
0
  6
ByLayer
 62
  256
370
   -1
100
AcDbCircle
 10
33.67601405000001
 20
95.87713484999998
 40
0.5
100
AcDbArc
 50
270
 51
0
  0
LINE
  5
CA
100
AcDbEntity
  8
0
  6
ByLayer
 62
  256
370
   -1
100
AcDbLine
 10
44.48851405000001
 20
109.37713485
 11
57.48851405000001
 21
109.37713485
  0
LINE
  5
CB
100
AcDbEntity
  8
0
  6
ByLayer
 62
  256
370
   -1
100
AcDbLine
 10
44.48851405000001
 20
95.37713484999998
 11
57.48851405000001
 21
95.37713484999998
  0
LINE
  5
CC
100
AcDbEntity
  8
0
  6
ByLayer
 62
  256
370
   -1
100
AcDbLine
 10
43.98851405000001
 20
108.87713485
 11
43.98851405000001
 21
95.87713484999998
  0
LINE
  5
CD
100
AcDbEntity
  8
0
  6
ByLayer
 62
  256
370
   -1
100
AcDbLine
 10
57.98851405000001
 20
108.87713485
 11
57.98851405000001
 21
95.87713484999998
  0
ARC
  5
CE
100
AcDbEntity
  8
0
  6
ByLayer
 62
  256
370
   -1
100
AcDbCircle
 10
44.48851405000001
 20
108.87713485
 40
0.5
100
AcDbArc
 50
90
 51
180
  0
ARC
  5
CF
100
AcDbEntity
  8
0
  6
ByLayer
 62
  256
370
   -1
100
AcDbCircle
 10
57.48851405000001
 20
108.87713485
 40
0.5
100
AcDbArc
 50
0
 51
90
  0
ARC
  5
D0
100
AcDbEntity
  8
0
  6
ByLayer
 62
  256
370
   -1
100
AcDbCircle
 10
44.48851405000001
 20
95.87713484999998
 40
0.5
100
AcDbArc
 50
180
 51
270
  0
ARC
  5
D1
100
AcDbEntity
  8
0
  6
ByLayer
 62
  256
370
   -1
100
AcDbCircle
 10
57.48851405000001
 20
95.87713484999998
 40
0.5
100
AcDbArc
 50
270
 51
0
  0
LINE
  5
D2
100
AcDbEntity
  8
0
  6
ByLayer
 62
  256
370
   -1
100
AcDbLine
 10
139.73851405
 20
109.37713485
 11
152.73851405
 21
109.37713485
  0
LINE
  5
D3
100
AcDbEntity
  8
0
  6
ByLayer
 62
  256
370
   -1
100
AcDbLine
 10
139.73851405
 20
95.37713484999998
 11
152.73851405
 21
95.37713484999998
  0
LINE
  5
D4
100
AcDbEntity
  8
0
  6
ByLayer
 62
  256
370
   -1
100
AcDbLine
 10
139.23851405
 20
108.87713485
 11
139.23851405
 21
95.87713484999998
  0
LINE
  5
D5
100
AcDbEntity
  8
0
  6
ByLayer
 62
  256
370
   -1
100
AcDbLine
 10
153.23851405
 20
108.87713485
 11
153.23851405
 21
95.87713484999998
  0
ARC
  5
D6
100
AcDbEntity
  8
0
  6
ByLayer
 62
  256
370
   -1
100
AcDbCircle
 10
139.73851405
 20
108.87713485
 40
0.5
100
AcDbArc
 50
90
 51
180
  0
ARC
  5
D7
100
AcDbEntity
  8
0
  6
ByLayer
 62
  256
370
   -1
100
AcDbCircle
 10
152.73851405
 20
108.87713485
 40
0.5
100
AcDbArc
 50
0
 51
90
  0
ARC
  5
D8
100
AcDbEntity
  8
0
  6
ByLayer
 62
  256
370
   -1
100
AcDbCircle
 10
139.73851405
 20
95.87713484999998
 40
0.5
100
AcDbArc
 50
180
 51
270
  0
ARC
  5
D9
100
AcDbEntity
  8
0
  6
ByLayer
 62
  256
370
   -1
100
AcDbCircle
 10
152.73851405
 20
95.87713484999998
 40
0.5
100
AcDbArc
 50
270
 51
0
  0
LINE
  5
DA
100
AcDbEntity
  8
0
  6
ByLayer
 62
  256
370
   -1
100
AcDbLine
 10
63.53851405000002
 20
99.85213484999998
 11
76.53851404999999
 21
99.85213484999998
  0
LINE
  5
DB
100
AcDbEntity
  8
0
  6
ByLayer
 62
  256
370
   -1
100
AcDbLine
 10
63.53851405000002
 20
85.85213484999997
 11
76.53851404999999
 21
85.85213484999997
  0
LINE
  5
DC
100
AcDbEntity
  8
0
  6
ByLayer
 62
  256
370
   -1
100
AcDbLine
 10
63.03851405000002
 20
99.35213484999998
 11
63.03851405000002
 21
86.35213484999998
  0
LINE
  5
DD
100
AcDbEntity
  8
0
  6
ByLayer
 62
  256
370
   -1
100
AcDbLine
 10
77.03851404999999
 20
99.35213484999998
 11
77.03851404999999
 21
86.35213484999998
  0
ARC
  5
DE
100
AcDbEntity
  8
0
  6
ByLayer
 62
  256
370
   -1
100
AcDbCircle
 10
63.53851405000002
 20
99.35213484999998
 40
0.5
100
AcDbArc
 50
90
 51
180
  0
ARC
  5
DF
100
AcDbEntity
  8
0
  6
ByLayer
 62
  256
370
   -1
100
AcDbCircle
 10
76.53851404999999
 20
99.35213484999998
 40
0.5
100
AcDbArc
 50
0
 51
90
  0
ARC
  5
E0
100
AcDbEntity
  8
0
  6
ByLayer
 62
  256
370
   -1
100
AcDbCircle
 10
63.53851405000002
 20
86.35213484999998
 40
0.5
100
AcDbArc
 50
180
 51
270
  0
ARC
  5
E1
100
AcDbEntity
  8
0
  6
ByLayer
 62
  256
370
   -1
100
AcDbCircle
 10
76.53851404999999
 20
86.35213484999998
 40
0.5
100
AcDbArc
 50
270
 51
0
  0
LINE
  5
E2
100
AcDbEntity
  8
0
  6
ByLayer
 62
  256
370
   -1
100
AcDbLine
 10
82.58851405
 20
99.85213484999998
 11
95.58851405
 21
99.85213484999998
  0
LINE
  5
E3
100
AcDbEntity
  8
0
  6
ByLayer
 62
  256
370
   -1
100
AcDbLine
 10
82.58851405
 20
85.85213484999997
 11
95.58851405
 21
85.85213484999997
  0
LINE
  5
E4
100
AcDbEntity
  8
0
  6
ByLayer
 62
  256
370
   -1
100
AcDbLine
 10
82.08851405
 20
99.35213484999998
 11
82.08851405
 21
86.35213484999998
  0
LINE
  5
E5
100
AcDbEntity
  8
0
  6
ByLayer
 62
  256
370
   -1
100
AcDbLine
 10
96.08851405
 20
99.35213484999998
 11
96.08851405
 21
86.35213484999998
  0
ARC
  5
E6
100
AcDbEntity
  8
0
  6
ByLayer
 62
  256
370
   -1
100
AcDbCircle
 10
82.58851405
 20
99.35213484999998
 40
0.5
100
AcDbArc
 50
90
 51
180
  0
ARC
  5
E7
100
AcDbEntity
  8
0
  6
ByLayer
 62
  256
370
   -1
100
AcDbCircle
 10
95.58851405
 20
99.35213484999998
 40
0.5
100
AcDbArc
 50
0
 51
90
  0
ARC
  5
E8
100
AcDbEntity
  8
0
  6
ByLayer
 62
  256
370
   -1
100
AcDbCircle
 10
82.58851405
 20
86.35213484999998
 40
0.5
100
AcDbArc
 50
180
 51
270
  0
ARC
  5
E9
100
AcDbEntity
  8
0
  6
ByLayer
 62
  256
370
   -1
100
AcDbCircle
 10
95.58851405
 20
86.35213484999998
 40
0.5
100
AcDbArc
 50
270
 51
0
  0
LINE
  5
EA
100
AcDbEntity
  8
0
  6
ByLayer
 62
  256
370
   -1
100
AcDbLine
 10
101.63851405
 20
95.08963484999998
 11
114.63851405
 21
95.08963484999998
  0
LINE
  5
EB
100
AcDbEntity
  8
0
  6
ByLayer
 62
  256
370
   -1
100
AcDbLine
 10
101.63851405
 20
81.08963484999998
 11
114.63851405
 21
81.08963484999998
  0
LINE
  5
EC
100
AcDbEntity
  8
0
  6
ByLayer
 62
  256
370
   -1
100
AcDbLine
 10
101.13851405
 20
94.58963484999998
 11
101.13851405
 21
81.58963484999998
  0
LINE
  5
ED
100
AcDbEntity
  8
0
  6
ByLayer
 62
  256
370
   -1
100
AcDbLine
 10
115.13851405
 20
94.58963484999998
 11
115.13851405
 21
81.58963484999998
  0
ARC
  5
EE
100
AcDbEntity
  8
0
  6
ByLayer
 62
  256
370
   -1
100
AcDbCircle
 10
101.63851405
 20
94.58963484999998
 40
0.5
100
AcDbArc
 50
90
 51
180
  0
ARC
  5
EF
100
AcDbEntity
  8
0
  6
ByLayer
 62
  256
370
   -1
100
AcDbCircle
 10
114.63851405
 20
94.58963484999998
 40
0.5
100
AcDbArc
 50
0
 51
90
  0
ARC
  5
F0
100
AcDbEntity
  8
0
  6
ByLayer
 62
  256
370
   -1
100
AcDbCircle
 10
101.63851405
 20
81.58963484999998
 40
0.5
100
AcDbArc
 50
180
 51
270
  0
ARC
  5
F1
100
AcDbEntity
  8
0
  6
ByLayer
 62
  256
370
   -1
100
AcDbCircle
 10
114.63851405
 20
81.58963484999998
 40
0.5
100
AcDbArc
 50
270
 51
0
  0
LINE
  5
F2
100
AcDbEntity
  8
0
  6
ByLayer
 62
  256
370
   -1
100
AcDbLine
 10
120.68851405
 20
95.08963484999998
 11
133.68851405
 21
95.08963484999998
  0
LINE
  5
F3
100
AcDbEntity
  8
0
  6
ByLayer
 62
  256
370
   -1
100
AcDbLine
 10
120.68851405
 20
81.08963484999998
 11
133.68851405
 21
81.08963484999998
  0
LINE
  5
F4
100
AcDbEntity
  8
0
  6
ByLayer
 62
  256
370
   -1
100
AcDbLine
 10
120.18851405
 20
94.58963484999998
 11
120.18851405
 21
81.58963484999998
  0
LINE
  5
F5
100
AcDbEntity
  8
0
  6
ByLayer
 62
  256
370
   -1
100
AcDbLine
 10
134.18851405
 20
94.58963484999998
 11
134.18851405
 21
81.58963484999998
  0
ARC
  5
F6
100
AcDbEntity
  8
0
  6
ByLayer
 62
  256
370
   -1
100
AcDbCircle
 10
120.68851405
 20
94.58963484999998
 40
0.5
100
AcDbArc
 50
90
 51
180
  0
ARC
  5
F7
100
AcDbEntity
  8
0
  6
ByLayer
 62
  256
370
   -1
100
AcDbCircle
 10
133.68851405
 20
94.58963484999998
 40
0.5
100
AcDbArc
 50
0
 51
90
  0
ARC
  5
F8
100
AcDbEntity
  8
0
  6
ByLayer
 62
  256
370
   -1
100
AcDbCircle
 10
120.68851405
 20
81.58963484999998
 40
0.5
100
AcDbArc
 50
180
 51
270
  0
ARC
  5
F9
100
AcDbEntity
  8
0
  6
ByLayer
 62
  256
370
   -1
100
AcDbCircle
 10
133.68851405
 20
81.58963484999998
 40
0.5
100
AcDbArc
 50
270
 51
0
  0
LINE
  5
FA
100
AcDbEntity
  8
0
  6
ByLayer
 62
  256
370
   -1
100
AcDbLine
 10
18.29476405
 20
90.32713484999999
 11
31.29476405
 21
90.32713484999999
  0
LINE
  5
FB
100
AcDbEntity
  8
0
  6
ByLayer
 62
  256
370
   -1
100
AcDbLine
 10
18.29476405
 20
76.32713484999999
 11
31.29476405
 21
76.32713484999999
  0
LINE
  5
FC
100
AcDbEntity
  8
0
  6
ByLayer
 62
  256
370
   -1
100
AcDbLine
 10
17.79476405
 20
89.82713484999999
 11
17.79476405
 21
76.82713484999999
  0
LINE
  5
FD
100
AcDbEntity
  8
0
  6
ByLayer
 62
  256
370
   -1
100
AcDbLine
 10
31.79476405
 20
89.82713484999999
 11
31.79476405
 21
76.82713484999999
  0
ARC
  5
FE
100
AcDbEntity
  8
0
  6
ByLayer
 62
  256
370
   -1
100
AcDbCircle
 10
18.29476405
 20
89.82713484999999
 40
0.5
100
AcDbArc
 50
90
 51
180
  0
ARC
  5
FF
100
AcDbEntity
  8
0
  6
ByLayer
 62
  256
370
   -1
100
AcDbCircle
 10
31.29476405
 20
89.82713484999999
 40
0.5
100
AcDbArc
 50
0
 51
90
  0
ARC
  5
100
100
AcDbEntity
  8
0
  6
ByLayer
 62
  256
370
   -1
100
AcDbCircle
 10
18.29476405
 20
76.82713484999999
 40
0.5
100
AcDbArc
 50
180
 51
270
  0
ARC
  5
101
100
AcDbEntity
  8
0
  6
ByLayer
 62
  256
370
   -1
100
AcDbCircle
 10
31.29476405
 20
76.82713484999999
 40
0.5
100
AcDbArc
 50
270
 51
0
  0
LINE
  5
102
100
AcDbEntity
  8
0
  6
ByLayer
 62
  256
370
   -1
100
AcDbLine
 10
44.48851405000001
 20
90.32713484999999
 11
57.48851405000001
 21
90.32713484999999
  0
LINE
  5
103
100
AcDbEntity
  8
0
  6
ByLayer
 62
  256
370
   -1
100
AcDbLine
 10
44.48851405000001
 20
76.32713484999999
 11
57.48851405000001
 21
76.32713484999999
  0
LINE
  5
104
100
AcDbEntity
  8
0
  6
ByLayer
 62
  256
370
   -1
100
AcDbLine
 10
43.98851405000001
 20
89.82713484999999
 11
43.98851405000001
 21
76.82713484999999
  0
LINE
  5
105
100
AcDbEntity
  8
0
  6
ByLayer
 62
  256
370
   -1
100
AcDbLine
 10
57.98851405000001
 20
89.82713484999999
 11
57.98851405000001
 21
76.82713484999999
  0
ARC
  5
106
100
AcDbEntity
  8
0
  6
ByLayer
 62
  256
370
   -1
100
AcDbCircle
 10
44.48851405000001
 20
89.82713484999999
 40
0.5
100
AcDbArc
 50
90
 51
180
  0
ARC
  5
107
100
AcDbEntity
  8
0
  6
ByLayer
 62
  256
370
   -1
100
AcDbCircle
 10
57.48851405000001
 20
89.82713484999999
 40
0.5
100
AcDbArc
 50
0
 51
90
  0
ARC
  5
108
100
AcDbEntity
  8
0
  6
ByLayer
 62
  256
370
   -1
100
AcDbCircle
 10
44.48851405000001
 20
76.82713484999999
 40
0.5
100
AcDbArc
 50
180
 51
270
  0
ARC
  5
109
100
AcDbEntity
  8
0
  6
ByLayer
 62
  256
370
   -1
100
AcDbCircle
 10
57.48851405000001
 20
76.82713484999999
 40
0.5
100
AcDbArc
 50
270
 51
0
  0
LINE
  5
10A
100
AcDbEntity
  8
0
  6
ByLayer
 62
  256
370
   -1
100
AcDbLine
 10
139.73851405
 20
90.32713484999999
 11
152.73851405
 21
90.32713484999999
  0
LINE
  5
10B
100
AcDbEntity
  8
0
  6
ByLayer
 62
  256
370
   -1
100
AcDbLine
 10
139.73851405
 20
76.32713484999999
 11
152.73851405
 21
76.32713484999999
  0
LINE
  5
10C
100
AcDbEntity
  8
0
  6
ByLayer
 62
  256
370
   -1
100
AcDbLine
 10
139.23851405
 20
89.82713484999999
 11
139.23851405
 21
76.82713484999999
  0
LINE
  5
10D
100
AcDbEntity
  8
0
  6
ByLayer
 62
  256
370
   -1
100
AcDbLine
 10
153.23851405
 20
89.82713484999999
 11
153.23851405
 21
76.82713484999999
  0
ARC
  5
10E
100
AcDbEntity
  8
0
  6
ByLayer
 62
  256
370
   -1
100
AcDbCircle
 10
139.73851405
 20
89.82713484999999
 40
0.5
100
AcDbArc
 50
90
 51
180
  0
ARC
  5
10F
100
AcDbEntity
  8
0
  6
ByLayer
 62
  256
370
   -1
100
AcDbCircle
 10
152.73851405
 20
89.82713484999999
 40
0.5
100
AcDbArc
 50
0
 51
90
  0
ARC
  5
110
100
AcDbEntity
  8
0
  6
ByLayer
 62
  256
370
   -1
100
AcDbCircle
 10
139.73851405
 20
76.82713484999999
 40
0.5
100
AcDbArc
 50
180
 51
270
  0
ARC
  5
111
100
AcDbEntity
  8
0
  6
ByLayer
 62
  256
370
   -1
100
AcDbCircle
 10
152.73851405
 20
76.82713484999999
 40
0.5
100
AcDbArc
 50
270
 51
0
  0
LINE
  5
112
100
AcDbEntity
  8
0
  6
ByLayer
 62
  256
370
   -1
100
AcDbLine
 10
63.53851405000002
 20
80.80213484999999
 11
76.53851404999999
 21
80.80213484999999
  0
LINE
  5
113
100
AcDbEntity
  8
0
  6
ByLayer
 62
  256
370
   -1
100
AcDbLine
 10
63.53851405000002
 20
66.80213484999999
 11
76.53851404999999
 21
66.80213484999999
  0
LINE
  5
114
100
AcDbEntity
  8
0
  6
ByLayer
 62
  256
370
   -1
100
AcDbLine
 10
63.03851405000002
 20
80.30213484999999
 11
63.03851405000002
 21
67.30213484999999
  0
LINE
  5
115
100
AcDbEntity
  8
0
  6
ByLayer
 62
  256
370
   -1
100
AcDbLine
 10
77.03851404999999
 20
80.30213484999999
 11
77.03851404999999
 21
67.30213484999999
  0
ARC
  5
116
100
AcDbEntity
  8
0
  6
ByLayer
 62
  256
370
   -1
100
AcDbCircle
 10
63.53851405000002
 20
80.30213484999999
 40
0.5
100
AcDbArc
 50
90
 51
180
  0
ARC
  5
117
100
AcDbEntity
  8
0
  6
ByLayer
 62
  256
370
   -1
100
AcDbCircle
 10
76.53851404999999
 20
80.30213484999999
 40
0.5
100
AcDbArc
 50
0
 51
90
  0
ARC
  5
118
100
AcDbEntity
  8
0
  6
ByLayer
 62
  256
370
   -1
100
AcDbCircle
 10
63.53851405000002
 20
67.30213484999999
 40
0.5
100
AcDbArc
 50
180
 51
270
  0
ARC
  5
119
100
AcDbEntity
  8
0
  6
ByLayer
 62
  256
370
   -1
100
AcDbCircle
 10
76.53851404999999
 20
67.30213484999999
 40
0.5
100
AcDbArc
 50
270
 51
0
  0
LINE
  5
11A
100
AcDbEntity
  8
0
  6
ByLayer
 62
  256
370
   -1
100
AcDbLine
 10
82.58851405
 20
80.80213484999999
 11
95.58851405
 21
80.80213484999999
  0
LINE
  5
11B
100
AcDbEntity
  8
0
  6
ByLayer
 62
  256
370
   -1
100
AcDbLine
 10
82.58851405
 20
66.80213484999999
 11
95.58851405
 21
66.80213484999999
  0
LINE
  5
11C
100
AcDbEntity
  8
0
  6
ByLayer
 62
  256
370
   -1
100
AcDbLine
 10
82.08851405
 20
80.30213484999999
 11
82.08851405
 21
67.30213484999999
  0
LINE
  5
11D
100
AcDbEntity
  8
0
  6
ByLayer
 62
  256
370
   -1
100
AcDbLine
 10
96.08851405
 20
80.30213484999999
 11
96.08851405
 21
67.30213484999999
  0
ARC
  5
11E
100
AcDbEntity
  8
0
  6
ByLayer
 62
  256
370
   -1
100
AcDbCircle
 10
82.58851405
 20
80.30213484999999
 40
0.5
100
AcDbArc
 50
90
 51
180
  0
ARC
  5
11F
100
AcDbEntity
  8
0
  6
ByLayer
 62
  256
370
   -1
100
AcDbCircle
 10
95.58851405
 20
80.30213484999999
 40
0.5
100
AcDbArc
 50
0
 51
90
  0
ARC
  5
120
100
AcDbEntity
  8
0
  6
ByLayer
 62
  256
370
   -1
100
AcDbCircle
 10
82.58851405
 20
67.30213484999999
 40
0.5
100
AcDbArc
 50
180
 51
270
  0
ARC
  5
121
100
AcDbEntity
  8
0
  6
ByLayer
 62
  256
370
   -1
100
AcDbCircle
 10
95.58851405
 20
67.30213484999999
 40
0.5
100
AcDbArc
 50
270
 51
0
  0
LINE
  5
122
100
AcDbEntity
  8
0
  6
ByLayer
 62
  256
370
   -1
100
AcDbLine
 10
101.63851405
 20
76.03963484999997
 11
114.63851405
 21
76.03963484999997
  0
LINE
  5
123
100
AcDbEntity
  8
0
  6
ByLayer
 62
  256
370
   -1
100
AcDbLine
 10
101.63851405
 20
62.03963484999998
 11
114.63851405
 21
62.03963484999998
  0
LINE
  5
124
100
AcDbEntity
  8
0
  6
ByLayer
 62
  256
370
   -1
100
AcDbLine
 10
101.13851405
 20
75.53963484999997
 11
101.13851405
 21
62.53963484999998
  0
LINE
  5
125
100
AcDbEntity
  8
0
  6
ByLayer
 62
  256
370
   -1
100
AcDbLine
 10
115.13851405
 20
75.53963484999997
 11
115.13851405
 21
62.53963484999998
  0
ARC
  5
126
100
AcDbEntity
  8
0
  6
ByLayer
 62
  256
370
   -1
100
AcDbCircle
 10
101.63851405
 20
75.53963484999997
 40
0.5
100
AcDbArc
 50
90
 51
180
  0
ARC
  5
127
100
AcDbEntity
  8
0
  6
ByLayer
 62
  256
370
   -1
100
AcDbCircle
 10
114.63851405
 20
75.53963484999997
 40
0.5
100
AcDbArc
 50
0
 51
90
  0
ARC
  5
128
100
AcDbEntity
  8
0
  6
ByLayer
 62
  256
370
   -1
100
AcDbCircle
 10
101.63851405
 20
62.53963484999998
 40
0.5
100
AcDbArc
 50
180
 51
270
  0
ARC
  5
129
100
AcDbEntity
  8
0
  6
ByLayer
 62
  256
370
   -1
100
AcDbCircle
 10
114.63851405
 20
62.53963484999998
 40
0.5
100
AcDbArc
 50
270
 51
0
  0
LINE
  5
12A
100
AcDbEntity
  8
0
  6
ByLayer
 62
  256
370
   -1
100
AcDbLine
 10
120.68851405
 20
76.03963484999997
 11
133.68851405
 21
76.03963484999997
  0
LINE
  5
12B
100
AcDbEntity
  8
0
  6
ByLayer
 62
  256
370
   -1
100
AcDbLine
 10
120.68851405
 20
62.03963484999998
 11
133.68851405
 21
62.03963484999998
  0
LINE
  5
12C
100
AcDbEntity
  8
0
  6
ByLayer
 62
  256
370
   -1
100
AcDbLine
 10
120.18851405
 20
75.53963484999997
 11
120.18851405
 21
62.53963484999998
  0
LINE
  5
12D
100
AcDbEntity
  8
0
  6
ByLayer
 62
  256
370
   -1
100
AcDbLine
 10
134.18851405
 20
75.53963484999997
 11
134.18851405
 21
62.53963484999998
  0
ARC
  5
12E
100
AcDbEntity
  8
0
  6
ByLayer
 62
  256
370
   -1
100
AcDbCircle
 10
120.68851405
 20
75.53963484999997
 40
0.5
100
AcDbArc
 50
90
 51
180
  0
ARC
  5
12F
100
AcDbEntity
  8
0
  6
ByLayer
 62
  256
370
   -1
100
AcDbCircle
 10
133.68851405
 20
75.53963484999997
 40
0.5
100
AcDbArc
 50
0
 51
90
  0
ARC
  5
130
100
AcDbEntity
  8
0
  6
ByLayer
 62
  256
370
   -1
100
AcDbCircle
 10
120.68851405
 20
62.53963484999998
 40
0.5
100
AcDbArc
 50
180
 51
270
  0
ARC
  5
131
100
AcDbEntity
  8
0
  6
ByLayer
 62
  256
370
   -1
100
AcDbCircle
 10
133.68851405
 20
62.53963484999998
 40
0.5
100
AcDbArc
 50
270
 51
0
  0
LINE
  5
132
100
AcDbEntity
  8
0
  6
ByLayer
 62
  256
370
   -1
100
AcDbLine
 10
18.29476405
 20
71.27713484999998
 11
31.29476405
 21
71.27713484999998
  0
LINE
  5
133
100
AcDbEntity
  8
0
  6
ByLayer
 62
  256
370
   -1
100
AcDbLine
 10
18.29476405
 20
57.27713484999999
 11
31.29476405
 21
57.27713484999999
  0
LINE
  5
134
100
AcDbEntity
  8
0
  6
ByLayer
 62
  256
370
   -1
100
AcDbLine
 10
17.79476405
 20
70.77713484999998
 11
17.79476405
 21
57.77713484999999
  0
LINE
  5
135
100
AcDbEntity
  8
0
  6
ByLayer
 62
  256
370
   -1
100
AcDbLine
 10
31.79476405
 20
70.77713484999998
 11
31.79476405
 21
57.77713484999999
  0
ARC
  5
136
100
AcDbEntity
  8
0
  6
ByLayer
 62
  256
370
   -1
100
AcDbCircle
 10
18.29476405
 20
70.77713484999998
 40
0.5
100
AcDbArc
 50
90
 51
180
  0
ARC
  5
137
100
AcDbEntity
  8
0
  6
ByLayer
 62
  256
370
   -1
100
AcDbCircle
 10
31.29476405
 20
70.77713484999998
 40
0.5
100
AcDbArc
 50
0
 51
90
  0
ARC
  5
138
100
AcDbEntity
  8
0
  6
ByLayer
 62
  256
370
   -1
100
AcDbCircle
 10
18.29476405
 20
57.77713484999999
 40
0.5
100
AcDbArc
 50
180
 51
270
  0
ARC
  5
139
100
AcDbEntity
  8
0
  6
ByLayer
 62
  256
370
   -1
100
AcDbCircle
 10
31.29476405
 20
57.77713484999999
 40
0.5
100
AcDbArc
 50
270
 51
0
  0
LINE
  5
13A
100
AcDbEntity
  8
0
  6
ByLayer
 62
  256
370
   -1
100
AcDbLine
 10
44.48851405000001
 20
71.27713484999998
 11
57.48851405000001
 21
71.27713484999998
  0
LINE
  5
13B
100
AcDbEntity
  8
0
  6
ByLayer
 62
  256
370
   -1
100
AcDbLine
 10
44.48851405000001
 20
57.27713484999999
 11
57.48851405000001
 21
57.27713484999999
  0
LINE
  5
13C
100
AcDbEntity
  8
0
  6
ByLayer
 62
  256
370
   -1
100
AcDbLine
 10
43.98851405000001
 20
70.77713484999998
 11
43.98851405000001
 21
57.77713484999999
  0
LINE
  5
13D
100
AcDbEntity
  8
0
  6
ByLayer
 62
  256
370
   -1
100
AcDbLine
 10
57.98851405000001
 20
70.77713484999998
 11
57.98851405000001
 21
57.77713484999999
  0
ARC
  5
13E
100
AcDbEntity
  8
0
  6
ByLayer
 62
  256
370
   -1
100
AcDbCircle
 10
44.48851405000001
 20
70.77713484999998
 40
0.5
100
AcDbArc
 50
90
 51
180
  0
ARC
  5
13F
100
AcDbEntity
  8
0
  6
ByLayer
 62
  256
370
   -1
100
AcDbCircle
 10
57.48851405000001
 20
70.77713484999998
 40
0.5
100
AcDbArc
 50
0
 51
90
  0
ARC
  5
140
100
AcDbEntity
  8
0
  6
ByLayer
 62
  256
370
   -1
100
AcDbCircle
 10
44.48851405000001
 20
57.77713484999999
 40
0.5
100
AcDbArc
 50
180
 51
270
  0
ARC
  5
141
100
AcDbEntity
  8
0
  6
ByLayer
 62
  256
370
   -1
100
AcDbCircle
 10
57.48851405000001
 20
57.77713484999999
 40
0.5
100
AcDbArc
 50
270
 51
0
  0
LINE
  5
142
100
AcDbEntity
  8
0
  6
ByLayer
 62
  256
370
   -1
100
AcDbLine
 10
139.73851405
 20
71.27713484999998
 11
152.73851405
 21
71.27713484999998
  0
LINE
  5
143
100
AcDbEntity
  8
0
  6
ByLayer
 62
  256
370
   -1
100
AcDbLine
 10
139.73851405
 20
57.27713484999999
 11
152.73851405
 21
57.27713484999999
  0
LINE
  5
144
100
AcDbEntity
  8
0
  6
ByLayer
 62
  256
370
   -1
100
AcDbLine
 10
139.23851405
 20
70.77713484999998
 11
139.23851405
 21
57.77713484999999
  0
LINE
  5
145
100
AcDbEntity
  8
0
  6
ByLayer
 62
  256
370
   -1
100
AcDbLine
 10
153.23851405
 20
70.77713484999998
 11
153.23851405
 21
57.77713484999999
  0
ARC
  5
146
100
AcDbEntity
  8
0
  6
ByLayer
 62
  256
370
   -1
100
AcDbCircle
 10
139.73851405
 20
70.77713484999998
 40
0.5
100
AcDbArc
 50
90
 51
180
  0
ARC
  5
147
100
AcDbEntity
  8
0
  6
ByLayer
 62
  256
370
   -1
100
AcDbCircle
 10
152.73851405
 20
70.77713484999998
 40
0.5
100
AcDbArc
 50
0
 51
90
  0
ARC
  5
148
100
AcDbEntity
  8
0
  6
ByLayer
 62
  256
370
   -1
100
AcDbCircle
 10
139.73851405
 20
57.77713484999999
 40
0.5
100
AcDbArc
 50
180
 51
270
  0
ARC
  5
149
100
AcDbEntity
  8
0
  6
ByLayer
 62
  256
370
   -1
100
AcDbCircle
 10
152.73851405
 20
57.77713484999999
 40
0.5
100
AcDbArc
 50
270
 51
0
  0
LINE
  5
14A
100
AcDbEntity
  8
0
  6
ByLayer
 62
  256
370
   -1
100
AcDbLine
 10
25.43851405000001
 20
52.22713484999998
 11
38.43851405000001
 21
52.22713484999998
  0
LINE
  5
14B
100
AcDbEntity
  8
0
  6
ByLayer
 62
  256
370
   -1
100
AcDbLine
 10
25.43851405000001
 20
38.22713484999998
 11
38.43851405000001
 21
38.22713484999998
  0
LINE
  5
14C
100
AcDbEntity
  8
0
  6
ByLayer
 62
  256
370
   -1
100
AcDbLine
 10
24.93851405000001
 20
51.72713484999998
 11
24.93851405000001
 21
38.72713484999998
  0
LINE
  5
14D
100
AcDbEntity
  8
0
  6
ByLayer
 62
  256
370
   -1
100
AcDbLine
 10
38.93851405000001
 20
51.72713484999998
 11
38.93851405000001
 21
38.72713484999998
  0
ARC
  5
14E
100
AcDbEntity
  8
0
  6
ByLayer
 62
  256
370
   -1
100
AcDbCircle
 10
25.43851405000001
 20
51.72713484999998
 40
0.5
100
AcDbArc
 50
90
 51
180
  0
ARC
  5
14F
100
AcDbEntity
  8
0
  6
ByLayer
 62
  256
370
   -1
100
AcDbCircle
 10
38.43851405000001
 20
51.72713484999998
 40
0.5
100
AcDbArc
 50
0
 51
90
  0
ARC
  5
150
100
AcDbEntity
  8
0
  6
ByLayer
 62
  256
370
   -1
100
AcDbCircle
 10
25.43851405000001
 20
38.72713484999998
 40
0.5
100
AcDbArc
 50
180
 51
270
  0
ARC
  5
151
100
AcDbEntity
  8
0
  6
ByLayer
 62
  256
370
   -1
100
AcDbCircle
 10
38.43851405000001
 20
38.72713484999998
 40
0.5
100
AcDbArc
 50
270
 51
0
  0
LINE
  5
152
100
AcDbEntity
  8
0
  6
ByLayer
 62
  256
370
   -1
100
AcDbLine
 10
44.48851405000001
 20
52.22713484999998
 11
57.48851405000001
 21
52.22713484999998
  0
LINE
  5
153
100
AcDbEntity
  8
0
  6
ByLayer
 62
  256
370
   -1
100
AcDbLine
 10
44.48851405000001
 20
38.22713484999998
 11
57.48851405000001
 21
38.22713484999998
  0
LINE
  5
154
100
AcDbEntity
  8
0
  6
ByLayer
 62
  256
370
   -1
100
AcDbLine
 10
43.98851405000001
 20
51.72713484999998
 11
43.98851405000001
 21
38.72713484999998
  0
LINE
  5
155
100
AcDbEntity
  8
0
  6
ByLayer
 62
  256
370
   -1
100
AcDbLine
 10
57.98851405000001
 20
51.72713484999998
 11
57.98851405000001
 21
38.72713484999998
  0
ARC
  5
156
100
AcDbEntity
  8
0
  6
ByLayer
 62
  256
370
   -1
100
AcDbCircle
 10
44.48851405000001
 20
51.72713484999998
 40
0.5
100
AcDbArc
 50
90
 51
180
  0
ARC
  5
157
100
AcDbEntity
  8
0
  6
ByLayer
 62
  256
370
   -1
100
AcDbCircle
 10
57.48851405000001
 20
51.72713484999998
 40
0.5
100
AcDbArc
 50
0
 51
90
  0
ARC
  5
158
100
AcDbEntity
  8
0
  6
ByLayer
 62
  256
370
   -1
100
AcDbCircle
 10
44.48851405000001
 20
38.72713484999998
 40
0.5
100
AcDbArc
 50
180
 51
270
  0
ARC
  5
159
100
AcDbEntity
  8
0
  6
ByLayer
 62
  256
370
   -1
100
AcDbCircle
 10
57.48851405000001
 20
38.72713484999998
 40
0.5
100
AcDbArc
 50
270
 51
0
  0
LINE
  5
15A
100
AcDbEntity
  8
0
  6
ByLayer
 62
  256
370
   -1
100
AcDbLine
 10
63.53851405000002
 20
52.22713484999998
 11
76.53851404999999
 21
52.22713484999998
  0
LINE
  5
15B
100
AcDbEntity
  8
0
  6
ByLayer
 62
  256
370
   -1
100
AcDbLine
 10
63.53851405000002
 20
38.22713484999998
 11
76.53851404999999
 21
38.22713484999998
  0
LINE
  5
15C
100
AcDbEntity
  8
0
  6
ByLayer
 62
  256
370
   -1
100
AcDbLine
 10
63.03851405000002
 20
51.72713484999998
 11
63.03851405000002
 21
38.72713484999998
  0
LINE
  5
15D
100
AcDbEntity
  8
0
  6
ByLayer
 62
  256
370
   -1
100
AcDbLine
 10
77.03851404999999
 20
51.72713484999998
 11
77.03851404999999
 21
38.72713484999998
  0
ARC
  5
15E
100
AcDbEntity
  8
0
  6
ByLayer
 62
  256
370
   -1
100
AcDbCircle
 10
63.53851405000002
 20
51.72713484999998
 40
0.5
100
AcDbArc
 50
90
 51
180
  0
ARC
  5
15F
100
AcDbEntity
  8
0
  6
ByLayer
 62
  256
370
   -1
100
AcDbCircle
 10
76.53851404999999
 20
51.72713484999998
 40
0.5
100
AcDbArc
 50
0
 51
90
  0
ARC
  5
160
100
AcDbEntity
  8
0
  6
ByLayer
 62
  256
370
   -1
100
AcDbCircle
 10
63.53851405000002
 20
38.72713484999998
 40
0.5
100
AcDbArc
 50
180
 51
270
  0
ARC
  5
161
100
AcDbEntity
  8
0
  6
ByLayer
 62
  256
370
   -1
100
AcDbCircle
 10
76.53851404999999
 20
38.72713484999998
 40
0.5
100
AcDbArc
 50
270
 51
0
  0
LINE
  5
162
100
AcDbEntity
  8
0
  6
ByLayer
 62
  256
370
   -1
100
AcDbLine
 10
129.92935555
 20
38.75147224999998
 11
126.78437095
 21
26.13762774999999
  0
LINE
  5
163
100
AcDbEntity
  8
0
  6
ByLayer
 62
  256
370
   -1
100
AcDbLine
 10
116.34521535
 20
42.13837874999998
 11
113.20023075
 21
29.52453424999998
  0
LINE
  5
164
100
AcDbEntity
  8
0
  6
ByLayer
 62
  256
370
   -1
100
AcDbLine
 10
129.56516865
 20
39.35758104999999
 11
116.95132415
 21
42.50256564999999
  0
LINE
  5
165
100
AcDbEntity
  8
0
  6
ByLayer
 62
  256
370
   -1
100
AcDbLine
 10
126.17826215
 20
25.77344084999998
 11
113.56441765
 21
28.91842544999998
  0
ARC
  5
166
100
AcDbEntity
  8
0
  6
ByLayer
 62
  256
370
   -1
100
AcDbCircle
 10
129.44420765
 20
38.87243314999998
 40
0.5
100
AcDbArc
 50
346
 51
76
  0
ARC
  5
167
100
AcDbEntity
  8
0
  6
ByLayer
 62
  256
370
   -1
100
AcDbCircle
 10
126.29922305
 20
26.25858874999998
 40
0.5
100
AcDbArc
 50
256
 51
346
  0
ARC
  5
168
100
AcDbEntity
  8
0
  6
ByLayer
 62
  256
370
   -1
100
AcDbCircle
 10
116.83036325
 20
42.01741774999999
 40
0.5
100
AcDbArc
 50
76
 51
166
  0
ARC
  5
169
100
AcDbEntity
  8
0
  6
ByLayer
 62
  256
370
   -1
100
AcDbCircle
 10
113.68537865
 20
29.40357334999998
 40
0.5
100
AcDbArc
 50
166
 51
256
  0
LINE
  5
16A
100
AcDbEntity
  8
0
  6
ByLayer
 62
  256
370
   -1
100
AcDbLine
 10
131.00039675
 20
47.18074944999999
 11
129.54886545
 21
41.35897504999998
  0
LINE
  5
16B
100
AcDbEntity
  8
0
  6
ByLayer
 62
  256
370
   -1
100
AcDbLine
 10
116.44596085
 20
50.80957784999999
 11
114.99442955
 21
44.98780354999999
  0
LINE
  5
16C
100
AcDbEntity
  8
0
  6
ByLayer
 62
  256
370
   -1
100
AcDbLine
 10
130.63620985
 20
47.78685824999999
 11
117.05206975
 21
51.17376474999998
  0
LINE
  5
16D
100
AcDbEntity
  8
0
  6
ByLayer
 62
  256
370
   -1
100
AcDbLine
 10
128.94275655
 20
40.99478814999998
 11
115.35861645
 21
44.38169474999999
  0
ARC
  5
16E
100
AcDbEntity
  8
0
  6
ByLayer
 62
  256
370
   -1
100
AcDbCircle
 10
130.51524895
 20
47.30171034999999
 40
0.5
100
AcDbArc
 50
346
 51
76
  0
ARC
  5
16F
100
AcDbEntity
  8
0
  6
ByLayer
 62
  256
370
   -1
100
AcDbCircle
 10
129.06371755
 20
41.47993604999998
 40
0.5
100
AcDbArc
 50
256
 51
346
  0
ARC
  5
170
100
AcDbEntity
  8
0
  6
ByLayer
 62
  256
370
   -1
100
AcDbCircle
 10
116.93110875
 20
50.68861694999999
 40
0.5
100
AcDbArc
 50
76
 51
166
  0
ARC
  5
171
100
AcDbEntity
  8
0
  6
ByLayer
 62
  256
370
   -1
100
AcDbCircle
 10
115.47957735
 20
44.86684254999998
 40
0.5
100
AcDbArc
 50
166
 51
256
  0
LINE
  5
172
100
AcDbEntity
  8
0
  6
ByLayer
 62
  256
370
   -1
100
AcDbLine
 10
125.22426965
 20
24.01396864999999
 11
123.77273825
 21
18.19219434999997
  0
LINE
  5
173
100
AcDbEntity
  8
0
  6
ByLayer
 62
  256
370
   -1
100
AcDbLine
 10
110.66983375
 20
27.64279714999999
 11
109.21830235
 21
21.82102274999998
  0
LINE
  5
174
100
AcDbEntity
  8
0
  6
ByLayer
 62
  256
370
   -1
100
AcDbLine
 10
124.86008265
 20
24.62007744999999
 11
111.27594255
 21
28.00698404999998
  0
LINE
  5
175
100
AcDbEntity
  8
0
  6
ByLayer
 62
  256
370
   -1
100
AcDbLine
 10
123.16662945
 20
17.82800744999998
 11
109.58248925
 21
21.21491394999999
  0
ARC
  5
176
100
AcDbEntity
  8
0
  6
ByLayer
 62
  256
370
   -1
100
AcDbCircle
 10
124.73912175
 20
24.13492964999998
 40
0.5
100
AcDbArc
 50
346
 51
76
  0
ARC
  5
177
100
AcDbEntity
  8
0
  6
ByLayer
 62
  256
370
   -1
100
AcDbCircle
 10
123.28759035
 20
18.31315524999997
 40
0.5
100
AcDbArc
 50
256
 51
346
  0
ARC
  5
178
100
AcDbEntity
  8
0
  6
ByLayer
 62
  256
370
   -1
100
AcDbCircle
 10
111.15498155
 20
27.52183614999998
 40
0.5
100
AcDbArc
 50
76
 51
166
  0
ARC
  5
179
100
AcDbEntity
  8
0
  6
ByLayer
 62
  256
370
   -1
100
AcDbCircle
 10
109.70345025
 20
21.70006184999998
 40
0.5
100
AcDbArc
 50
166
 51
256
  0
LINE
  5
17A
100
AcDbEntity
  8
0
  6
ByLayer
 62
  256
370
   -1
100
AcDbLine
 10
148.41348915
 20
34.14286014999998
 11
145.26850455
 21
21.52901564999997
  0
LINE
  5
17B
100
AcDbEntity
  8
0
  6
ByLayer
 62
  256
370
   -1
100
AcDbLine
 10
134.82934895
 20
37.52976664999998
 11
131.68436435
 21
24.91592214999998
  0
LINE
  5
17C
100
AcDbEntity
  8
0
  6
ByLayer
 62
  256
370
   -1
100
AcDbLine
 10
148.04930225
 20
34.74896894999998
 11
135.43545775
 21
37.89395354999998
  0
LINE
  5
17D
100
AcDbEntity
  8
0
  6
ByLayer
 62
  256
370
   -1
100
AcDbLine
 10
144.66239575
 20
21.16482874999998
 11
132.04855125
 21
24.30981334999998
  0
ARC
  5
17E
100
AcDbEntity
  8
0
  6
ByLayer
 62
  256
370
   -1
100
AcDbCircle
 10
147.92834125
 20
34.26382104999998
 40
0.5
100
AcDbArc
 50
346
 51
76
  0
ARC
  5
17F
100
AcDbEntity
  8
0
  6
ByLayer
 62
  256
370
   -1
100
AcDbCircle
 10
144.78335665
 20
21.64997664999999
 40
0.5
100
AcDbArc
 50
256
 51
346
  0
ARC
  5
180
100
AcDbEntity
  8
0
  6
ByLayer
 62
  256
370
   -1
100
AcDbCircle
 10
135.31449685
 20
37.40880564999998
 40
0.5
100
AcDbArc
 50
76
 51
166
  0
ARC
  5
181
100
AcDbEntity
  8
0
  6
ByLayer
 62
  256
370
   -1
100
AcDbCircle
 10
132.16951225
 20
24.79496124999998
 40
0.5
100
AcDbArc
 50
166
 51
256
  0
LINE
  5
182
100
AcDbEntity
  8
0
  6
ByLayer
 62
  256
370
   -1
100
AcDbLine
 10
149.48453035
 20
42.57213734999998
 11
148.03299905
 21
36.75036294999999
  0
LINE
  5
183
100
AcDbEntity
  8
0
  6
ByLayer
 62
  256
370
   -1
100
AcDbLine
 10
134.93009445
 20
46.20096574999999
 11
133.47856315
 21
40.37919144999999
  0
LINE
  5
184
100
AcDbEntity
  8
0
  6
ByLayer
 62
  256
370
   -1
100
AcDbLine
 10
149.12034345
 20
43.17824614999999
 11
135.53620335
 21
46.56515264999998
  0
LINE
  5
185
100
AcDbEntity
  8
0
  6
ByLayer
 62
  256
370
   -1
100
AcDbLine
 10
147.42689015
 20
36.38617604999998
 11
133.84275005
 21
39.77308264999998
  0
ARC
  5
186
100
AcDbEntity
  8
0
  6
ByLayer
 62
  256
370
   -1
100
AcDbCircle
 10
148.99938255
 20
42.69309824999998
 40
0.5
100
AcDbArc
 50
346
 51
76
  0
ARC
  5
187
100
AcDbEntity
  8
0
  6
ByLayer
 62
  256
370
   -1
100
AcDbCircle
 10
147.54785115
 20
36.87132394999998
 40
0.5
100
AcDbArc
 50
256
 51
346
  0
ARC
  5
188
100
AcDbEntity
  8
0
  6
ByLayer
 62
  256
370
   -1
100
AcDbCircle
 10
135.41524235
 20
46.08000484999999
 40
0.5
100
AcDbArc
 50
76
 51
166
  0
ARC
  5
189
100
AcDbEntity
  8
0
  6
ByLayer
 62
  256
370
   -1
100
AcDbCircle
 10
133.96371095
 20
40.25823044999998
 40
0.5
100
AcDbArc
 50
166
 51
256
  0
LINE
  5
18A
100
AcDbEntity
  8
0
  6
ByLayer
 62
  256
370
   -1
100
AcDbLine
 10
143.70840325
 20
19.40535654999997
 11
142.25687185
 21
13.58358224999998
  0
LINE
  5
18B
100
AcDbEntity
  8
0
  6
ByLayer
 62
  256
370
   -1
100
AcDbLine
 10
129.15396735
 20
23.03418504999998
 11
127.70243595
 21
17.21241064999999
  0
LINE
  5
18C
100
AcDbEntity
  8
0
  6
ByLayer
 62
  256
370
   -1
100
AcDbLine
 10
143.34421625
 20
20.01146534999999
 11
129.76007615
 21
23.39837194999998
  0
LINE
  5
18D
100
AcDbEntity
  8
0
  6
ByLayer
 62
  256
370
   -1
100
AcDbLine
 10
141.65076305
 20
13.21939534999999
 11
128.06662285
 21
16.60630184999997
  0
ARC
  5
18E
100
AcDbEntity
  8
0
  6
ByLayer
 62
  256
370
   -1
100
AcDbCircle
 10
143.22325535
 20
19.52631754999999
 40
0.5
100
AcDbArc
 50
346
 51
76
  0
ARC
  5
18F
100
AcDbEntity
  8
0
  6
ByLayer
 62
  256
370
   -1
100
AcDbCircle
 10
141.77172395
 20
13.70454314999999
 40
0.5
100
AcDbArc
 50
256
 51
346
  0
ARC
  5
190
100
AcDbEntity
  8
0
  6
ByLayer
 62
  256
370
   -1
100
AcDbCircle
 10
129.63911515
 20
22.91322404999999
 40
0.5
100
AcDbArc
 50
76
 51
166
  0
ARC
  5
191
100
AcDbEntity
  8
0
  6
ByLayer
 62
  256
370
   -1
100
AcDbCircle
 10
128.18758385
 20
17.09144974999999
 40
0.5
100
AcDbArc
 50
166
 51
256
  0
LINE
  5
192
100
AcDbEntity
  8
0
  6
ByLayer
 62
  256
370
   -1
100
AcDbLine
 10
98.46719055000001
 20
47.11117784999998
 11
111.08103505
 21
43.96619324999998
  0
LINE
  5
193
100
AcDbEntity
  8
0
  6
ByLayer
 62
  256
370
   -1
100
AcDbLine
 10
95.08028405
 20
33.52703764999999
 11
107.69412855
 21
30.38205304999999
  0
LINE
  5
194
100
AcDbEntity
  8
0
  6
ByLayer
 62
  256
370
   -1
100
AcDbLine
 10
97.86108175
 20
46.74699094999999
 11
94.71609715000001
 21
34.13314644999998
  0
LINE
  5
195
100
AcDbEntity
  8
0
  6
ByLayer
 62
  256
370
   -1
100
AcDbLine
 10
111.44522195
 20
43.36008444999998
 11
108.30023735
 21
30.74623994999998
  0
ARC
  5
196
100
AcDbEntity
  8
0
  6
ByLayer
 62
  256
370
   -1
100
AcDbCircle
 10
98.34622965000001
 20
46.62602994999998
 40
0.5
100
AcDbArc
 50
76
 51
166
  0
ARC
  5
197
100
AcDbEntity
  8
0
  6
ByLayer
 62
  256
370
   -1
100
AcDbCircle
 10
110.96007405
 20
43.48104534999998
 40
0.5
100
AcDbArc
 50
346
 51
76
  0
ARC
  5
198
100
AcDbEntity
  8
0
  6
ByLayer
 62
  256
370
   -1
100
AcDbCircle
 10
95.20124505
 20
34.01218554999998
 40
0.5
100
AcDbArc
 50
166
 51
256
  0
ARC
  5
199
100
AcDbEntity
  8
0
  6
ByLayer
 62
  256
370
   -1
100
AcDbCircle
 10
107.81508945
 20
30.86720094999999
 40
0.5
100
AcDbArc
 50
256
 51
346
  0
LINE
  5
19A
100
AcDbEntity
  8
Cuts
  6
ByLayer
 62
  256
370
   -1
100
AcDbLine
 10
108.4218818106387
 20
17.83188958406516
 11
143.350513407469
 21
10.40757968923048
  0
ARC
  5
19B
100
AcDbEntity
  8
Cuts
  6
ByLayer
 62
  256
370
   -1
100
AcDbCircle
 10
144.1821601770391
 20
14.32017009082681
 40
4
100
AcDbArc
 50
257.9999999077575
 51
314.9999999999999
  0
LINE
  5
19C
100
AcDbEntity
  8
Cuts
  6
ByLayer
 62
  256
370
   -1
100
AcDbLine
 10
147.0105873017853
 20
11.49174296608061
 11
156.0669411747462
 21
20.54809683904153
  0
ARC
  5
19D
100
AcDbEntity
  8
Cuts
  6
ByLayer
 62
  256
370
   -1
100
AcDbCircle
 10
153.23851405
 20
23.37652396378773
 40
4
100
AcDbArc
 50
314.9999999999998
 51
0
  0
LINE
  5
19E
100
AcDbEntity
  8
Cuts
  6
ByLayer
 62
  256
370
   -1
100
AcDbLine
 10
157.23851405
 20
59.951941440946
 11
157.23851405
 21
23.37652396378773
  0
ARC
  5
19F
100
AcDbEntity
  8
Cuts
  6
ByLayer
 62
  256
370
   -1
100
AcDbCircle
 10
161.23851405
 20
59.951941440946
 40
4
100
AcDbArc
 50
90
 51
180
  0
LINE
  5
1A0
100
AcDbEntity
  8
Cuts
  6
ByLayer
 62
  256
370
   -1
100
AcDbLine
 10
161.23851405
 20
63.95194144094601
 11
180.23851405
 21
63.95194144094601
  0
LINE
  5
1A1
100
AcDbEntity
  8
Cuts
  6
ByLayer
 62
  256
370
   -1
100
AcDbLine
 10
184.23851405
 20
132.18963485
 11
184.23851405
 21
67.951941440946
  0
ARC
  5
1A2
100
AcDbEntity
  8
Cuts
  6
ByLayer
 62
  256
370
   -1
100
AcDbCircle
 10
180.23851405
 20
67.951941440946
 40
4
100
AcDbArc
 50
270
 51
0
  0
ENDSEC
  0
SECTION
  2
OBJECTS
  0
DICTIONARY
  5
C
330
0
100
AcDbDictionary
281
    1
  3
ACAD_GROUP
350
D
  0
DICTIONARY
  5
D
330
C
100
AcDbDictionary
281
    1
  0
ENDSEC
  0
EOF
